<?xml version="1.0" encoding="utf-8"?>
<!-- Generator: Adobe Illustrator 26.4.1, SVG Export Plug-In . SVG Version: 6.00 Build 0)  -->
<svg version="1.1" id="Layer_1" xmlns="http://www.w3.org/2000/svg" xmlns:xlink="http://www.w3.org/1999/xlink" x="0px" y="0px"
	 viewBox="0 0 595.3 841.9" style="enable-background:new 0 0 595.3 841.9;" xml:space="preserve">
<style type="text/css">
	.st0{fill:#FFFFFF;}
</style>
<g>
	<path class="st0" d="M0,429.5c1.8-0.1,3.6-0.2,5.4-0.4c0.8-0.1,1.8,0,2.4-0.4c7.8-4.5,14.2-1.9,20.1,3.6c0.4,0.4,0.5,1,1,1.7
		c1-1.2,1.7-1.7,2-2.5c2.6-5.8,5-11.7,7.6-17.5c1.5-3.4,3.4-6.7,5-10.2c0.6-1.2,1-2.7,1-4c-0.1-2.3-0.7-4.6-1.1-7.3
		c-7.3,3.4-15.2,7.1-23.2,10.9c-0.2-0.3-0.4-0.7-0.5-1c5.7-3.1,11.3-6.4,17-9.4c4-2.1,8.2-3.9,12.2-6.1c1.2-0.7,1.9-2.2,3.1-3.6
		c-11.8-2.4-23-4.6-34.2-6.8c0-0.3,0.1-0.6,0.1-0.9c8.8,1.5,17.6,3,26.4,4.5c1.2,0.2,2.4,0.4,3.5,0.9c4.2,2,6.8,0,9.1-3.2
		c1.7-2.3,3.7-4.5,5.6-6.7c-3.6-3.2-3.5-3.9,0.1-7.7c2.2-2.3,3.9-5,6.2-7.1c4-3.8,8.4-7.1,12.3-11c5.7-5.7,6.1-3.6,3.2-11
		c-0.6-1.4-1-3.2-0.5-4.5c0.7-2.1-0.3-3.4-1.1-5.1c-2.4-5-5.2-10-6.9-15.3c-2.5-7.4-4.5-14.9-6.2-22.5c-1.5-6.9-2.2-14-3.2-20.9
		c-3.2-20.6-3-41.4-3.2-62.2c0-1.2-0.9-2.4-1.3-3.5c0.5-1.3,1.3-2.6,1.4-4c0.5-7.2,0.8-14.4,1.9-21.6c0,7.2,0,14.4,0,21.6
		c0,3.5,1.1,4.4,4.6,3.9c4.2-0.6,8.3-1.1,13-1.7c0-0.2,0.1-1.2,0-2.1c-1.4-17.2-1.2-34.4,1.3-51.5c0.9-6.2,2.9-12.2,4.5-18.2
		c1-3.9,2.1-7.7,3.3-11.5c3.1-9.7,7.1-19,12.6-27.6c6.2-9.8,13-19.4,18.9-29.4c4.7-8.1,10.5-15.2,16.9-22c4.3-4.5,8.2-9.4,12-14.4
		c6-7.9,12.3-15.6,20.4-21.6c1.1,0,2.2,0,3.3,0c-3.6,3.5-7.5,6.9-10.9,10.7c-4.4,5-8.3,10.5-12.5,15.6c-3.4,4.2-6.7,8.4-10.4,12.2
		c-5.7,5.8-10.6,12.1-14.9,19c-4.5,7.3-9.7,14.3-14.2,21.6c-2.9,4.6-5.5,9.5-7.9,14.4c-2.7,5.4-5.2,10.8-7.7,16.3
		c-1.3,2.9-2.6,5.9-3.5,9c-1.8,6.1-3.4,12.3-4.9,18.6c-4.3,18.1-4.2,36.5-3.4,54.9c0.3,6.6-0.8,12.8-1.4,19.1
		c-0.2,1.6,0.8,3.3,0.9,5c0.2,3.5,0.1,6.9,0.1,10.4c-0.3,0.1-0.7,0.2-1,0.2c0.9,0.2,1.8,0.4,2.7,0.6c0.2,7.6,4.1,15.2,0,23
		c7.3,1.3,8.8,6.1,9.3,12c0.3,3.8,1.6,7.5,2.4,11.3c3.4-0.5,4.2,1.3,4.3,3.8c0.1,3.2,0.2,6.4,0.5,9.5c0.1,0.7,1.8,1.9,1.9,1.8
		c5.4-4,8.7-0.6,12.1,3.1c1.4,1.6,3,3.1,4.7,4.5c1.8,1.6,5.6-0.3,6.1-3.3c0.8-4.5,1.4-9,1.8-13.5c0.1-1.3-0.5-2.7-0.9-4.3
		c0.9-1.4,2-3.2,3.4-5.4c0.5,1,0.9,1.6,1.3,2.5c1-0.5,2.1-0.9,3.2-1.5c3-1.8,6-3.5,8.8-5.5c0.7-0.5,0.9-1.7,1.3-2.6
		c0.1-0.2-0.1-0.4-0.2-0.6c-1.5-4.3-1-7.2,3.1-10.6c6.6-5.4,12.3-12,18.3-18.3c0.8-0.8,1.4-2.6,1.1-3.6c-1.8-5.5,1.9-9.1,4.2-13.1
		c2.4-4.2,5.5-8,8.4-11.9c1.7-2.2,3.3-4.6,5.3-6.5c2.6-2.5,4.3-5.4,3.4-8.9c-2-8.1,3.4-12,8.6-16.2c2.3-1.9,4.7-3.8,6.8-6.3
		c-1.2,0.2-2.4,0.2-3.6,0.6c-10.5,3.5-21.3,2-31.9,0.9c-17.3-1.8-34.5-4-51.7-6.1c-1.5-0.2-2.9-0.6-4.3-1.1
		c28.6-3.4,57.6-4,85.5-12.8c-3.8,0-7.6-0.2-11.5,0c-9.8,0.5-19.1-0.9-27.7-6.1c-4.4-2.7-9.3-4.9-14.2-6.4c-4.2-1.3-8.8-1.4-13.2-2
		c-1.1-0.1-2.1-0.5-3.1-0.7c0-0.4,0.1-0.8,0.1-1.1c7.4,0.5,14.8,0.6,22.2,1.5c17.3,2,34.5,1.7,51.4-2.9c3.5-0.9,7.1-1.4,10.6-2.6
		c-4.6-0.5-9.3-0.7-13.9-1.5c-11.4-2-21.9-6.6-31.7-12.6c-5.9-3.7-12-7.1-17.4-11.4c-7.1-5.7-15.8-8-23.3-13.1
		c3.9,1.3,8,2.2,11.7,3.9c10.7,4.9,21.9,8.1,33.4,10.4c5,1,10.2,1.1,15.3,1.4c10.7,0.5,21.3,0.9,32,1.3c0.1-0.4,0.2-0.7,0.3-1.1
		c-0.6-0.5-1-1.3-1.7-1.6c-8.3-3-14.2-9.3-20.9-14.7c-4.1-3.3-8.5-6.3-12.8-9.4c-5.4-3.8-10.5-8.1-16.2-11.4
		c-4.2-2.4-9.1-3.5-13.7-5.1c-0.8-0.3-1.6-0.5-2.3-1.3c4.9,1.1,9.8,2,14.5,3.4c7.9,2.4,15.9,4.8,23.6,7.7
		c10.8,4.1,21.3,8.8,32.1,13.1c6.8,2.7,13.7,5,21.2,6.8c-9.9-12.1-19.7-24.1-29.6-36.2c0.1-0.1,0.2-0.2,0.3-0.3
		c4.8,4.2,9.5,8.5,14.6,12.5c11.1,8.6,22,17.6,35.3,23.1c3.4,1.4,6.6,2,10,2.7c3.6,0.8,7.2,1.7,11.2,2.6c-4-4.3-7.7-8.4-11.5-12.5
		c0.2-0.3,0.4-0.6,0.5-0.9c8.5,7.3,17.8,13.3,29.5,15.6c-1-3.8-1.6-7.4-2.9-10.9c-1.2-3.3-2.9-6.3-3.9-10.1c1.8,1.6,3.7,3.1,5.3,4.8
		c4.3,4.7,8.3,9.7,12.8,14.2c4,4,8.5,7.8,15.1,8.4c-1-6.9-7.8-8.6-10.4-14c4.7,2.3,9.5,4.6,14.3,7c0.1-0.4,0.3-1,0.6-2.3
		c1.2,1.3,2.1,2.3,3,3.3c2.1-2.3,2.5,0.2,3.4,1.6c0.8-1.4,1.5-2.7,2.4-4.4c1.5,3.9-0.8,7.9,1.9,12.1c1.2-4.6-0.5-9.6,5.2-12.4
		c-2.7,5.1-3,9.1,2.1,12.5c-0.1-1.4-0.2-2.2-0.3-3.7c1.7,1.2,3.1,2.2,4.5,3.2c0.7-1,1.6-2.2,2.5-3.5c2.1,5.8,7.3,6.4,11.9,7.3
		c3.9,0.7,8.1,0.3,12.1,0.2c8-0.2,16-0.2,23.9-1c5.6-0.6,8.5,1.8,11,6.3c2,3.6,5.3,6.5,7.5,10c1.9,3.1,3,6.7,4.4,10.1
		c0.6,1.4,1.2,2.8,2,4.5c3.7-3.5,6.9-6.6,10-9.6c0.3,0.2,0.6,0.5,0.9,0.7c-1.6,2.3-2.9,4.8-4.8,6.8c-2.5,2.8-2.7,3.4,0,5.9
		c0.3,0.3,0.6,0.6,0.9,1c5.4,6.5,4,4.6,9.7,0.9c1-0.6,1.8-1.6,2.8-2.2c5.1-3.1,8-7.9,10.4-13.2c1-2.2,3-3.9,4.9-5.7
		c-3.8,9.6-9.2,18.5-10.4,29.6c3.6-1.9,7-3.5,10.3-5.3c5.8-3,11.8-5.7,17.2-9.2c2.7-1.8,4.5-5,6.7-7.6c0.8-0.9,1.7-1.8,2.9-2.5
		c-4.1,8.8-8.3,17.6-15.8,25.1c6.6-0.8,10.1-4.9,13.2-9.4c0.2,0.2,0.5,0.4,0.7,0.6c-0.3,1.1-0.4,2.2-0.8,3.2
		c-3.2,7.5-8.5,13.5-14.8,18.6c-3.6,3-7.5,5.6-10.9,8.7c-1.3,1.2-1.6,3.4-2.3,5.1c-0.8,2-1.3,4.1-2.1,6.1c-1.8,4-3.9,7.9-5.6,11.9
		c-2.4,5.6-5.8,10.2-10.4,14.2c-8.1,7-17.3,10.4-28.1,10.5c-13.5,0.1-26.7,2.6-40,4.7c-7.7,1.2-15.5,2.1-23.4,2.7
		c-6.8,0.5-11.7,4.2-16.3,8.7c-1.5,1.4-2.9,2.9-4.5,4.2c-3.3,2.6-4.8,2.4-8-0.3c-1.9-1.6-3.8-3.2-5.8-4.7c-0.6-0.4-1.8-1.1-2-0.9
		c-0.6,0.5-1.1,1.5-1.2,2.3c-0.5,3.3-0.6,6.8-1.3,10.1c-0.7,3-1.9,6-3,8.9c-0.3,0.8-1.1,1.3-1.5,2c-0.5,0.8-1.3,1.7-1.3,2.5
		c0,4.7,0.4,9.4,0.2,14.1c0,1.3-1.1,3-2.2,3.7c-1.9,1.2-4.2,1.7-6.4,2.5c-1.6,0.6-2.1,1.4-2.2,3.4c-0.1,6.1-0.6,12.1-1.1,18.2
		c-0.1,1-1.2,2.6-2.1,2.9c-2.3,0.7-2.5,2.1-2.2,4c0.7,4.7,1.6,9.4,1.9,14.1c0.1,1.1-1.8,2.9-3.1,3.4c-2.1,0.8-2.7,1.7-2.1,3.9
		c0.5,2.1,0.6,4.3,0.9,6.5c0.5,3.8,3.1,5.3,6.8,3.9c1.9-0.8,3.7-1.9,5.7-2.4c1.8-0.5,3.8-0.2,5.6-0.4c1.2-0.1,2.3-0.3,3.5-0.6
		c8.6-2.4,16.6-6.5,24.9-9.6c6.8-2.5,14.4-2.8,21.6-4.6c4.5-1.1,8.9-3,13.3-4.5c5.9-2.1,12-3.8,17.8-6.3c6.2-2.8,12.1-6.4,18.2-9.4
		c2-1,4.7-2.4,6.6-1.9c7,2.1,13.1-0.2,18.5-3.9c9-6,17.6-12.6,26.1-19.4c7.2-5.7,14.4-11.5,21-17.9c8.4-8.1,16.3-16.7,24.3-25.1
		c4.7-5,9.4-10.1,13.9-15.4c3.8-4.5,7.4-9.3,11.1-14c4.9-6.2,9.9-12.2,14.7-18.5c3.7-4.8,7-9.8,10.6-14.7c4-5.5,8.1-10.9,12-16.5
		c7-9.9,17-16.3,26.3-23.5c0.3,0.3,0.7,0.6,1,0.9c-0.9,1.1-1.6,2.3-2.6,3.2c-6.4,5.4-13.1,10.4-19.1,16.1c-3.1,3-4.9,7.3-7.5,10.9
		c-3.7,5.1-7.5,10.1-11.2,15.1c-4.8,6.4-9.5,12.8-14.4,19.2c-3.5,4.6-7,9-10.7,13.5c-3.9,4.8-7.6,9.7-11.9,14.1
		c-8.3,8.5-15,18.4-24.2,26.1c-8.2,6.9-15.3,15.1-23.6,21.8c-12.2,9.8-23.8,20.7-38.3,27.3c-2.5,1.1-5.1,2-7.9,3.1
		c2.2,1.4,4.2,2.6,6.2,3.9c-0.1,0.3-0.2,0.5-0.3,0.8c-2.5-0.9-5-1.6-7.3-2.7c-5-2.5-9.3-3.4-14.3,0.7c-3.7,3-8.7,4.4-13.1,6.5
		c-0.9,0.4-1.7,0.9-2.9,1.5c4,2.7,7.6,5.2,11.3,7.7c-0.3,0.5-0.6,0.9-0.8,1.4c-3.9-2.2-7.8-4.6-11.8-6.7c-1-0.5-2.5-0.8-3.5-0.5
		c-8.3,2.9-16.6,6-23.7,8.6c3.8,4.4,8.2,9.3,12.4,14.2c-3.5,0.5-5-2.8-7.3-4.7c-2.5-2-4.8-4.4-7-6.7c-2.1-2.3-4.4-2.8-7.4-2
		c-4.2,1.1-8.6,1.8-12.7,3.1c-4,1.3-7.8,3.2-11.2,4.7c9.2,6.6,18.4,13.1,27.6,19.7c-0.3,0.4-0.6,0.9-0.9,1.3
		c-2.8-1.8-5.6-3.5-8.3-5.3c-4.8-3.3-9.6-6.7-14.3-10.2c-5.7-4.2-11.6-2.5-17.5-0.8c-1.4,0.4-2.8,1-4.5,1.6c2.3,2.1,4.4,4.1,6.5,6
		c-0.2,0.3-0.5,0.7-0.8,1c-2.4-1.5-5.1-2.6-7.1-4.5c-3.5-3.4-6.6-1.9-10.2,0.1c2.3,1.5,4.5,2.9,6.6,4.3c-0.2,0.4-0.4,0.7-0.5,1.1
		c-4.2-1.6-8.4-3.3-12.7-5c-0.5,1.2-0.7,2-1,2.9c0.3,0.3,0.4,0.6,0.7,0.7c2.7,1.4,5.4,2.9,8.2,4c2.7,1.1,3.6,2.8,2.4,5.4
		c-1,2.1-0.2,2.8,1.6,4c5.3,3.4,10.3,7.2,15.3,11c0.7,0.5,0.6,1.9,1,2.8c0.3,1,0.4,2.2,1.1,2.8c3.1,2.6,6.4,5,9.7,7.5l-0.1-0.1
		c2.7,3.5,5.5,6.9,8.1,10.5c1.2,1.7,3.1,3.4,1.5,5.9c-0.2,0.3,0.2,1,0.3,1.6c1.1,4.2,2.8,8.3,3,12.5c0.2,5.4-0.8,10.8-1.2,16.2
		c0,0.1-0.1,0.2-0.1,0.3c-4.2,3.2-2.1,6.1-0.5,10.1c2.6,6.4,3.1,13.5-1.4,19.6c-1.1,1.5-3.2,2.4-5.1,3.8c6,5.9,4.5,14,4,21.5
		c-0.4,5.5-3,11.3-8.9,12.3c-0.3,4.8,0.2,9.4,1.5,14.1c1.1,4.4,0.8,9.2,0.7,13.9c-0.1,2.4,0.2,3.3,2.7,2.8c27-5.6,51.7,1.1,75.3,14
		c11.4,6.2,21.4,14.3,30.7,23.3c2,1.9,3.6,4.2,6,7.2c0.3-1.9,0.5-2.9,0.7-3.8c1.2-4.9,1.9-10,3.6-14.8c2-5.6,7.2-8.7,11.5-12.5
		c9.4-8.3,20.6-13.2,32-17.8c0.8-0.3,1.5-0.8,2.9-1.7c-1.8-0.8-3.1-1.5-4.5-1.9c-2.8-0.9-5.7-1.6-8.5-2.6c-2.1-0.7-3.9-1.3-6.1,0.1
		c-1,0.6-3.4-0.4-4.9-1.2c-5.7-3.1-11.2-6.5-16.8-9.8c-0.1,0-0.2-0.2-0.3-0.1c-5.1,3.2-5.7-2.2-7.5-4.3c-2.9-3.3-5.1-7.2-7.7-10.8
		c-0.4-0.6-1.1-1.4-1.6-1.3c-4.3,0.2-5.5-3.2-7.3-6c-2.7-4.3-5.3-8.7-8.1-12.9c-0.6-0.9-2-1.3-3.1-1.6c-3.1-0.8-4.6-2.5-4.4-5.8
		c0.3-6.4-0.3-12.5-2.5-18.6c-1.1-3-1.4-6.4-1.7-9.7c-0.4-5.4-2.9-10.5-1.8-16.2c1.9-9.3,2.6-18.9,7.6-27.4c3-5,4.8-10.7,7.7-15.7
		c3.6-6.2,7.7-12.2,11.7-18.2c2.1-3.2,4.5-6.4,6.8-9.5c6-7.9,13.7-14.1,21.4-20.2c5.3-4.1,10.8-8,15.9-12.3c2.2-1.8,3.6-4.5,5.4-6.8
		c0.3,0.1,0.6,0.3,0.9,0.5c-2,4-3.7,8.1-5.9,12c-2.7,4.9-5.9,9.5-8.7,14.4c-3.8,6.4-7.6,12.8-11.3,19.2c-2.5,4.3-4.8,8.7-7.1,13.1
		c-5.3,9.9-9.5,20.3-11.8,31.1c-1.4,6.3-0.7,13.1-1,19.6c-0.1,3.2-0.8,6.5-0.2,9.5c0.6,3.4,1.8,6.9,3.7,9.6
		c4.5,6.6,9.7,12.9,14.6,19.3c4.2,5.5,10.4,8.5,16.3,11.6c10.2,5.4,20.8,9.7,32.3,11.3c13.4,1.9,26.8,3.6,40.5,5.5
		c-0.7-6.5,3-11,5.9-15.7c3.3-5.3,6.8-10.6,10.8-15.4c6.4-7.6,11.9-16,20-22c1.2-0.9,2.6-1.5,4.1-1.7c-4.2,4.7-8.5,9.4-12.6,14.2
		c-4.2,5.1-8.1,10.4-12.1,15.6c-2.4,3.2-5.1,6.2-7.1,9.6c-2.2,3.9-5.6,7.3-5.4,12.3c0.1,2.4,0.8,3.9,3.5,4.7
		c12.5,4,23.9,10.2,33.7,19.2c1,1,1.4,2.7,2.1,4c-0.3,0.2-0.6,0.4-0.9,0.6c-2.9-2.3-6-4.4-8.7-6.9c-8.4-7.6-18.5-11.9-29.2-14.5
		c-6.5-1.6-13.3-2.3-20-3.3c-22.4-3.3-45-5.9-64.9-18.5c-7.1-4.5-12.7-10.4-17.9-16.8c-4.6-5.5-8.3-11.6-11.1-18.2
		c-2.1-5.1-2.2-10.4-1.4-15.8c0.4-2.3,0.8-4.6,0.8-6.8c-0.1-11.1,3.2-21.4,7.3-31.5c1.6-4,2.9-8.2,4.1-12.4c0.9-2.8,2.2-5,5.1-6.2
		c0.7-0.3,1.2-1.4,1.6-2.3c5-8.8,9.9-17.7,14.9-26.5c1.4-2.5,2.8-5,3.6-8.1c-2.5,1.9-5.1,3.7-7.6,5.7c-8.2,6.7-16.4,13.5-22.8,22
		c-3.8,5.1-7.4,10.4-10.7,15.8c-4.1,6.6-8.5,13.1-11.6,20.2c-3.6,8.3-8,16.5-8.2,25.9c0,1.6-0.8,3.1-1.2,4.7
		c-1.7,6.8,1.6,11.3,7,14.9c1.4,0.9,2.8,2,4.2,3c-0.2,0.3-0.4,0.6-0.6,1c-3.4-2-6.8-4-10.2-6.1c1,4.8,2,9.6,2.9,14.4
		c4.9,0.7,9.5,1.3,14.2,1.9c0,0.3-0.1,0.7-0.1,1c-4.2-0.4-8.4-0.7-12.9-1.1c0.3,1.9,0.7,4.1,0.9,6.4c0.3,3,0.7,6.1,0.5,9.1
		c-0.2,2.9,0.7,4.5,3.6,4.6c5.9,0.2,11.8,0.3,17.6,0.4c1.5,0,3-0.2,4.6,0c-5.7,4.5-12.6,2.5-19.5,3.2c3.6,5.2,6.7,10.2,10.3,14.9
		c0.8,1.1,3.2,1.9,4.6,1.6c4.4-1,8.7-2.6,13.1-4c1.5-0.5,3-1,4.8-1.1c-4.2,4.6-10,6.1-16.3,7.9c3.7,4.8,7.2,9.4,10.8,14.1
		c4-3.1,7.6-6,11.2-8.9c0.2,0.2,0.5,0.5,0.7,0.7c-0.7,4.2-5.5,5.1-7.4,8.1c6.3,3.5,12.5,7,19.5,10.9c3.5-4.2,7.3-8.8,11.1-13.4
		c1.6,2,1.5,2.9-1.2,6.3c-1.7,2.1-3.5,4.1-5.5,6.4c5.7,1.8,10.9,3.5,16.1,4.9c0.9,0.2,2.3-0.8,3.3-1.6c2.8-2.3,5.5-5,8.3-7.2
		c1.5-1.2,1.9-2,1-3.8c-0.6-1.2-0.5-2.7-0.7-4.4c3.5,2.5,3.7,8.2,1,10.4c-2.5,2-5,4.1-7.7,6.4c6,2.1,11.6,4.3,17.4,5.9
		c4.2,1.1,9.9-3.7,10.4-8c0.2-1.7,0.7-3.4,1.2-5.7c2.7,4.8,1.7,7.3-5.7,15.6c6,3.3,11.7,6.8,17.7,9.5c3.8,1.7,7.8-1.1,9-5.2
		c0.5-1.8,1.3-3.6,2.3-5.2c1.4,4.1-0.2,8.3-3.6,11.7c6.5,3.4,13.1,6.8,19.7,10.2c2.3-3.5,4.6-7,6.9-10.5c0.3,0.2,0.5,0.3,0.8,0.5
		c-0.2,4-3,6.9-5.2,9.9c-1.1,1.5-1.2,2.2,0.1,3.4c4.1,4.1,8.1,8.4,12.2,12.5c1,1,2.7,1.4,3.9,2.2c0.7,0.5,1.2,1.3,2.2,2.4
		c-4.6,0-7.3-1.9-9.4-4.6c-5.8-7.6-12.8-13.8-21.2-18.3c-2.3-1.2-4.6-2.5-6.8-3.8c-3.5-2-7.3-2.4-11.3-2.7
		c-4.2-0.4-7.8-2.7-10.8-5.5c-5.3-4.9-12.4-5.8-18.9-8.1c-0.7-0.2-1.5-0.4-2.1-0.8c-5-2.9-9.6-2.8-14.8,0.1c-7.1,4-15.1,6.6-21.9,11
		c-7.2,4.7-13.8,10.4-19.9,16.4c-3.3,3.3-4.7,8.3-4.7,13.3c0,7.6,0.3,15.2,0.5,22.9c0,0.3-0.1,0.6-0.7,1c-0.9-2.7-2.5-5.5-2.5-8.2
		c0.1-5.8-4.3-8.2-7.4-11.5c-10.9-11.5-23.5-20.9-37.7-27.8c-20.5-10-41.9-15.9-65-11.5c-0.9,0.2-1.7,0.4-2.5,0.6
		c-0.5,0.1-1,0.4-2.1,0.8c2.8,4.7,0.7,10.7,5.1,15c1.3,1.2,1.1,4.1,1.4,6.2c0.2,1.5,0.4,2.2,2,3.2c3,1.8,5.4,4.5,8.1,6.8
		c-0.3,0.4-0.6,0.8-0.9,1.2c-2.2-1.6-4.5-3.1-6.5-4.9c-1.5-1.4-2.3-1.8-3.7,0.3c-4,6.1-8.6,11.7-15.3,15c-0.8,0.4-1.6,0.6-3.1,1.2
		c4-3.5,7.7-6.2,10.7-9.6c3.4-3.8,7.2-7.5,7.3-13.2c0-3.4-1.9-5.5-3.8-8.1c-4.9,4.7-8.1,12-17.3,8.3c0.7,2.4,1.1,4.2,1.7,5.8
		c1.2,3.5-0.3,6.4-2.1,9.1c-2.3,3.5-4.8,6.8-7.4,10.4c-2.9-0.6-7.6,2.9-7.9,6.6c-0.2,1.7-0.3,3.6-1.1,5.1c-0.5,1-2.1,1.6-3.3,1.9
		c-2.1,0.5-4.3,0.6-7.1,1c1.6,2.8,2.9,5.2,4.4,7.6c2.3,3.7,1.6,7.3-0.6,10.5c-3.6,5-7.7,9.5-11.4,14.4c-2.2,2.9-3.9,1.8-5.8-0.1
		c-0.5-0.5-0.8-1.2-1.8-2.6c1.5,7.8-1,14-2.9,20.3c-0.9,2.8-2.7,3.5-5.4,1.8c-4.6-3-9.1-6.2-13.6-9.5c-2-1.5-3.8-3.4-5.6-5.1
		c0.2-0.3,0.5-0.7,0.8-1c6.8,4.7,13.6,9.4,20.3,14c4.6-6.8,3.5-14.2,5.3-21.1c0.2-0.6-0.5-1.6-1-2.3c-2.6-4-5.2-7.9-7.5-12.5
		c1.2,0.8,2.6,1.4,3.5,2.5c3.5,4.8,6.8,9.7,10.7,15.3c3-3.3,5.6-6.2,8.1-9.2c1.1-1.3,2-2.8,2.8-4.3c1.2-2.2,3.1-4.5,3-6.7
		c-0.2-2.5-2.3-4.8-3.5-7.2c-4.1-7.9-11.9-11.4-19-15.8c-2-1.2-4-2.5-5.9-3.8c0.2-0.4,0.4-0.7,0.6-1.1c2.7,1.3,5.6,2.4,8,4.1
		c4.7,3.4,10.3,5.1,14.7,9c1.6,1.4,5.6,0.3,8.4-0.3c0.9-0.2,1.5-2.3,1.9-3.6c0.8-2.9-0.2-4.9-2.1-7.5c-5.2-7.4-12.4-11.7-20.1-15.9
		c3-1,6.7,0.5,14,6c4.2,3.2,8.2,6.7,12.3,10.1c-0.4,0.4-0.8,0.8-1.2,1.3c1.4-1,2.8-2,4.3-2.9c4-2.4,4.4-3.4,3.3-7.9
		c-0.6-2.4-0.9-4.9-1.4-8.1c3.7,2.1,2.7,5.8,3.9,8.3c4.7-2.4,5.3-5.9,5.3-12.4c0-6.5-6.4-6.2-8.8-10.9c1.3,0.4,2.1,0.5,2.9,0.9
		c1.8,0.9,3.5,2.1,5.4,2.9c7.3,3,7.4,2.2,12.7-3c6-5.8,4.3-13.7,0.8-19.4c-0.3-0.5-1.2-0.9-1.9-0.9c-6.9,0.1-11.6-4.6-17-7.6
		c-2.9-1.6-5.3-4.1-7.9-6.2c-0.6-0.5-1-1-1.8-1.9c4.3-0.1,6.2,3,9,4.8c4.6,2.9,9.1,5.8,13.8,8.6c1,0.6,2.3,0.6,3.5,0.7
		c1.8,0.1,2.7-0.8,2.4-2.6c-0.8-5.3-1.7-10.5-2.4-15.8c-0.3-2.7-0.1-5.5-0.2-8.2c-0.1-1-0.3-2.3-1-2.8c-4.6-3.6-9.2-7.3-15-8.9
		c-0.4-0.1-0.7-0.4-1.8-1.1c1.5-0.2,2.4-0.6,2.9-0.3c3.9,1.9,7.8,4,11.7,6.1c0.3,0.1,0.4,0.5,0.7,0.7c5.6,4.2,9.2,4,10.8-4
		c1-5.2,0.9-10.7,0.5-16c-0.3-4.9-3.4-8.1-8.2-9.9c-2.5-0.9-4.5-3-6.7-4.6c0.2-0.4,0.4-0.8,0.7-1.2c1.5,0.8,3.1,1.3,4.3,2.4
		c3.5,3,7.3,2.2,11.1,1.3c0.6-0.1,1.3-1.1,1.5-1.8c1.8-6.2,2.2-12.6-0.3-18.7c-1.2-2.7-3.9-4.8-6.1-7.3c0.4,0,1.2-0.2,1.8,0
		c2.8,0.9,4.2-0.8,5-2.8c1.1-3,2.6-6.3,2.3-9.3c-0.5-6-2-11.9-3.3-17.8c-0.1-0.5-2.1-1.1-3.1-0.9c-3.6,0.9-7.1,2.2-10.6,3.3
		c-0.6,0.2-1.2,0.1-1.9,0.1c-0.1-0.4-0.2-0.7-0.4-1.1c5-2,10-4,15.5-6.2c-5.7-7.2-10.1-14.8-17.4-20c-1.7-1.2-2.9-1.5-4.8,0
		c-4.6,3.6-9.2,7.2-14.2,10.3c-3.5,2.2-7.4,3.7-11.2,5.3c-2.5,1.1-4.2,2.5-5.1,5.3c-1,3-3,5.6-4.2,8.7c10.6-3.1,21.2-3.2,31.7-2.5
		c0,0.3,0,0.6,0.1,1c-2.6,0.2-5.3,0.4-8,0.6c-5.2,0.4-10.5,0.8-15.7,1.3c-2.5,0.2-3.9,1.2-4.6,4.1c-0.8,3.6-2.7,7-4,10.5
		c-0.2,0.5-0.5,1-0.5,1.6c0,1.7,0,3.3,0.1,5c1.6-0.2,3.2,0,4.7-0.6c5.7-2,11.6-3.4,17.6-2.7c2.6,0.3,5.2,1.4,7.7,2.6
		c-12.2-0.9-24.3-2.2-33.5,8.7c-0.2-0.3-0.5-0.6-0.7-1c1-1.6,2.1-3.2,3.2-4.8c-3.5-3.1-3.4-3.9-1.2-8.6c1.8-4,3.2-8.2,4.9-12.7
		c-1,0.2-1.5,0.4-2,0.4c-1.2,0-2.4,0-3.6,0c0.4-0.9,0.8-1.8,1.2-2.7c1.7-3.5,3.3-7.1,4.9-10.4c-2,1.1-4.6,2.5-7.2,3.8
		c-0.9,0.4-2,0.4-3,0.5c0.1-1.1,0-2.4,0.5-3.3c3.9-6.4,8-12.8,12-19.1c0.7-1,1.6-1.9,2.4-2.9c0.4,0.3,0.8,0.6,1.2,0.9
		c-3.7,6.3-7.4,12.7-11.1,19c0.2,0.2,0.4,0.4,0.5,0.6c5.4-2.6,11-4.8,16.2-7.8c6.3-3.6,12.3-7.7,18.3-11.8c1.4-0.9,2.5-2.4,3.5-3.8
		c0.3-0.5,0-1.9-0.5-2.2c-5.2-4.1-10.4-8-15.7-12c-3.5,4.2-6.6,7.8-9.6,11.5c-0.5-0.3-0.9-0.7-1.4-1c2.4-3.5,4.7-7,7.1-10.5
		c0.7-1,1.4-1.9,2-2.9c1.3-2,0.9-3.4-1.4-4.3c-1.8-0.7-3.6-1.6-5.1-2.8c-2-1.4-3.6-1.3-6-0.6c-4.3,1.3-3.8,4-3.6,7.3
		c0.2,4.9,0.2,9.8-0.1,14.7c-0.1,1.9-1.3,3.7-2,5.3c-0.6-15.5-1.4-31-1.9-46.5c-0.1-3.1,0.7-6.3,0.9-9.5c0.1-1.8-0.3-3.6-0.1-5.4
		c0.3-2.8,0.8-5.6,1.3-8.3c0.4-1.8,1.4-3.4,1.7-5.2c1.6-11.6,6.6-22.2,10.5-33.1c2.6-7,6-13.8,9-20.6c-0.4-0.4-0.8-0.7-1.1-1.1
		c-2.6,1.8-5.6,3.2-7.9,5.4c-7.3,6.8-13.8,14.3-19.1,22.8c-0.5,0.8-1,1.8-1,2.7c0.5,7.9-0.6,16,2.2,23.8c0.6,1.8,0.1,3.9-0.4,6
		c-3.8-7.9-5.3-16.1-5-25.1c-0.8,1-1.9,1.9-2.4,3.1c-2.5,6-5,12-7.2,18c-1.3,3.5-2.9,6.6-5.8,9.1c0.3-7.5,5.5-13.4,5.9-21
		c-3.7,4.9-7.3,9.7-11,14.6c-0.3-0.1-0.6-0.2-0.9-0.3c0.2-1,0.2-2.1,0.6-2.9c3.9-7.7,10.1-13.7,15.9-19.9c3-3.3,5.2-7.4,7.7-11.2
		c4.3-6.7,8.8-13.1,15-18.1c3.5-2.9,6.8-6,10.3-8.9c1.2-1,3.2-1.2,4.4-2.2c5.1-4,10-8.2,15-12.3c10.8-9.1,22.7-16.4,36-21.4
		c1.9-0.7,4.1-0.4,6.5-0.6c-13.8,8.1-27.4,16-41.1,24c2.4,2.2,4.3,3.9,6.2,5.7c3.2,2.8,4.9,3.2,7.3-0.1
		c7.3-10.1,18.1-12.5,29.3-13.9c11.5-1.4,23-2,34.4-4.4c7.5-1.6,15.5-1.4,23.2-1.4c9.1-0.1,16.2-4.1,23-9.6
		c5.4-4.3,8.8-9.6,10.7-16.2c0.9-2.9,2.7-5.7,4.6-8c3.1-3.8,3.1-8.2,3.6-12.5c0.1-1.1,0.1-2.2,0.5-3.2c0.2-0.7,0.9-1.2,1.4-1.8
		c0.4,0.7,0.9,1.3,1.1,2c0.2,0.6,0,1.2,0,2.5c7.8-6.2,15.3-11.7,20.3-19.8c-3.9,2.1-8.5,2.3-11.4,6.7c-1.5,2.4-5.1,3.5-7.8,5.2
		c-6.6,4.2-13.1,8.5-19.7,12.7c-1,0.6-2.1,1.1-3.6,1.8c-0.9-6.8,4.3-10.7,5.7-16.4c-2.7,1.8-5.5,3.5-8.1,5.3
		c-4.7,3.3-9.3,6.7-14,10.1c-3.2,2.3-4.5,1.8-4.9-2.2c-0.2-2.1-0.2-4.1-0.3-6.5c-5.4,2.2-10.6,4.3-16.7,6.7c0.4-3,0.7-4.7,1.1-7.4
		c-3,3.4-4.7,0.8-6.6-0.3c-2.3,6.5-6.3,12.6-2.7,20c-0.5,0.1-1,0.2-1.5,0.3c-0.8-1.1-1.9-2-2.2-3.2c-1.2-5.2-2.2-10.4-3.4-15.8
		c-1,0.6-1.8,1.1-3.2,1.9c-0.5-2.9-0.9-5.2-1.4-8.2c-1.6,0.9-3.1,1.7-4.4,2.6c-2.7,1.8-5.2,4-8.1,5.4c-3.1,1.4-3.7,3.5-3.4,6.5
		c0.2,1.7,1,3.9-1.9,5.3c0-3.9,0-7.5,0-11.7c-5.1,2.6-6.7,7.5-10.1,11.2c-0.8-4.4-1.5-8.4-2.3-13c-1.9,1.2-3,1.9-4.4,2.8
		c-0.4-1.4-0.8-2.6-1.2-4.2c-6.2,5.3-9.2,11.8-10.6,19.9c-2.7-7.3-1.3-14.4-1.6-22.2c-4,1.1-7.9,2-11.8,3.2
		c-1.8,0.5-3.2,0.8-3.6-1.6c-2.5,1.4-5,2.7-7.5,4c-0.1-0.2-0.2-0.4-0.3-0.7c1.9-2.8,3.8-5.7,6-9.1c-5.9,0-11.2,0-16.4,0
		c0-0.3-0.1-0.6-0.1-0.9c0.8-0.3,1.6-0.7,2.5-0.9c6.9-1.6,13.8-3.4,20.7-4.7c1.5-0.3,3.5,0.8,4.8,1.8c1.9,1.6,7.7,2.2,9.4,0.4
		c5.4-5.5,11.3-10.4,17.9-14.5c2-1.2,3.2-3.7,4.8-5.6c0.7-0.8,1.6-1.4,2.9-1.8c-6.5,9.8-14.1,19.2-14,32
		c7.3-9.1,16.8-15.5,25.1-23.2c0.5,0.4,1,0.7,1.4,1.1c-0.5,2.3-1,4.7-1.5,7c0.2,0.1,0.4,0.3,0.6,0.4c3.3-3,6.6-5.9,9.9-8.9
		c0.3,0,0.6,0,0.9,0c-1.4,6.3-3.6,12.7,0,18.6c2.1-3.8,4.3-7.8,6.6-11.8c0.4-0.6,1.2-1,1.9-1.5c0.5,0.8,1.2,1.4,1.5,2.2
		c0.4,1.2,0.5,2.5,1.6,4.4c5-5.6,10-11.1,14.9-16.7c0.1,0.1,0.3,0.2,0.5,0.3c-2.1,4.9-4.2,9.9-6.3,14.8c0.4,0.2,0.7,0.4,1,0.7
		c2.3-1.7,4.6-3.4,6.8-5.1c4-3.1,8-6.3,12-9.4c1.4-1.1,2-2.1,1.1-4.1c-3.7-8.4-9.3-15.5-14.2-23.1c-2.6-4.1-5.5-4.9-9.6-4.7
		c-4,0.2-8,0.3-12,0.5l0.1-0.1c-2.1,0.1-4.2-0.1-6.2,0.2c-9.7,1.6-19.1,1.2-28.4-4.3c-0.3,2.4-0.6,4.4-0.8,6.5
		c-0.2,0.2-0.5,0.3-0.7,0.4c-0.6-0.9-1.5-1.7-1.6-2.7c-0.4-2.1-1-3.4-3.5-3.2c-1.3,0.1-2.6-0.9-3.9-1.4c-0.2,1.2-0.4,2.4-0.7,4.2
		c-6.2-5.2-11.9-9.9-17.8-14.8c0.6,2,1.2,3.8,1.6,5.7c0.6,3-0.5,3.9-3.5,3.4c-5.3-1-9.3-4.1-13-7.6c-3.4-3.2-6.5-6.9-9.7-10.4
		c-0.5-0.5-0.6-1.3-1.4-1.3c0.8,4.7,1.5,9.3,2.2,13.8c-2.2-0.7-3.8-1.2-5.3-1.7c-3.9-1.4-7.7-2.9-11.5-4.4c-0.7-0.3-1.4-0.6-2.3-1
		c1.3,3,2.5,5.6,3.6,8.2c1.8,4.7,6.7,6.3,9.6,9.8c3.6,4.3,8.1,4.5,13.1,4.3c4.1-0.2,8.3,0.3,12.9,0.6c-4.3-3.9-9.7-3.1-15.3-4.7
		c2.1-0.3,3.2-0.5,4.6-0.7c-0.1-0.6-0.3-1.2-0.7-2.8c5.4,2.4,10.3,4.6,14.9,6.6c1.1-1.2,2-2.3,3-3.3c0.3,0,0.6,0,0.9,0
		c-1.7,5,1.8,6.3,4.8,7.6c4.9,2.1,9.9,3.8,15.3,5.9c-0.8,0.4-1.2,0.8-1.7,0.8c-6.5,0-13-0.5-19.5,0c-6.5,0.4-11.7-2.8-17.4-4.9
		c-4.3-1.6-8.9-2.6-13.9-4.1c0.2,2.3,0.3,3.7,0.4,6c-1.1-1.4-1.9-2-2.3-2.9c-0.6-1.4-0.9-2.9-1.5-4.3c-1.3-3.1-2.6-5.7-6.8-6.3
		c-5.1-0.7-10.1-2.5-15.2-3.8c-0.5-0.1-1-0.1-1.2-0.2c1.9,5,3.9,10,5.8,15c1.2,3.2,2.9,5.4,6.3,6.6c7.6,2.6,15.2,5.4,22.8,8.2
		c0.6,0.2,1.1,0.6,1.6,0.9c-0.1,0.3-0.2,0.6-0.3,0.9c-5-1.6-10.1-3.1-15.1-4.9c-5.2-1.9-10.4-4-15.6-6c-0.9-0.3-2-0.5-2.9-0.3
		c-6.1,1.2-12.1,2.4-19.3,3.9c2.7,2.9,4.8,5.1,6.8,7.4c5.6,6.5,13.5,4.3,20.4,5.4c11.3,1.8,22.7,3,34.1,4.5c0.9,0.1,1.8,0.6,2.6,1.5
		c-6.6-0.6-13.2-1.1-19.8-1.8c-7.1-0.7-14.1-1.8-21.2-2.3c-1.8-0.1-3.8,0.9-5.6,1.3c-7.3,1.7-14.2,3.9-19.4,10
		c-5.1,6.1-10.9,11.6-16.3,17.5c-1,1.1-1.5,2.8-2.3,4.4c-2.2-5.3,2.7-20.8,7.9-22.6c-1.7,4.6-3.2,8.5-4.7,12.4
		c0.1,0.1,0.3,0.1,0.4,0.2c6.2-5.7,12.4-11.4,19.3-17.9c-2.3,0.4-3.7,0.5-5,0.9c-13.8,3.8-27.6,7.5-41.3,11.7
		c-3.6,1.1-6.7,4.2-9.9,6.6c-3.6,2.8-6.8,6.1-10.4,8.8c-3.5,2.6-3,5.8-2.6,9.3c0.2,2.4,0,4.9,0.1,7.4c0.2,6.3,0.4,12.6,0.6,18.9
		c0,1.2,0,2.4,0,3.7c-0.4,0-0.8,0.1-1.2,0.1c-0.8-6.3-1.6-12.7-2.6-19.7c-3.7,4.7-7.2,9-10.5,13.5c-2.1,2.8-3.6,5.9-5.8,8.6
		c-2.6,3.4-1.5,7.2-1.2,10.8c0.3,4,1.4,7.9,2.1,11.8c0.1,0.6-0.4,1.2-0.7,1.8c-0.5-0.5-1.4-1-1.5-1.6c-0.8-3.3-1.3-6.6-2.1-10.3
		c-7.7,8-14.9,15.5-22.3,23.2c7.1,12.5,5.6,27,7.5,41.1c-0.6-0.7-1.4-1.4-1.7-2.2c-0.6-1.7-1-3.6-1.3-5.4c-1.1-7-2.2-14-3.2-20.9
		c-0.4-2.5-1.2-2.9-3.4-1.4c-3.5,2.4-7.4,4.1-10.8,6.6c-1.4,1-2.7,3.3-2.7,5.1c-0.2,15-0.1,30-0.2,44.9c0,1.3-0.2,2.7-0.3,4
		c-0.4,0.1-0.8,0.2-1.2,0.3c-0.6-1.6-1.7-3.1-1.7-4.7c-0.1-3.7,0.5-7.4,0.4-11.1c-0.1-5.2-0.6-10.4-1-16.3c-1.9,2-3.3,3.9-5.1,5.4
		c-2.6,2.3-5.1,4.8-8,6.5c-3.9,2.3-2.7,5.4-2.1,8.5c0.3,1.7,1.1,3.2,1.5,4.9c2.1,7.7,4.2,15.5,6.2,23.2c0.6,2.2,0.9,4.4,1,6.7
		c-6.7-11.3-8-24.2-11.2-37.1c-1.3,1.2-2.3,2.5-3.6,3.2c-5.1,2.8-10.2,5.7-15.6,8c-5.3,2.3-6.6,6.1-2.9,10.8c0.3,0.3,0.7,0.7,0.7,1
		c0.9,7.5,7,11.7,11,17.2c3.7,5,7.9,9.7,12.1,14.2c3.1,3.3,6.6,6.3,10.1,9.1c1.3,1.1,1.9,1.8,0.6,3c-3.7,3.3-7.5,6.5-11.3,9.7
		c-0.7,0.6-1.9,1-2.7,0.9c-14.2-2.7-27.6-7.8-40.1-15.1c-2-1.1-3.4-3.3-5.4-5.2c-1.7,2.1-3.4,4.2-5.1,6.4c-3.9,5-7.8,10-11.8,15
		c-1.5,1.9-1.4,3.6,0.7,4.9c0.7,0.5,1.5,0.9,2.3,1.2c13.5,5.4,27.2,10,42.5,10.5c-3.7,1.8-7.2,1.9-12,1.1c-10.5-1.6-20.5-5-30.4-8.9
		c-2.7-1.1-3.6-0.4-4.6,2.3c-2.7,6.9-5.9,13.6-8.9,20.4c-1,2.2-1.9,4.4-2.8,6.6c-2.1,4.9-4.2,9.9-5.9,15.1c13-7,27-8.9,41-10.7
		c4.1-0.5,8.3-0.3,12.5-0.4c2.9-0.1,4.9-1.4,6.1-4.1c1.1-2.6-0.7-4-1.9-5.8c-1.2-1.8-1.9-3.8-2.8-5.8c0.4-0.2,0.8-0.5,1.2-0.7
		c0.7,0.8,1.5,1.6,2.1,2.4c1.1,1.4,2.4,2.8,3.2,4.4c0.8,1.5,1.8,3.5,1.3,4.8c-0.9,3-1.9,6.5-6.1,7c-2.2,0.3-3.7,1.3-2.5,4
		c1.6,3.5,2.8,7.1,4.2,10.6c-4.7-0.7-7-5.2-7-14.7c-4.3,0.2-8.6,0.3-12.9,0.8c-9.8,1.1-19.4,3.1-28.8,6.3c-4.3,1.5-6.6,4.5-8.4,8
		s-2.9,7.3-3.8,11c-1,4.3-1.5,8.7-2.4,13.7c6.4-2,12.2-4.6,18.4-4.8c0.1,0.3,0.2,0.7,0.3,1c-1.3,0.5-2.6,1.4-3.9,1.5
		c-5.3,0.4-8.1,4.4-11.8,7.4c-4.1,3.3-4.3,7.5-4.2,12.1c0.1,4.1,0,8.3,0,12.4c9.7-2.2,19.2-4.5,29.7-6.9c-3.5,3.4-7.2,4-10.8,4.8
		c-0.8,0.2-1.7,0.2-2.6,0.2c-5.7,0.2-9.3,2.5-10.1,8.6c-0.9,6.5-2.4,12.8-3.7,19.2c-0.3,1.5-1,2.9-1.2,4.4c-0.4,3.5,2.1,5.9,5.4,4.7
		c3.7-1.4,7.1-3.6,10.7-5.4c0.5-0.3,1.1-0.5,1.9-0.8c-2.1,4.3-11.2,8.7-15.4,8.1c-3.6-0.6-6.1-5.6-4.7-9.1c1.3-3.3,0.7-7.3,1.5-10.9
		c1.2-5.3,2.9-10.6,4.4-16.1c-2.2,0.9-4.8,2-7.5,3.1c0,0-0.2-0.2-0.2-0.5c0-7.6-0.1-15.3,0.4-22.9c0.1-2,2.2-4,3.5-6.1
		c-0.9-0.2-1.9-0.4-3.2-0.7c2.4-15.2,2.7-30.7,9.2-45.1c-2.4-1.8-4.7-3.6-7-5.4c-3.4-2.6-6.9-2.8-10.7-0.8c-1.4,0.8-3.1,1.3-4.3,2.3
		c-2.1,1.7-3.2,1.2-3.9-1.4c-1.1,0.3-2.1,0.6-3,0.9C0,430.9,0,430.2,0,429.5z M210.6,135.8L210.6,135.8c5.9-1.7,11.8-3.4,17.6-5.1
		c-1.1-0.5-2.2-0.8-3.3-0.7c-6.8,1.1-13.6,2.2-20.4,3.3c-8.9,1.4-17.8,3.5-26.8,4.1c-7.6,0.5-15.3-0.5-23.3-0.9
		c2.2,1.1,4.1,2,5.9,3.1c6.8,4,13.8,7.1,21.9,6.9c5.7-0.1,11.4-0.2,17.1-0.4c6.8-0.2,13.6-0.1,20.1-3.3c6.9-3.4,13.9-6.4,20.9-9.5
		c-2.7-1.2-5.3-1.8-7.9-2.3c-0.6-0.1-1.4-0.1-1.9,0.2C224.3,134.9,217.6,136.1,210.6,135.8z M279.3,125.6c0.1-0.7,0.2-1.3,0.4-1.9
		c-4.4-2.9-8.4-6.5-13.1-8.7c-11.2-5.2-23.4-6.3-35.5-6.4c-12.7-0.2-25.4,0.1-38-0.1c-5.7-0.1-11.4-0.4-16.9-1.4
		c-6.9-1.2-13.8-3.2-20.6-4.8c8.1,5.5,16.4,10.8,25.2,15.2c7.2,3.5,14.7,6.9,22.9,7.3c13.6,0.7,26.9,2.9,40.1,5.9
		c5,1.1,9.9,2.4,15.3,3.7c-1-1.8-1.8-3.2-2.2-3.8C264.4,128.9,271.9,127.3,279.3,125.6z M122.4,300.3c-3.3-3-5.9-5.6-8.7-8
		c-3.6-3.1-3.8-3-7.9-0.3c-1.2,0.8-2.8,1.2-3.4,1.4c-0.5-5.1-0.8-9.9-1.7-14.5c-0.3-1.3-2.5-2.8-4-3c-3.8-0.6-7.5-0.1-11.1,1.9
		c-2.4,1.3-5.3,1.8-8.1,2.4c-2.1,0.5-4.2,0.8-6.2,1.1c0.4,1.9,0.7,3.2,1,4.5c1.7,7,3.3,14,5.1,20.9c0.2,0.9,0.9,1.6,1.6,2.6
		c2.3-4.6,13.1-11,17-10.2c-0.7,0.5-1.2,0.8-1.7,1.2c-4.7,3.2-10.9,4.5-13.3,10.6c-0.5,1.3-1.1,3.1-0.7,4.2c1.5,3.3,3.4,6.5,5.3,9.6
		c0.3,0.5,1.7,1,2.3,0.8c8-2.6,15.5-6.2,21.4-12.1c-0.1-1.1-0.2-2.5,0.4-3c2.2-1.9,4.7-3.4,7-5.2
		C118.8,303.7,120.4,302.1,122.4,300.3z M274.6,146.5c0-0.3,0-0.6,0-0.9c-1.5-0.2-3-0.3-4.4-0.6c-0.8-0.1-2-0.3-2.3-0.9
		c-2.5-4.1-5.3-7.6-10.8-7.2c-0.6,0.1-1.2-0.4-1.9-0.6c-7.1-3.1-13.8-2.1-20.2,1.8c-12.6,7.6-26.4,12.2-40.4,15.6
		c-18.8,4.5-38.1,7-57.5,7.7c-0.9,0-1.7,0.1-2.6,0.2c0,0.3,0,0.6,0,0.9c10.4,1.3,20.8,2.7,31.1,3.8c6.7,0.7,13.6,1.9,20.2,1.3
		c8.3-0.6,16.6-2.4,24.8-4.4c19.5-4.9,38.8-10.2,58.3-15.3C270.8,147.5,272.7,147,274.6,146.5z M61.7,367.3c4.7,4.1,8.3,8.6,13,10.8
		c10.8,5.1,21.4,10.8,33.6,12.1c1.1,0.1,2.6-0.1,3.4-0.8c2.8-2,5.3-4.4,8-6.5c1.6-1.3,2.1-2.2,0-3.7c-4.8-3.4-9.2-7.1-12-12.5
		c-0.8-1.6-1.9-3.1-3.2-4.5c-4.1-4.3-8.3-8.4-12.3-12.8c-1.9-2.1-3.4-4.5-5.1-6.9C78.6,350.9,70.4,358.9,61.7,367.3z M293.5,110.3
		c-1.4-2.7-2.6-4.3-3.2-6c-0.8-2.3-2.3-3.4-4.5-4.2c-9.2-3.3-18.6-3.4-28.2-3.2c-3.6,0.1-7.5,1-10.8-0.1
		c-16.4-5.7-32.7-11.9-49-18.1c-6.2-2.3-12.3-4.8-18.4-7.2c-0.2,0.3-0.4,0.7-0.5,1c3.6,2.5,7.2,5,10.8,7.5c3.9,2.8,8.1,5.5,11.6,8.7
		c5.1,4.7,10.1,9.4,16.4,12.5c5.6,2.8,11.1,5.2,17.7,4.7c3.6-0.3,7.2,0.4,10.8,1c5,0.8,10,1.8,15.3,2.8c-0.4-1-0.7-1.8-1.2-2.9
		c6.1,4.3,11.9,8.4,18.1,12.8c-1.9-5.5-3.5-10.1-5.1-14.8C280.4,106.8,286.7,108.5,293.5,110.3z M95.2,273.4
		c-0.5-3.1-1.1-6.6-1.7-10.1c-0.3-1.9-0.2-4.1-1-5.8c-0.8-1.7-2.4-3.7-4.1-4.1c-6.8-1.6-13.6-0.7-20.8,0.6
		c1.2,8.5,2.3,16.7,3.4,25.2C79.5,277.2,87.4,275.3,95.2,273.4z M66.7,228.1c1.7-0.1,3.1-0.3,4.5-0.3c1.4,0,2.8,0,4.2,0.1
		c6.6,0.5,7.3-0.1,7.4-6.8c0-0.9-0.1-1.7-0.2-2.6c-0.2-4-0.5-8-0.4-12c0.2-4.8-1.1-6-6.1-5c-2.5,0.5-5.2,1.1-7.7,1
		c-2.9-0.2-3.4,0.9-3.3,3.4c0.4,6.7,0.8,13.5,1.2,20.2C66.5,226.6,66.6,227.1,66.7,228.1z M67.7,252c5.6-0.5,10.6-0.8,15.5-1.4
		c0.7-0.1,1.9-1.1,1.9-1.8c0.1-6.3,0.1-12.6,0.1-19c-5.4,0-10.6,0-15.8,0c-1.5,0-2.9,0.2-2.8,2.3C67,238.6,67.3,245.2,67.7,252z
		 M425.4,181.4c0.6-0.2,1.3-0.3,1.8-0.7c8.2-5.6,16.5-11.1,24.7-16.8c0.5-0.4,1.1-0.8,1.3-1.4c1.7-5.3,3.3-10.6,4.9-15.9
		c-0.3-0.1-0.7-0.3-1-0.4c-1,0.7-2,1.3-2.9,2c-8.1,6.3-16.2,12.7-24.4,18.8C424.5,171,423.1,174.8,425.4,181.4z M446.9,178.8
		c0.2,0.2,0.4,0.4,0.6,0.6c0.7-0.3,1.4-0.5,2-0.9c5.1-3.3,10.2-6.6,15.2-10c3.5-2.4,7.3-4.7,10.2-7.7c3.2-3.3,5.6-7.4,8.3-11.2
		c0.8-1.1,1.5-2.4,2.7-4.2c-1.3,0.3-1.9,0.3-2.3,0.6c-5.4,2.9-10.8,5.6-16,8.8c-4.1,2.6-9.6,3.3-12.1,8.6
		C453,168.7,449.8,173.7,446.9,178.8z M408.5,177.4c7.7-2,13.6-5.1,17.8-10.5c1.2-1.6,1.5-3.9,2.3-5.9c0.5-1.2,1-2.4,1.4-3.6
		c1.3-3.6,2.5-7.3,3.8-11.2c-0.7,0.2-1.1,0.2-1.3,0.4c-5.5,4.2-11,8.4-16.4,12.7c-1.6,1.3-3.7,2.5-4.3,4.2
		C410.3,167.7,409.6,172.1,408.5,177.4z M297.3,289.4c-3.8-1.3-5.6-0.3-6.2,3.1c-1.4,7.4-3,14.7-4.6,22c0.3,0.1,0.7,0.2,1,0.3
		c2.6-1.7,5.3-3.3,7.9-5c0.5-0.3,1-1,1-1.5C296.7,302,297,295.7,297.3,289.4z M307.4,267.4c-3.2,2-6.9,3-8.5,5.4
		c-2.5,4-3.6,8.8-5.4,13.3c0.3,0.4,0.6,0.8,0.9,1.2c4-1.2,7.9-2.4,11.8-3.8c0.5-0.2,1-1.4,1.1-2.1
		C307.5,277.1,307.4,272.7,307.4,267.4z M375.7,156.4c-0.4-0.2-0.7-0.4-1.1-0.6c-4.2,3.7-8.7,7.2-12.6,11.2c-2,2-3.6,4.9-4.2,7.6
		c-0.5,1.9,0.9,4.3,1.5,6.8C367,174.2,373,166.4,375.7,156.4z M340.1,181.9c3.3-4,7.1-7.6,9.4-12c2.3-4.4,3.1-9.7,4.5-14.7
		C344.2,159.8,337.7,172.2,340.1,181.9z M316.3,244.8c-7.2,2-13,11.3-14.3,22.2c3.5-2.5,7.9-4.2,9.9-7.5
		C314.4,255.4,314.9,250.1,316.3,244.8z M283.1,335.4c0.4,0.1,0.8,0.2,1.2,0.3c2.4-1.3,4.6-2.8,7.1-3.8c1.9-0.8,1.8-1.7,1.5-3.3
		c-0.6-3.1-0.9-6.2-1.3-9.2c-0.1-1.3,0-2.7,0-5.1c-2.3,1.8-4.6,2.8-5.1,4.2C285.1,324,284.2,329.7,283.1,335.4z M386,156.5
		c-0.4-0.1-0.8-0.3-1.2-0.4c-5.9,5.5-13.1,10-14.4,20c3.7-2.4,6.7-4.3,9.6-6.2c1.4-0.9,3.4-1.7,3.8-2.9
		C384.9,163.6,385.3,160,386,156.5z M245.8,88.6c0.2-0.2,0.4-0.4,0.6-0.7c1.2,0.7,2.5,1.3,3.6,2.1c3.8,2.8,7.3,6.2,13.1,3.9
		c-10.2-4.1-19.4-9.5-27.2-16.9c0.3,1.3,0.7,2.5,1.4,3.4c3.2,4.2,6.3,8.5,9.8,12.5c1,1.1,3,1.4,4.6,2c0.1-0.3,0.2-0.6,0.3-0.8
		C249.9,92.3,247.8,90.5,245.8,88.6z M397.5,168.8c1.4,1.2,2.6,2.3,3.9,3.2c1.1,0.8,2,2.2,3.9,0.8c1.9-1.4,4-3.3,2.8-5.2
		c-1.5-2.5-0.3-4.5-0.1-6.7c0.1-0.9,0-1.8,0-2.6c-0.2-0.1-0.5-0.2-0.8-0.3C404.1,161.5,400.9,165,397.5,168.8z M287.9,337.3
		c-0.3-0.4-0.7-0.7-1-1c-1,1.4-2.9,2.8-3,4.3c-0.4,4.8-0.1,9.7-0.1,15.4c1.9-1.3,2.8-2.1,3.8-2.6c3-1.5,3.5-3.4,2.4-6.6
		C288.8,343.7,288.6,340.5,287.9,337.3z M317.5,120.5c7.1,5.1,14.9,7,23.8,5.4C334,119.9,325.5,121.4,317.5,120.5z M431.1,162.1
		c0.3,0.2,0.6,0.4,0.9,0.6c3.6-2.8,7.2-5.6,11.1-8.5c-2.5-2.6-4.6-4.8-7-7.3C434.3,152.4,432.7,157.2,431.1,162.1z M394,180.5
		c0.4,0.1,0.8,0.2,1.2,0.3c0.8-2.8,1.6-5.7,2.3-8.5c0.1-0.4-0.3-1.1-0.6-1.4c-1.7-1.1-1.2-2.3-0.4-3.6c0.8-1.4,1.5-2.8,2.3-4.2
		c-0.7-1.1-1.4-2.2-2-3.1C390.4,166.2,392.6,173.4,394,180.5z M326.9,171.4c4.1-0.7,7.8-1.3,11.5-1.9
		C331.4,167.1,331.4,167.1,326.9,171.4z"/>
	<path class="st0" d="M0,335.5c10.5,6.5,20.9,13.3,31.6,19.4c5.4,3.1,11.5,5.1,17.3,7.5c0.8,0.3,1.5,0.5,2.3,0.8
		c-0.1,0.4-0.2,0.8-0.3,1.2c-4.2-1.3-8.6-2-12.4-3.9c-9.8-5-19.3-10.4-28.8-15.9c-3.4-1.9-6.5-4.4-9.7-6.6C0,337.2,0,336.4,0,335.5z
		"/>
	<path class="st0" d="M0,330.2c4.8,3.3,9.5,6.7,14.4,9.9c5.6,3.7,11.3,7.1,16.6,11.3c-1.2-0.6-2.3-1.1-3.5-1.7
		c-9.1-4.6-17.8-9.8-25.4-16.7c-0.6-0.6-1.4-0.9-2.2-1.4C0,331.1,0,330.6,0,330.2z"/>
	<path class="st0" d="M255,794.6c-3-4-6.1-8.1-9.2-12.1c-0.7-0.9-1.5-1.9-2.5-2.4c-5.1-2.3-7.6-3.2-10.5-7.8c-1.6,5.5-3,11-4.9,16.4
		c-1.2,3.6-3.1,7.1-4.7,10.6c-0.3,0.7-1.2,1.1-2.3,2.1c-1.4-3.7-3.2-7.1-3.9-10.6c-1.1-5.9-5.4-8.6-9.8-11.7
		c-3.6-2.6-6.8-5.9-10.3-9c0.6-0.3,0.3-0.2,0.3-0.1c0.6,4.1-0.5,7.6-3.1,11.1c-1.4,1.8-1.1,4.9-1.4,7.5c-0.6,5-3,9.2-5.7,13.3
		c-0.2,0.4-0.4,0.8-0.5,1.2c-1.1,3.9-2.1,7.9-3.3,12.3c-3.9-5.4-7-10.7-7.7-17.1c-0.4-4-2.1-7.1-4.9-10.3c-3.1-3.5-5.1-8.1-5-13.1
		c0-0.9-0.1-1.9-0.1-2.8c-0.3-0.2-0.6-0.3-0.9-0.5c-6.3,8.2-12.7,16.3-19.2,24.7c-2.4-7.6-3.8-15.9-2.8-25.2
		c-3.7,3.2-7.8,6.1-11.1,9.7c-3.3,3.5-5.8,7.8-8.8,11.9c-0.2-0.4-0.8-1-0.9-1.8c-1.1-6.7-2.3-13.3-3.2-20c-0.6-4.3-0.9-8.7,1.5-12.7
		c0.3-0.4,0.3-1,0.3-1.6c0.8-12,7.2-20.4,17.7-24.8c5.1-2.1,11.6-1.4,17.4-1.1c1.4,0.1,2.8,3.2,4,5.1c1.3,2.2,3.1,2.9,6,2.3
		c0-1.1,0-2.2,0-3.4c0-7.1-0.4-14.2,0.1-21.3c0.5-7.5,1.9-14.8,2.8-22.3c0.2-1.4-0.3-3.1-1-4.4c-1.3-2.4-2.1-4.7-1.7-7.7
		c0.5-3.3,0.8-7.1-0.5-10c-1.1-2.5-4.3-4.5-7.1-5.7c-9.4-4.2-19.2-7.6-28.6-11.9c-14.7-6.6-29.1-13.7-43.7-20.6
		c-4.7-2.2-9.5-4.3-13.9-7c-3.1-1.9-5.7-4.6-8.3-7.2c-2.1-2.1-4.3-3.5-7.5-3.3c-12.9,0.9-23.5-4.3-33-12.3c-2.5-2.1-4-4.5-3.5-8.9
		c1.3-9.9,5.9-18.9,7.1-28.7c0.1-0.9-0.1-1.8-0.2-2.7c-1.2-5.5-2-10.9,2.8-16.5c-0.1,1.6,0,2.3-0.2,3c-2.1,7.5-0.3,13.8,4.7,19.7
		c2.6,3,4.4,6.8,6.6,10.3c-0.3,0.2-0.6,0.5-0.8,0.8c-3.4-4-6.8-8-10.4-12.3c-1.8,6.7-3.4,12.9-5,19c-0.4,1.6-0.7,3.2-1.2,4.7
		c-2,6.4,1.4,10.3,6.3,13.3c4,2.4,8.1,4.6,12.3,6.7c1.1,0.6,2.5,0.8,3.8,0.9c4,0.3,8,0.5,12.9,0.8c-7.4-8.3-16.8-12.9-25.5-18.4
		c0.1-0.3,0.2-0.5,0.3-0.8c1.2,0.4,2.6,0.6,3.7,1.2c7.8,4.2,15.6,8.4,22,14.8c15.7,15.6,34.7,25.7,55.1,33.7
		c5.4,2.1,10.5,5.3,15.9,7.6c8.1,3.5,16.4,6.5,24.6,9.8c2.4,1,4.7,2.1,7.4,2.7c-5.4-5.6-10.7-11.2-16.1-16.8
		c0.4-0.4,0.8-0.8,1.2-1.2c6.1,6.2,12.7,12.2,18.3,18.9c3.4,4.1,4.2,9.8,3.4,15.2c-0.5,2.8-0.2,5,1.6,7.3c0.8,1,1.3,2.9,0.9,4.1
		c-3.2,10.8-3.5,21.9-2.7,33c0.3,3.7-0.5,7.5-0.3,11.2c0.4,6.7,1.3,13.4,2,20.1c0.6-0.1,0.9,0,1-0.2c4-4.7,4-4.8,9.6-2.1
		c1.9,0.9,3.7,1.9,5.5,2.9c1.7,1,3.3,2,5,3.1c0.9-3.1,5.8-4.7,3.2-9.2c-1.3,0.4-2.6,0.7-4.1,1.1c0.6-2.7,4.9-3.3,2.9-6.9
		c-0.8,0.2-1.7,0.3-2.2,0.5c0.4-3,0.8-6,1.2-9.4c-2.4,0-4,0-5.6,0c-0.1-0.2-0.1-0.4-0.2-0.5c1.2-0.8,2.4-1.6,4-2.6
		c-0.8-2.8-1.7-5.8-2.6-9c-2.3,0.2-4.5,0.5-6.8,0.7c-0.1-0.2-0.1-0.4-0.2-0.6c2.3-1.2,5.1-2,6.8-3.8c1.8-2,0.7-5.6-1.4-7.4
		c3.1-1.7,5.2-0.8,4.7,2.5c-0.6,5-0.3,9.9,1.4,14.4c2,5.5,2.5,11.1,2.9,16.8c0.1,1,0.9,1.9,1.4,2.9c1.1,2.6,0.9,4.8-0.6,7.4
		c-1,1.7-1.1,4.6-0.4,6.4c3.2,7.6,7.4,14.5,15.1,18.4c0.4,0.2,0.9,0.3,1.7,0.5c-0.6-1.5-1.1-2.7-1.5-3.9c-0.6-2.1-1.1-4.1,1.3-5.8
		c1-0.7,1.2-2.5,1.9-3.7c1.2-2.2,3.4-2.7,5.5-1.3c3.4,2.3,6.7,4.6,10.2,7c0.9-5.3-0.6-10.1-4.4-14c-2-2-4.4-3.5-6.5-5.4
		c-0.6-0.6-1.4-1.5-1.4-2.2c-0.1-4.8-0.1-9.5-0.1-14.3c0.4,0.2,1.1,0.6,2.1,1.1c0.7-2.4,1.4-4.6,2-6.8c0.3,0,0.6,0,0.8,0
		c0,2.1,0.7,4.5-0.1,6.2c-1.4,2.8-0.3,4.7,1.1,6.7c0.8-1.3,1.5-2.7,2.2-4c0.4,0.1,0.7,0.3,1.1,0.4c-0.4,1.9-0.9,3.7-1.4,6
		c0.2,0.2,0.8,1,1.5,1.8c0.8-0.7,1.7-1.4,3.2-2.7c-0.3,1.8-0.1,3.1-0.6,3.6c-3.1,3.1-0.4,5.4,1.1,7.8c0.9,1.5,1.8,1.9,3.2,0.1
		c1.5-2,3.6-3.6,5.4-5.3c0.2,0.2,0.5,0.3,0.7,0.5c-0.6,1.2-0.9,2.6-1.8,3.6c-2.7,3.2-4.6,6.5-2.6,10.9c0.3,0.7,0.1,1.7,0.1,2.6
		c0.3,5.1,3.1,8.1,8.1,9.7c0-4.8-0.3-9.5,0.1-14.1c0.2-2.7,1.3-5.4,2.2-8c0.8-2,2.1-2.2,3.8-0.7c3.3,3.1,6.8,6,10.2,9
		c2.8-3.4,1.9-9.8-2.3-11.2c-6-2.1-8.8-6.2-9.6-12.1c-0.1-0.7-0.7-1.3-1-2c-2.7-6.5-2.7-6.4-7.8-1.5c-0.9,0.9-2.1,1.5-3.7,1.9
		c0.5-1,0.9-2,1.6-2.8c0.7-0.9,1.6-1.6,3-2.8c-2.2-0.2-3.6-0.4-5.1-0.5c0-0.3-0.1-0.5-0.1-0.8c2.8-0.3,5.6-0.6,8.7-1
		c-0.7-2.3-1.5-4.6-2.4-7.4c-3.4,2.1-6.5,4-9.6,6c-0.2-0.3-0.5-0.6-0.7-1c2.2-1.9,4.5-3.8,6.6-5.9c0.7-0.7,1.3-2,1.1-2.8
		c-0.6-2.1-1.5-4.1-2.6-5.9c-0.3-0.5-1.9-0.5-2.7-0.2c-2.2,1-4.3,2.2-6.4,3.4c-0.2-0.3-0.5-0.7-0.7-1c1.6-1.3,3.3-2.8,4.9-4
		c1-0.8,3-1.5,2.9-2c-0.2-1.6-1.1-3.2-2-4.7c-0.6-1.1-1.6-1.9-2.7-3.2c5.7,0.8,6.3,2.7,7.9,7c1.5,4.2,1.4,9.2,5.4,12.7
		c2,1.7,2.4,5.2,3.6,7.8c0.4,1,1.3,1.8,1.9,2.7c0.6,1,1.2,2,1.6,3.1c0.6,1.5,1.3,3,1.4,4.6c0.5,6,4.1,9.2,9.3,11.5
		c3.3,1.5,4.3,8.3,2.3,12.1c2.3,1.2,4.5,2.5,6.8,3.7c0.3-0.2,0.5-0.4,0.8-0.7c-0.9-6.9,4.9-13.3,0.9-20.6c5.5,2.1,8.8,6.7,12.6,10.5
		c0.3-0.2,0.7-0.3,1-0.5c-1.3-3.5-1.6-8.1-4.1-10.4c-3.6-3.3-8.7-5-13.3-7.2c-0.5-0.3-1.6,0.5-2.4,0.8c-2.4,0.7-4.7,1.3-7.1,1.9
		c-0.1-0.3-0.3-0.7-0.4-1c1.7-0.8,3.4-1.6,5-2.4c1.2-0.6,2.4-1.1,3.4-2c1-0.9,1.6-2.2,2.3-3.3c-1.5-0.6-2.9-1.2-4.4-1.8
		c-0.3-0.1-0.6,0-1.3-0.1c0.5-0.7,0.8-1.1,1.1-1.6c2.5-3.9,1.5-8.3-2.8-10.3c-1.1-0.5-3,0.4-4.5,1c-1.6,0.6-2.9,1.7-4.4,2.5
		c0.1-1.5,0.2-2.8,0.3-4.7c1.3-0.3,3.5-0.8,5.7-1.4c-1.5-5-4.9-3.4-8.6-1.8c0.5-1.2,0.7-1.7,0.9-2.1c0.6-1.1,1.9-2.8,1.7-3.1
		c-1.2-1.2-2.7-2.6-4.3-2.9c-2.5-0.5-5.1-0.1-7.8-0.7c0.4-0.2,0.8-0.6,1.2-0.5c4.5,0.5,6-2.7,7.1-6.1c0.2-0.8-0.1-2.3-0.7-2.9
		c-2.5-2.6-5.4-4.8-7.7-7.4c-1.5-1.8-2.9-1.7-4.9-1.2c-4.5,1-9.1,1.7-13.6,2.5c-0.4,0.1-0.7-0.2-1.1-0.3c0-0.3-0.1-0.6-0.1-0.8
		c3.7-0.9,7.4-1.7,11.2-2.6c1.1-0.2,2.1-0.5,3.1-0.9c2.1-0.8,2.9-2.3,1.6-4.4c-2-3-1.8-6-0.9-9.4c0.7-2.6,0.9-5.8,0.1-8.2
		c-1.1-3.5-4.3-5.2-8.1-4.3c-6.5,1.5-12.9,3.2-19.3,4.8c-2.1,0.5-4.1,1.3-6.1,1.9c-0.2-0.4-0.3-0.8-0.5-1.2c3.2-1.5,6.3-3.3,9.6-4.5
		c3.4-1.2,6.9-1.9,9.9-2.7c0.3-5.8,0.6-11.4,0.7-17.1c0.1-1.9,1.6-3.3,0.4-5.8c-1.4-3-2.8-2.3-4.8-1.5c-0.8,0.3-1.5,0.8-2.6,0.6
		c1.4-1,2.7-2,4.2-3.1c-4.6-6.5-9.4-11.9-15.1-16.4c-1.7-1.3-3.3-2.8-4.6-4.5c-1.5-1.8-2.7-1.5-4.5-0.4c-5.1,3.2-10.4,6.3-15.6,9.4
		c-0.4,0.3-1,0.4-1.4,0.5c-0.2-0.3-0.4-0.5-0.5-0.8c4.9-3.5,9.8-6.9,14.9-10.6c-4-4.9-7.9-9.9-12.1-14.7c-1.9-2.2-4.3-1.8-6.7,0
		c-6.8,5-13.8,9.8-20.7,14.7c-0.3,0.2-0.8,0.2-1.8-0.3c2.9-2.5,5.7-4.9,8.6-7.4c-0.2-0.3-0.4-0.5-0.6-0.8c-4.2,2.2-8.4,4.3-12.5,6.5
		c7.2-7.6,16.6-11.1,27.2-13.5c-5.9-4-10.9-7.6-16-11c-0.9-0.6-2.3-1-3.4-0.9c-12.3,0.2-23.1,4.4-32.2,12.5
		c-4.6,4.1-8.6,8.8-12.8,13.2c-0.5,0.5-1.1,0.8-1.9,1c2.9-8.5,9.8-13.3,16.4-18.5c6.9-5.4,14.7-8.5,24.4-9.9
		c-3.4-3.5-6.1-6.4-9.1-9.2c-1.3-1.3-2.9-2.2-4.4-3.4c-1.8-1.5-3.7-2-6.1-1.3c-1.9,0.6-3.9,0.7-5.9,1c-0.1-0.3-0.2-0.6-0.2-1
		c4.2-1.5,8.5-3,13.4-4.7c-1.1-1.9-2-4-3.4-5.6c-3.7-4.5-7.4-8.9-11.4-13c-4.9-5-6.8-4.7-11.2,0.9c-2.6,3.3-5.6,6.3-8.3,9.4
		c-0.3-0.2-0.6-0.4-0.8-0.7c3.3-4.5,6.6-9.1,10.1-13.5c4.3-5.4,9.5-10.2,13.2-16c2.8-4.4,3.7-9.9,5.4-14.9c1.2-3.8,2.5-7.6,3.4-11.5
		c1.2-5.4,2.8-10.8,3-16.2c0.3-7.3-0.1-14.7-1.1-22c-1.1-7.9-3.1-15.6-8-22.3c-2.3-3.2-3.9-7-5.9-10.5c0.4-0.3,0.8-0.5,1.2-0.8
		c1.8,2.4,3.9,4.6,5.4,7.2c3.3,5.5,6.9,10.9,8.4,17.4c3.4,14.7,4,29.3,1.8,44.2c-0.3,2.1,0.7,4.8,1.8,6.7
		c3.5,6.2,7.2,12.2,11.1,18.2c4.9,7.5,10.9,13.9,17.9,19.5c5,4,9.8,8.3,14.6,12.6c-10.1-6.3-19.9-12.9-28.1-21.7
		c-8-8.7-12.6-19.7-18.6-30.1c-4,11.6-7.8,22.6-11.7,34.1c-0.1-1.8-0.2-3.1-0.4-5.1c-2.8,3.2-5.3,6-7.8,8.9
		c6.8,3.7,12,9.1,16.6,14.9c2.2,2.8,3.9,6.2,5.2,9.5c0.3,0.9-1.4,2.6-2.2,3.9c-0.4,0-0.7-0.1-1.1-0.1c1.5,1.2,2.9,2.8,4.6,3.7
		c4.1,2.1,6.7,5.3,8.6,9.4c0.4,0.9,2,2,2.9,1.8c6.8-1.1,11.6,2.7,16.3,6.5c1.9,1.6,3.6,3.4,5.4,5.1c0.5,0.4,1.4,0.9,1.8,0.7
		c1.7-1,3.5-2.1,5.4-0.7c2.3,1.6,4.6,3.1,6.5,5.1c2.9,3.2,5.4,6.7,8.1,10c0.3,0.4,0.9,1.1,1.1,1c4-1.5,5.6,1.5,7.9,3.7
		c2.6,2.5,5.8,4.5,8.3,7.2c3.5,3.8,6.1,8.6,10,11.9c3.3,2.8,4.1,5.8,3.8,9.6c-0.2,2.1-0.6,4.1-0.7,6.2c-0.1,3.9,0,7.8,0,12.2
		c2.1,0,3.7,0.2,5.2,0c5.7-0.7,9.6,2.6,9.7,8.4c0,0.4,0.1,0.9-0.1,1.3c-2.8,6.2-0.1,12,1,18c0.1,0.6,0.8,1.2,1.3,1.7
		c2.7,2.7,5.5,5.2,8,8c0.8,0.9,1,2.5,1,3.8c-0.1,1.7-0.6,3.4-0.8,4.4c2.3,2.6,4.2,4.8,6.2,7c0.9,0.9,2,1.6,2.9,2.5
		c3.2,3.3,6.5,6.5,9.4,9.9c0.7,0.9,0.2,2.8,0.4,4.2c0.1,1.1,0,2.7,0.7,3.3c4,3.7,4.1,3.7,0.3,7.7c4,1.8,7.8,3.7,11.7,5.5
		c2,0.9,3.4,1.9,4.1,4.2c1.6,4.7,3.5,9.3,2.7,14.5c-0.1,0.9,0.9,2.2,1.6,3.1c3.9,5.1,3,17-2.2,21.6c0.7-3.2,0.7-6,1.8-8.3
		c2.5-5.2-0.1-9.4-2.4-13.4c-2.2-3.9-5.3-7.3-8.1-10.8c-0.7-0.8-1.7-1.4-2.2-1.8c-1.1,3.4-2.5,6.5-3.1,9.7c-0.4,2.1,0,4.5,0.7,6.5
		c0.7,2.3,1.8,4.7,3.3,6.7c3,3.9,6.4,7.4,9.6,11.1c-0.2,0.3-0.4,0.5-0.6,0.8c-1.4-1-2.8-1.9-4.1-2.9c-4.5-3.5-7.9-8-10-13.3
		c-0.2-0.5-0.9-1-1.4-1.1c-2.4-0.8-4.9-1.5-7.6-2.2C260.3,776.1,263.2,786.5,255,794.6z M123.8,784.1c6-5.2,11.4-10.9,17.7-15.1
		c5.8-3.9,7.4-13.1,4.7-17.9c-1.1-2-2.4-3.8-4-6.3c-3.2,1.5-6.6,2.9-9.9,4.8c-5.3,3-9.8,7.3-10.8,13.5
		C120.4,770.1,121.8,777.2,123.8,784.1z M181.6,810.1c3.1-7.8,6.1-14.4,8.4-21.2c0.9-2.7,1.5-6.4,0.4-8.6c-2.4-4.6-6-8.6-9.2-12.8
		c-0.2-0.3-1.8,0-2,0.4c-2.5,4.5-4.9,9-4,14.5c1,6.2,2,12.4,3.3,18.6C179.1,803.9,180.4,806.6,181.6,810.1z M193.2,778.8
		c3.1-6.5,0.2-11.8-1.9-17.2c-0.6-1.5-1.8-3.1-3.1-4c-3.3-2.1-6.8-3.9-10.3-5.5c-0.8-0.4-2.7,0-3.1,0.7c-2,3.1-4.4,6.2-5.3,9.7
		c-1.1,4.3-1.2,8.9-1.1,13.3c0,3.8,0.9,7.5,4.6,10.4c-2.3-9,2.1-15.6,6.8-22.6C185.7,767.2,189.7,772.5,193.2,778.8z M146.7,788.2
		c5.3-5.8,10.6-11.4,15.4-17.2c1.2-1.4,1.5-4.2,1-6.1c-1-3.7-2.7-7.3-4.2-10.8c-0.9-2-4-2.5-5.2-0.8c-1.5,2.2-2.7,4.6-3.8,7
		c-0.8,1.8-1.4,3.8-1.9,5.7c-1.2,4.4-2.8,8.7-3.2,13.2C144.5,782,146,785,146.7,788.2z M166.2,741.6c-0.1-0.5-0.1-0.8-0.2-0.9
		c-0.4-0.2-0.8-0.5-1.1-0.4c-4.5,0.6-7.1-1.8-9-5.5c-0.6-1.1-2-2.4-3.1-2.4c-5.8-0.2-11.8-0.7-16.9,3.2c-5.5,4.1-9.8,9-11.5,16.1
		c4.3-2.4,8.2-4.7,12.1-6.8c5.7-3.1,9.5-3.4,13.2-1.2c-1.7,0.2-3.2,0.5-4.7,0.7c1.9,3,3.6,5.7,5.3,8.5c1.9-3,3.1-6.7,5.7-8.4
		C158.6,742.5,162.6,742.5,166.2,741.6z M249.7,756.2c-7.5,6.8-2.4,31,6,34.6c0.9-2.3,2.1-4.5,2.6-6.9c0.7-3.8,0.9-7.6,1.2-11.4
		c0.2-2.9,0.1-5.3-2.5-7.6C254.2,762.5,252.1,759.2,249.7,756.2z M218,765.7c-1.2,1.9-1.7,3.2-2.5,4.1c-1.8,2-2.2,4-1.3,6.6
		c1.5,4.1,2.6,8.2,4,12.3c0.9,2.5,2,4.9,3.3,8.1c0.9-1.5,1.8-2.3,2-3.3c1.4-5.5,2.8-11.1,3.9-16.7c0.2-1.2,0-3.2-0.9-4
		C224,770.3,221,768.2,218,765.7z M161.2,753.6c-0.1,0.1-0.3,0.3-0.4,0.4c1.7,3.2,3.4,6.4,5.4,10.2c2.5-7.5,3-13.9,0-20.2
		c-7.6-0.1-10.3,1.5-10.2,6.1c6.5,0.8,8.6,1.6,7.8,5.4C162.9,754.9,162.1,754.3,161.2,753.6z M221.1,743.3
		c-0.8,7.5,0.1,9.2,5.1,10.8C226.8,749.7,224.3,746.8,221.1,743.3z"/>
	<path class="st0" d="M409.7,614.7c1.4,3.9-0.8,8.2,1.9,12.1c1.2,1.8,0.7,3.9-2,4.4c-0.7,0.2-1.4,0.5-3,1c2.5,5.5,5,10.7,7.2,16
		c0.4,1,0.1,2.2,0.1,3.3c-0.8-0.7-1.8-1.3-2.2-2.2c-1.1-2.1-1.8-4.5-3.1-6.4c-0.7-1.1-2.2-1.8-3.6-2.2c-1.8-0.5-3.8-0.3-5.7-0.5
		c0-0.3,0-0.7-0.1-1.1c2.3-0.3,4.6-0.5,7-0.8c0.1-4.3-1.1-7.8-6.3-8.8c0.2-0.3,0.5-0.5,0.7-0.8c1.9,0.2,3.7,0.7,5.6,0.7
		c0.9,0,1.9-0.6,2.8-1c-0.5-0.9-0.8-2-1.5-2.8c-0.6-0.7-1.5-1.1-2.7-1.9c5.1-1.1,3.2-4.5,2.9-7c-0.3-2.8-1.4-5.5-2.3-8.2
		c-0.9-2.5-2.5-3.6-5.3-2.2c-1.9,0.9-4.1,1.1-6.1,1.7c-0.1-0.3-0.2-0.6-0.3-0.9c2.6-1.3,5.2-2.5,7.6-3.9c0.5-0.3,1-1.9,0.6-2.4
		c-2.6-4.4-5.4-8.7-8-13.2c-1.1-1.9-2.1-2.7-4.4-2.4c-3.2,0.5-6.4,0.5-9.6,0.8c-0.1-0.5-0.1-0.9-0.2-1.4c4.3-0.8,8.7-1.6,13-2.4
		c0.3-0.3,0.6-0.7,0.9-1c-1.5-1.1-3-2.2-4.5-3.4c-4-3.3-7.9-6.8-11.9-10c-4.5-3.7-8.4-4.2-13.2-0.9c-4.3,2.9-8.2,6.3-11.9,9.9
		c-5.5,5.4-10.8,10.9-15.6,16.8c-3,3.7-5.3,8.1-7.6,12.4c-2.8,5-5.5,10-8.1,15.1c-0.8,1.6-1.2,3.5-2,5.2c-0.3,0.8-1,1.5-1.8,2.1
		c-1-4.8,2.1-8.3,3.7-12.2c1.3-3,3.6-5.7,4.7-8.8c2.2-6.8,6.5-12.3,10.9-17.5c5.8-6.8,12-13.4,18.4-19.6c4.7-4.6,10.6-7.6,17.4-8
		c1.6-0.1,3.5,0.7,4.7,1.7c6.2,5.1,12.2,10.3,18.2,15.7c1.3,1.1,2.1,2.5,1.3,4.8c-0.6,1.6,0.7,4.3,1.7,6.1c1.9,3.2,4.4,6.1,6.5,9.2
		c0.4,0.5,0.8,1.2,0.8,1.8c0,5.8,4.2,8.5,8.2,11.5c4.3,3.1,8.4,6.5,12.5,9.8c0.8,0.6,1.5,1.8,1.5,2.7c0,4,2.8,5.5,5.8,7
		c3,1.5,5.9,3.3,9,4.6c2.6,1,3.6,2.5,2.9,5.2c-0.7,2.8,0.6,3.9,3.3,4.6c4.5,1.2,9.4,2.2,13.1,4.7c3,2,6.4,3.2,9.4,5.2
		c3.9,2.5,8.4,3.5,12.9,4.1c3.2,0.5,6.7,0.3,9.7,1.4c3.7,1.4,8.1,2.3,10.3,6.4c0.2,0.4,1.3,0.4,2,0.4c2.7,0.1,5.5-0.3,8.1,0.4
		c9.2,2.4,18.5,3.3,27.9,3.3c1.1,0,2.2,0,3.3,0.3c4.6,1.3,9.1,0.8,13.4-1.2c1.8-0.9,3.2-0.9,4.6,0.8c0.5,0.7,1.6,1.2,2.5,1.2
		c5.8,0.1,11.4-0.9,16.8-3.1c3.7-1.5,7.7-2.1,11.7-3.2c0,2.4,0,2.4-6,3.5c2.5,1,4.6,1.8,6.6,2.5c-0.1,0.4-0.2,0.8-0.3,1.2
		c-6-0.7-12.1-3.5-18,0.5c2.8,1.7,5.5,3.3,8.2,4.9c-0.1,0.3-0.2,0.5-0.3,0.8c-6.2,0.1-10.7-6.6-17.7-5.2c4.1,4.7,8,9,11.8,13.4
		c-0.3,0.3-0.6,0.7-1,1c-1.8-1.5-3.8-2.8-5.4-4.5c-3.5-3.7-6.8-7.6-10.4-11.2c-0.6-0.6-2.2-0.5-3.2-0.2c-6.2,1.3-12.3,2.8-18.5,4.1
		c-1.4,0.3-2.9,0-4.5-0.7c2.8-0.7,5.5-1.4,8-2c-9.2-0.9-18.6-1.8-28-2.7c4.4,2.9,8.9,5.9,13.4,8.8c-9-1.5-15.1-9.6-24.3-11
		c-0.5,1.3-0.8,2.2-1.2,3.6c-0.6-0.8-1.4-1.3-1.4-1.8c0-5.7-4.6-6.2-9.2-8.4c0.8,1.8,1.4,2.7,1.6,3.7c0.1,0.6-0.5,1.4-0.8,2
		c-0.5-0.4-1.5-0.8-1.5-1.2c-0.1-3.5-2.5-4.5-5.2-4.8c-2.5-0.3-4.5-3.1-7.6-0.9c-0.7,0.5-3.2-1.7-5.2-2.7c0.3,1.2,0.6,2.2,1,3.3
		c-0.3,0.2-0.7,0.5-1,0.7c-2.4-2.7-4.9-5.4-7.3-8.1c-0.3,0.2-0.6,0.5-0.8,0.7c0,1.3,0,2.7,0,4.1c-0.3,0.2-0.6,0.3-0.9,0.5
		c-0.8-1.4-2-2.8-2.4-4.3c-0.6-2.5-2-3.8-4.5-4.5c-4.2-1.2-8.2-2.9-13.4-4.7c0.9,4.7,1.7,8.6,2.5,12.5c-0.2,0.1-0.5,0.2-0.8,0.4
		c-0.6-1.1-1.7-2.1-1.9-3.3c-0.6-4.6-1.3-9.3-1.2-14c0.1-2.9-1.1-4.5-3.2-5.6c-4-2.2-8.2-4-12.4-6.1c-0.9,4.9-1.7,9.7-2.6,14.5
		c-0.2,0-0.4,0-0.6,0c-0.5-2-1.3-4-1.4-6c0-2.1,0.6-4.3,1-6.4c1.4-6.2-0.1-11.1-5.9-14.5c-2.8-1.6-5.2-3.7-7.8-5.6
		C410.4,614.4,410,614.6,409.7,614.7z"/>
	<path class="st0" d="M248.9,228.3c-0.9-1.8-1.5-3-2.1-4.3c-3.2,3.6-6.3,7-9.3,10.6c-0.6,0.8-0.9,2.3-0.7,3.3
		c0.8,5.6-1.4,9.8-5.2,13.7c-3.7,3.8-7.1,7.8-10.4,11.8c-0.6,0.7-0.8,2-0.8,3c-0.1,2.5,0,5-0.2,7.5c-0.1,0.6-0.9,1.5-1.5,1.7
		c-4.8,2-9.6,4.2-14.6,5.9c-2.2,0.8-2.4,1.9-2.3,3.9c0.3,3.4,0.5,6.8,0.6,10.1c0,3-1.2,4.9-4.5,5.9c-5.1,1.5-10,3.8-15.2,5.8
		c1,5.2,1.9,10.3,2.9,15.4c1.6,8.4,1.7,8.4-5.9,11.5c-5.3,2.2-10.8,4-16.7,6.3c1.2,5.1,2.3,10.1,3.5,15.1c0.5,2.2,1.3,4.3,1.7,6.5
		c0.1,0.8-0.5,2.1-1.1,2.5c-4.3,2.4-23.6,5.6-28.8,4.9c-0.1-0.3-0.1-0.6-0.2-0.8c2.2-0.5,4.3-1,6.5-1.4c6-1.2,12-2.3,18-3.5
		c1.6-0.3,2-1.2,1.6-2.9c-2.2-9.1-4.3-18.2-6.3-27.3c-0.9-4.1-1.2-8.2-1.9-12.3c-0.3-1.7-1.1-3.3-1.3-5.1c6.9,5.6,3.9,14.8,8.1,21.7
		c6.5-2.2,12.9-4.4,19.3-6.8c0.7-0.2,1.3-1.8,1.2-2.6c-1-6.7-2.2-13.5-3.4-20.2c-0.3-1.7-0.7-3.3-0.8-5.3c2.7,2.9,5,1.5,7.6,0.3
		c3.2-1.4,6.5-2.7,9.8-3.6c2.1-0.6,2.9-1.8,2.8-3.8c-0.1-3.2-0.2-6.3-0.5-9.5c-0.3-4.3-0.6-8.6-1.3-12.9c-1-6.6-2.3-13.2-3.1-20
		c5.2,7.8,4.9,17.2,7.4,26.2c4.5-1.6,9.4-2.6,13.6-5c1.7-1,1.9-4.7,3-7.8c-2.2,0.5-3.4,0.8-5.5,1.3c1.3-1.5,1.9-2.4,2.5-3.1
		c4.9-5.1,9.7-10.4,14.9-15.3c4.6-4.3,3.8-9.5,3.3-14.8c-0.4-4.2-0.5-8.5-0.8-12.8c-0.5-7.4-1.1-14.7-1.7-22.1
		c-0.1-0.6,0.1-1.2,0.8-2.1c0.4,0.7,1.1,1.3,1.2,2c0.5,3.5,1,6.9,1.3,10.4c0.6,7,1.1,13.9,1.7,22c2.5-2.6,4.4-4.6,6.2-6.6
		c0.9-0.9,1.7-1.9,2.6-2.9c2.2-2.3,4-4.6,3.4-8.2c-0.5-3-1-6.2-0.4-9.1c1.1-4.8,1.6-10.3,6-13.4c2.4-1.7,4.9-3,4.9-6.2
		c0-3.3,0.3-7.1-1.1-9.8c-1.8-3.5-1.3-6.6-1.4-10c0.4-0.1,0.8-0.2,1.3-0.4c0.5,1.8,1,3.5,1.5,5.4c0.6-0.4,1.3-0.9,2.1-1.4
		c0.2,0.9,0.7,1.8,0.5,2.6c-1,5.5,1.5,11.1-1.1,16.5c-1,2.1,0.7,2.5,2,2.9c3,0.8,6,1.4,9,2.6c-1.2,0.1-2.4,0.3-3.5,0.1
		c-2-0.3-4.1-0.6-6-1.4c-3.7-1.4-6.5-0.4-9.4,3.2c2.2-0.5,3.7-0.9,6-1.5c-3.4,3.8-7.6,5.6-9,9.7c4.7,1.2,9.2,2.4,14.7,3.9
		c9.4-6.6,18.9-15.6,31.9-18.5c0.2,0.3,0.3,0.6,0.5,0.8c-0.5,0.4-1,0.9-1.6,1.2c-9.6,4.2-18,10.4-26.5,16.5c-1.9,1.3-4.2,2-6.2,3.2
		c-1.2,0.8-2.4,1.8-3.3,2.9C255.9,218.9,252.5,223.5,248.9,228.3z M250.6,222.4c2.6-3.5,4.6-6.2,6.6-9c0.9-1.2,1.5-2.6,2.2-4
		c-1.5-0.8-3-1.9-4.6-2.2c-1.4-0.3-2.9,0.3-4.2,0.5C250.6,212.6,250.6,217.1,250.6,222.4z"/>
	<path class="st0" d="M545.3,235.1c-14.6,23.6-35.5,40.3-54.4,58.7c-21.6,21-46.7,37.7-73,52.4c-27.2,15.2-55.5,28.2-85.2,38
		c-0.5,0.1-1,0-1.8-0.7c0.8-0.5,1.6-1.1,2.5-1.5c16-6.6,32.2-12.8,48-19.8c9.3-4.1,17.9-9.8,27.1-14.2c16.8-8.1,32-18.8,47.1-29.6
		c12.5-8.9,24.1-19.1,35.7-29.1c7.2-6.2,13.5-13.4,20.3-20c7-6.8,14.2-13.3,21.1-20.1c3.9-3.9,7.2-8.3,10.8-12.5
		C543.9,236.2,544.3,235.9,545.3,235.1z"/>
	<path class="st0" d="M364.2,663.4c-5,2.3-8.5,5.3-7.2,11.4c-2.8-0.1-4.5-1-4.9-3.4c-0.3-2-0.4-4.1-0.4-6.2c0-4.7-0.2-9.5,0.2-14.1
		c0.4-4,1.6-8,2.3-12c1.1-5.7,2.4-11.4,3-17.1c0.5-4,0.1-8,0.1-12.1c-1.7,1.5-3.6,3.2-5.5,4.9c-0.6-0.5-0.9-0.6-0.9-0.7
		c0.5-7.2,0.5-14.6,1.7-21.7c0.9-5.6,4.5-10.2,8.6-14.2c0.4-0.4,1.2-0.5,2.1-0.5c-7.4,9.2-10.8,19.5-8.6,31.4
		c4.4-3.9,9.6-6.5,15.3-7.9c0.1,0.3,0.3,0.6,0.5,0.9c-2.6,1.2-5.1,2.5-7.8,3.6c-2,0.8-2.9,1.9-2.8,4.3c0.3,5,0,10.1,0,15.1
		c0,1.2-0.4,2.5-0.6,4c3.9-1.5,7.9-3.1,12-4.7c0.1,0.3,0.3,0.6,0.4,0.9c-1.7,1-3.4,1.9-5.2,2.9c-1.1,0.6-2.1,1.1-3.3,1.5
		c-3.5,1.5-5.1,3.7-6.4,7.6c-3,9.1-2.1,18.3-2.3,27.5c0,0.6,0.1,1.3,0.2,2.5c4-3.6,7.6-7.1,13.5-6.7c-7.1,11.5-13.3,23.2-15.7,36.7
		c8.3-5.4,17.6-6,26.8-7.3c0.1,0.4,0.2,0.8,0.3,1.2c-3.7,0.8-7.4,1.8-11.2,2.5c-2.2,0.4-3.2,1.2-4,3.4c-1.5,4.7-3.8,9.1-5.5,13.7
		c-0.7,1.9-1,4-1,6.4c7.3-4.3,14.9-5.7,23.8-4.7c-3.6,0.8-6.4,1.6-9.2,2.1c-5.3,0.9-10,2.8-14.2,6.2c-1.7,1.4-3,1.6-3.2-1
		c-0.2-2.2-0.5-4.6,0.2-6.6c2-6,4.5-11.8,7.1-18.4c-3.5,1.9-6.9,3.7-10.2,5.4c-0.7,0.4-1.4,0.8-2.1,1.2c-0.3-0.8-0.9-1.6-0.8-2.2
		c1.7-7.5,2.8-15.1,7-21.9C359.1,673,361.5,668.4,364.2,663.4z"/>
	<path class="st0" d="M262.5,270.5c5.1-9.9,9.5-20.3,17.8-27.7c8.2-7.3,17.2-13.7,26.6-21.1c-8.1,2.1-15.2,4.4-21.2,8.9
		c-5.9,4.4-11,9.8-16.5,14.7c-0.3-0.2-0.5-0.5-0.8-0.7c2.7-3.5,5.2-7.2,8.1-10.5c5.4-6.2,12.8-9.3,20.3-11.8
		c12.3-4.1,24.5-8.7,37-11.8c23.3-5.8,47-6,70.7-1.6c8.1,1.5,16.4,3,24.6,0c1.9-0.7,3.7-1.8,5.5-2.7c1-0.4,2-0.7,3.2-0.6
		c-2,3.2-5.1,4.4-8.4,5.5c-8.8,2.9-17.6,1.3-26.3-0.2c-23.1-4.1-46-3.8-68.7,1.9c-12.7,3.2-24.3,9.1-34.5,17.7
		c-5.3,4.5-11.1,8.3-16.3,12.9c-3.3,3-6,6.7-8.8,10.3c-3.8,5-7.2,10.2-10.8,15.3C263.8,269.7,263.1,270,262.5,270.5z"/>
	<path class="st0" d="M270.2,321.8c-3.5,7.1-7.1,14-10.1,21.1c-1.1,2.7-1,6-1.4,9c-0.4,3.2-0.9,6.4-1.3,9.7
		c-0.1,0.7-0.3,1.5-0.1,2.2c2.3,9.3,2.6,18.7,1,28c-1,5.8-4.2,10.7-8.8,14.8c2.2-5.2,4.5-10.3,6.8-15.5c-8.8,1.5-8.6,9.5-11.7,14.9
		c-0.3-0.1-0.6-0.2-0.9-0.3c0.5-2.1,1-4.2,1.5-6.3c-0.2-0.2-0.5-0.3-0.7-0.5c-2.6,2.6-5.4,5-7.9,7.7c-5,5.5-10.1,11-14.8,16.7
		c-1.7,2-2.6,4.8-3.9,7.1c-2.7,4.8-5.5,9.6-8,14.5c-1.6,3.1-2.6,6.6-4.4,9.6c-2.2,3.8-4.9,7.3-7.4,10.9c-0.4-0.2-0.8-0.5-1.2-0.7
		c0.9-1.6,1.8-3.1,2.7-4.7c1.8-3.2,3.6-6.4,5.3-9.6c2.4-4.6,4.5-9.3,6.9-13.8c1.5-2.9,3.6-5.5,4.8-8.4c2.7-6.6,7.4-11.7,12.1-16.7
		c5.5-5.8,11.4-11.2,16.9-17c1.4-1.5,2.3-3.7,2.8-5.7c2-7.3,3.7-14.8,4.9-22.3c-1,2.2-2,4.5-3.1,6.7c-0.3-0.1-0.5-0.2-0.8-0.4
		C254.9,355.2,255.3,335.6,270.2,321.8z M255.4,374.4c-1.8,5.5-3.4,10.5-5.1,15.8C256.6,387.7,258,383.3,255.4,374.4z"/>
	<path class="st0" d="M230.2,549.2c-1.4-8.7-2.8-17.4-4.1-26.2c-0.6-4.1-0.9-8.2-1.2-12.3c-0.5-6.2,1-12,4.2-17.4
		c3.2-5.5,6.4-11,10.1-16.1c3.3-4.5,7-8.9,11.1-12.6c5.8-5.2,6.2-11.7,5.7-18.5c-0.4-4.7-1.5-9.3-2.2-13.9c-0.2-1.6-0.3-3.2-0.5-5.2
		c2.9,2.3,4.7,10.6,5.8,25.3c1.9-2.4,3.7-4.2,4.9-6.4c3-5.1,5.3-10.2,5.4-16.5c0.1-5.2,1.8-10.4,3-15.6c0.2-0.8,1.1-1.5,1.6-2.2
		c0.3,0.1,0.5,0.2,0.8,0.3c-0.6,2.8-1.4,5.6-1.8,8.4c-0.4,3.1-0.6,6.2-0.7,9.3c-0.3,8.2-4.6,14.6-9.2,21c-2.4,3.3-4.2,7.1-6.8,10.3
		c-4.8,6-10.2,11.4-15,17.5c-4.4,5.6-8.3,11.4-11.3,18c-3.7,8.2-2.3,16.5-1.9,24.8c0.5,9,1.9,18,2.9,27c0,0.3-0.1,0.6-0.1,1
		C230.8,549.1,230.5,549.2,230.2,549.2z"/>
	<path class="st0" d="M342.1,629.3c1.8-1.3,3.7-2.6,5.5-3.8c0.2,0.3,0.5,0.6,0.7,0.8c-1.2,1.3-2.6,2.6-3.6,4
		c-3.1,4.4-6.3,8.7-9,13.4c-3.1,5.3-5.7,10.9-8.5,16.4c-0.2,0.4-0.4,0.8-0.5,1.2c-1.2,7.5-2.5,15-3.5,22.5
		c-0.9,6.8-1.6,13.6-2.4,20.4c-0.2,1.4-0.1,2.8-0.1,4.3c0,10,0,20.1-0.2,30.2c-2.6-15.7-2.1-31.4-0.4-47.1c0.5-4.3,0-8.7,0.6-13
		c0.7-5.7,1.3-11.6,3.3-16.9c2.7-6.9,6.9-13.1,10.1-19.8c1.8-3.8,5-6.7,4.7-11.8c-0.3-4,2-8.1,2.9-12.2c0.5-2.1,0.7-4.3,0.4-6.3
		c-0.8-4.6-0.5-8.8,2-12.8c1.6-2.5,2.3-5.6,3.8-8.2c1.2-2.2,2.8-4.2,4.2-6.3c0.3,0.2,0.5,0.3,0.8,0.5c-1.9,4.3-3.6,8.7-5.8,12.9
		c-2.7,5.2-3.6,10.3-2.1,16c0.4,1.7-0.4,3.8-0.9,5.6c-0.9,3.3-2,6.5-3.1,9.7C341.3,629,341.7,629.2,342.1,629.3z"/>
	<path class="st0" d="M451.2,399.7c6.2-0.4,12.4-0.6,18.5-1.4c6.1-0.8,12.1-2.4,18.1-4.2c-6.8,0.4-13.6,0.8-20.4,1.2
		c-3.8,0.2-7.6,0.6-11.5,0.7c-1.2,0-2.5-0.5-3.5-1.5c6.1-0.4,12.2-1,18.3-1.2c19.3-0.5,38.1-4,56.7-9.1c7.1-2,14.5-2.8,22-3.4
		c-1.7,0.6-3.4,1.1-5.1,1.7c0,0.1,0,0.3,0.1,0.4c2.7,0,5.4,0,8.1,0c-24,2.5-46.9,10.1-70.3,15.2c-5.3,1.2-10.7,2.3-16.1,2.8
		c-4.9,0.5-9.9,0.1-14.9,0.1C451.3,400.6,451.2,400.2,451.2,399.7z"/>
	<path class="st0" d="M257,562.3c-0.1-9.3,3.8-15.8,10.6-20.6c0.3,0.2,0.6,0.4,0.9,0.6c-1.5,2.2-3.4,4.2-4.5,6.6
		c-1.7,3.8-3.1,7.8-4.3,11.8c-0.2,0.7,0.7,2.3,1.5,2.8c2.9,1.5,6,2.5,9,3.8c1.7,0.7,3.4,1.4,5.2,2.1c-0.2,0.5-0.3,1-0.5,1.5
		c-4-1.2-8.5-1.5-11.7-3.8c-7.4-5.3-13.6-1.5-19.9,1.6c-2.2,1.1-3.9,3-5.9,4.6c0,0.4-0.1,0.8-0.1,1.1c2.5,0.6,5,1.3,7.5,1.9
		c6.2,1.3,12.4,2.5,18.5,3.8c0.6,0.1,1.1,0.6,1.5,1.5c-1.2-0.2-2.3-0.3-3.5-0.5c-7.8-1.3-15.6-2.8-23.5-3.9
		c-1.1-0.2-2.6,1.2-3.8,2.1c-3.4,2.7-6.7,5.5-10.1,8.1c-0.8,0.7-2,1-3,1.4c-0.2-0.4-0.5-0.7-0.8-1.1c5.1-4.1,10.1-8.2,15.3-12.4
		c-2.1-2.5,0.1-3.9,1.7-5.2C242.9,565.5,249.2,562.3,257,562.3z"/>
	<path class="st0" d="M448.3,408.8c4.1-0.9,8.2-1.8,12.3-2.6c17.3-3.6,34.5-7.5,51.8-10.8c8.3-1.6,16.9-2.1,25.3-2.7
		c-14.7,2.8-29.4,5.5-44.1,8.2c0,0.3,0.1,0.7,0.1,1c4.3,0,8.6,0,12.9,0c0,0.3,0.1,0.6,0.1,0.9c-21-0.5-40.4,6.6-59.8,13.3
		c-0.1-0.4-0.3-0.8-0.4-1.3c6.5-2.3,13-4.7,19.6-7c0-0.2-0.1-0.3-0.1-0.5c-5.9,0.9-11.7,1.9-17.6,2.8
		C448.4,409.6,448.4,409.2,448.3,408.8z"/>
	<path class="st0" d="M148.1,400c1.7,7,3.4,14,5.1,20.9c0.8,3.1,1.1,6.2,3.4,9c1.7,2,1.8,5.2,2.6,8c1.3,4.5,2.4,9,3.7,13.5
		c2.5,8.2,7,15.5,11.7,22.5c0.3,0.5,0.5,1,0.3,1.9c-0.8-0.7-1.5-1.4-2.2-2.1c-0.8-0.8-1.7-1.6-2.4-2.6c-2.4-3.9-5.2-7.7-7-12
		c-2.6-6.3-4.2-13-6.8-19.4c-3.4-8.5-6.5-17-7.6-26.1c-0.5-4.5-1.6-8.9-2.4-13.3C147.1,400.2,147.6,400.1,148.1,400z"/>
	<path class="st0" d="M333.1,390.7c3.4-1.3,6.7-3,10.2-3.7c18.6-3.8,36.6-9.2,53.7-18.1c11.4-6,23.7-10.4,35.6-15.5
		c0.5-0.2,1-0.2,2.3-0.4c-12.9,6.2-25.3,11.6-37.2,18c-16.1,8.6-33.4,13.6-51.2,17.4C342,389.3,337.5,389.9,333.1,390.7
		C333,390.6,333.1,390.7,333.1,390.7z"/>
	<path class="st0" d="M425.8,145.6c-7.3-2.2-12.7-6.9-16.5-13.3c-1.7-2.9-3.5-4.3-7.1-4.4c-2.6-0.1-5.5-1.4-7.7-3
		c-2.2-1.6-4.1-2-6.7-1.4c-1.3,0.3-2.8,0.1-4.2,0.1c0-0.3-0.1-0.6-0.1-0.9c2.2-0.3,4.5-0.7,6.7-1c3.2-0.5,6.4-1.3,9.6-1.4
		c5.3,0,8.4,4.2,12,7.2c3.4,2.8,6.6,5.8,9.9,8.7c-0.4,0.4-0.7,0.9-1,1.3c-2.7-1.9-5.4-3.7-8.1-5.6
		C415.2,138.2,421.2,141.1,425.8,145.6z"/>
	<path class="st0" d="M298.1,518.8c-2.2,0.3-4.5,1-6.8,1c-6,0.2-12,0.2-18.1,0.1c-2.2,0-3.5,0.8-4.8,2.5c-2.2,2.8-5,5-7.6,7.5
		c-2.4,2.4-2.1,3.4,1.1,4.6c2.9,1.1,5.9,2.3,8.7,3.6c0.6,0.2,1,0.9,1.9,1.8c-1.3-0.2-2-0.2-2.6-0.4c-3.2-0.9-6.4-1.7-9.6-2.8
		c-4.3-1.5-6.4-4.8-2.1-8.3c3.2-2.7,6.5-5.3,10.1-8.3c-1.2-0.5-2-0.9-2.7-1.2c-3.3-1.3-4.5-3.7-4.2-7.2c0.6-7.8,4.2-13.8,10.2-18.6
		c0.2,0.1,0.5,0.3,0.7,0.4c-1.7,2.7-3.3,5.5-5.2,8.1c-2.9,3.9-3,8.3-2.8,12.7c0,0.9,1.4,2.2,2.5,2.6c1.9,0.7,4,1,6.1,1.1
		c8.3,0.1,16.6,0,24.9,0C297.9,518.3,298,518.6,298.1,518.8z"/>
	<path class="st0" d="M520.1,412.8c-2.4,0.8-4.9,1.6-7.1,2.3c14.7-0.9,29.7-1.8,44.6-2.6c0,0.2,0,0.4,0,0.6
		c-19.2,2-38.4,3.9-57.6,6.1c-6,0.7-12,2.6-18,3.2c-5.8,0.6-11.6,0.1-14.6,0.1C483.2,419.7,501.6,416.3,520.1,412.8z"/>
	<path class="st0" d="M159.2,468.5c-3.1-5.8-6.6-11.5-9.1-17.6c-3.3-8-6.1-16.1-8.6-24.4c-3-10-4.4-20.3-0.3-30.5
		c0.4-1,1.1-1.8,2.1-2.6c-0.6,2.9-1.5,5.7-1.8,8.6c-0.9,9.6,0.9,18.8,4.1,27.8c1.9,5.3,3.2,10.9,5,16.3c1.2,3.6,2.7,7,4.3,10.4
		c1.7,3.8,3.6,7.5,5.4,11.3C160,468.1,159.6,468.4,159.2,468.5z"/>
	<path class="st0" d="M299.7,652.2c-0.7-0.9-1.8-1.7-2.1-2.7c-2-5.3-3.1-10.9-2.8-16.6c0.3-5,2.9-9.2,7-11.5c6.1-3.5,7.1-9,7.6-15.1
		c0.2-2,0.5-4,0.6-6.1c0.1-3.5,0-7.1,0-11.3c1,1,2.2,1.6,2.5,2.5c1.3,4.3,1.8,8.6-1.3,12.6c-0.4,0.5-0.4,1.2-0.4,1.8
		c-0.1,1.1-0.1,2.2,0,3.3c0.3,6.4-2.1,11.2-7.8,14.6c-4.5,2.7-6,7-5.4,12c0.5,4.2,1.5,8.3,2.2,12.4c0.2,1.3,0.5,2.5,0.7,3.8
		C300.1,652,299.9,652.1,299.7,652.2z"/>
	<path class="st0" d="M180,650c0.5,0,1.1,0,1.6,0.1c0.3,0.1,0.4,0.4,1,0.9c-1.9,1.2-3.7,2.3-5.4,3.6c-0.9,0.7-2.1,1.9-2,2.9
		c0.1,5,0.6,9.9,0.9,15.2c3.1-0.8,5.9-1.4,9-2.2c-4,10.2-6.9,20.1-7.6,30.6c-2.5-4.6-1.9-9.3-0.7-13.8c1.2-4.5,3-8.7,4.8-13.7
		c-1.4,0.4-2.3,0.6-3.1,0.8c-2.9,0.9-4.6,0-5.1-3c-0.6-3.9-1-7.8-1.3-11.7c-0.2-3.3,0.1-6.3,4.1-7.5
		C177.7,651.9,178.8,650.7,180,650L180,650z"/>
	<path class="st0" d="M456.1,439.9c13.6,1.8,27.1,4.2,40.7,5.1c13.6,0.9,27.3,0.2,41,0.5C510.3,448.1,482.8,449.9,456.1,439.9z"/>
	<path class="st0" d="M63,470.9c5-2.1,10.5-2.3,15.9-2.4c2.2-0.1,4.4,0,6.5-0.5c4.1-1,5.1-4,2.8-7.6c-0.5-0.8-0.9-1.5-1.5-2.5
		c2.6,0.1,5.2,2.8,5.3,5.6c0.3,6.5-5.5,5.5-8.9,7.2c3.4,4,7.2,7.8,10.2,12.1c3,4.2,5.2,9,3.9,14.7c-0.4-0.6-1-1.1-1.1-1.8
		c-1.6-6.8-4.9-12.6-9.3-17.8c-1.6-1.9-3.3-3.8-5.3-5.2c-1.3-1-3.2-1.7-4.9-1.7c-4.4,0-8.9,0.6-13.3,0.9
		C63.1,471.6,63.1,471.3,63,470.9z"/>
	<path class="st0" d="M399.2,406.3c-18.2,0.3-36.5,2.2-54.5-2.4c18.2,0.5,36.4,0.9,54.6,1.4C399.2,405.7,399.2,406,399.2,406.3z"/>
	<path class="st0" d="M402,388.2c-20.5,4.9-41.2,6.8-62,7.3c0-0.3-0.1-0.6-0.1-1C360.6,392.5,381.3,390.4,402,388.2z"/>
	<path class="st0" d="M109.2,563c-12.5,1.4-23.6,7-35.3,10.8C76.4,566.9,103.4,558.6,109.2,563z"/>
	<path class="st0" d="M202.5,555.2c0.1-2,0.1-4,0.4-5.9c2.1-13,4.2-26.1,14.7-35.8c-8.2,12.7-11,27.3-14.1,41.8
		C203,555.3,202.8,555.2,202.5,555.2z"/>
	<path class="st0" d="M214.4,258.3c-4.9-12.9-2.9-26.3-3.8-39.5c0.3-0.1,0.6-0.2,1-0.4c0.4,0.8,1.2,1.5,1.3,2.2
		C213.4,233.2,213.9,245.7,214.4,258.3z"/>
	<path class="st0" d="M85.8,501c4.6,0,8.4,0,12.2,0c0,0.3,0,0.6,0,0.9c-2.1,0.2-4.2,0.4-7.1,0.7c7.8,6,11.4,14.1,13.8,22.8
		c0.3,1-0.2,2.2-0.9,3.6C101.1,517.8,95.4,508.5,85.8,501z"/>
	<path class="st0" d="M275.9,464.3c-0.8,1.7-1.4,3.5-2.5,5c-3.7,4.7-6.9,9.5-7.3,15.8c-0.2,3.2,1.5,4,4.2,3.7
		c3.2-0.3,6.5-0.6,9.8-0.9c0.4,0,0.8,0.2,1.2,0.3c0,0.3,0.1,0.6,0.1,0.9c-1.9,0.4-3.8,0.9-5.7,1.1c-2.8,0.3-5.7,0.7-8.5,0.5
		c-1.1-0.1-2.8-1.6-3-2.7c-1.3-7.1,0.9-13.3,6-18.4C272.1,467.8,274.1,466.1,275.9,464.3C276,464.4,275.9,464.3,275.9,464.3z"/>
	<path class="st0" d="M138.3,620.8c2.6,1.8,5.1,3.9,7.9,5.3c4.4,2.2,9.1,4.1,13.7,5.8c0.9,0.3,2.6-0.7,3.6-1.5
		c2.5-1.9,4.5-4.6,8-4.8c0.2,0.3,0.4,0.6,0.7,0.9c-3.2,2.6-6.4,5.2-9.7,7.7c-0.4,0.3-1.3,0.4-1.9,0.2c-8.2-2-16-4.7-21.9-11.2
		c-0.4-0.5-0.6-1.1-0.9-1.7C137.9,621.3,138.1,621.1,138.3,620.8z"/>
	<path class="st0" d="M317.8,141.3c1.4,0.2,2.8,0.5,4.5,0.8c-5.1-4.6-12-6.6-15.7-12.3c0.2-0.2,0.4-0.5,0.6-0.7
		c4.8,3.2,9.4,6.9,14.4,9.7c5.1,2.8,10.7,5,16.9,4C333,146,323.3,145.4,317.8,141.3z"/>
	<path class="st0" d="M504.1,333.3c2.4-5,6.9-8,11.2-10.9c10.5-7.1,21.2-14.1,31.7-21C534.6,314.3,517.5,321.3,504.1,333.3z"/>
	<path class="st0" d="M323.8,381.1c1-1.3,2-2.3,2.7-3.4c2.6-4,2.5-4-1.3-7.1c-3.3-2.7-6.7-5.5-9.8-8.5c-1.8-1.7-3.1-4-4.7-6
		c0.2-0.2,0.4-0.4,0.6-0.6c1.2,1,2.5,2.1,3.7,3.1c5.1,4.5,10.2,9,15.3,13.6c0.6,0.5,1.4,2,1.1,2.3c-2,2.4-4.1,4.6-6.2,6.8
		C325,381.5,324.5,381.2,323.8,381.1z"/>
	<path class="st0" d="M77.2,575.4c0.7,0.8,1.5,1.6,1.9,2.6c2.3,4.6,4.2,9.5,6.8,13.9c2,3.3,4.9,6,7.4,8.9
		C85.9,600.7,77.5,585.3,77.2,575.4z"/>
	<path class="st0" d="M232.6,165.6c1.4,9,1.5,18,0.2,27.1c-3.3-8.9-1.6-18-1.8-27.1C231.5,165.7,232,165.7,232.6,165.6z"/>
	<path class="st0" d="M387.3,413.3c-12.6,2.7-26.3,4.3-40,0C360.9,413.3,374.5,413.3,387.3,413.3z"/>
	<path class="st0" d="M276,464.4c-2.5-5.8-2.3-11.4,1.5-15.3c-0.2,2-0.4,4.1-0.6,6.1c-0.2,1.3-0.7,2.5-0.7,3.8c0,3,1.4,3.9,4.3,3.5
		c3.9-0.6,7.8-0.9,11.6-1.2c0.6,0,1.3,0.4,2,0.6c0,0.3,0,0.5,0,0.8c-6,0.6-12.1,1.2-18.1,1.8C275.9,464.3,276,464.4,276,464.4z"/>
	<path class="st0" d="M50.3,546.3c-0.2,8-1.4,16.2,4.3,23.3c-6.1-2-7.7-6.1-7.1-17.9C47.6,547.8,48.1,546.8,50.3,546.3z"/>
	<path class="st0" d="M476.3,456.3c13.5,2.1,27.1,4.3,38.5,6.1C507.7,463.5,484,460.6,476.3,456.3z"/>
	<path class="st0" d="M396,409c-14.7,3.7-29.9,2.4-44.9,2c0-0.3,0-0.7,0-1C366,409.6,381.1,409.3,396,409z"/>
	<path class="st0" d="M216.2,207.1c-3.5-9.3-0.5-18.4,1-27.6c0,9.2,0,18.4,0,27.6C216.9,207.1,216.5,207.1,216.2,207.1z"/>
	<path class="st0" d="M368.7,474.5c10.5,7.1,20.9,14.2,31.4,21.3c-0.2,0.3-0.4,0.6-0.6,0.9c-10.6-6.9-21.1-13.9-31.7-20.8
		C368.1,475.5,368.4,475,368.7,474.5z"/>
	<path class="st0" d="M193,249.2c0-8.4,0-16.6,0-24.8C196.2,226.3,196.3,243.3,193,249.2z"/>
	<path class="st0" d="M337.5,376.4c2.5-1.4,4.9-2.9,7.7-4.5c-3.1-3.6-6.1-7.2-9.2-10.7c0.3-0.3,0.6-0.6,0.9-0.9
		c1.5,1.2,3.1,2.2,4.5,3.6c2.1,2,4.1,4.1,5.9,6.4c0.5,0.6,0.5,2.6,0,2.9c-2.9,1.7-6,3.1-9.1,4.5
		C337.9,377.3,337.7,376.9,337.5,376.4z"/>
	<path class="st0" d="M172.1,253.8c0.7,7.2,1.4,14.7,2.1,22.2C169.8,274.2,168.5,260,172.1,253.8z"/>
	<path class="st0" d="M383,133.6c-6.8-5.4-15.4-4.7-23.3-6.3c0-0.3,0.1-0.6,0.1-0.9c2.8,0.2,5.5,0.3,8.8,0.5
		c-1.3-1.9-2.2-3.3-3.3-4.7c0.5-0.1,1-0.3,1.1-0.2c2.7,3.7,6.8,4.9,10.9,6.4C379.6,129.1,381.2,131.7,383,133.6z"/>
	<path class="st0" d="M73.9,532.5c9.3-0.7,18.5-1.5,28.2-2.3C100,532.7,77.9,534.7,73.9,532.5z"/>
	<path class="st0" d="M301.4,550.3c-7.6-2.7-15-5.4-22.4-8.1C283,539.7,298.5,545.2,301.4,550.3z"/>
	<path class="st0" d="M398.6,471.2c-11.2-4.8-22.4-9.7-33.7-14.5c12.3,2.4,23,8.8,34.2,13.7C398.9,470.7,398.8,470.9,398.6,471.2z"
		/>
	<path class="st0" d="M408.9,709.5c-8.5,1.5-16.9,3-25.7,4.5C385.9,710.3,402.9,707.5,408.9,709.5z"/>
	<path class="st0" d="M338.6,136.6c-0.9-0.1-1.9-0.2-3-0.4c-0.9,2.6-2,3.2-4.6,1.5c-2-1.4-4.7-2-6.9-3.3c1,0.2,2.1,0.3,3.5,0.5
		c-0.8-1.4-1.5-2.5-2.2-3.6c0.1-0.2,0.2-0.4,0.3-0.7c4.4,1.8,8.7,3.5,13.1,5.3C338.7,136.1,338.7,136.4,338.6,136.6z"/>
	<path class="st0" d="M133.8,348c0.8,8.1-1.6,15.6-4.6,23C130.9,363.4,130.4,355.3,133.8,348z"/>
	<path class="st0" d="M258.4,611.9c-7.5-3.3-14.4-6.4-21.4-9.5C241.3,600.8,253.8,606.2,258.4,611.9z"/>
	<path class="st0" d="M131.3,390.2c-2.9,7.1-5.7,14-8.6,21.2C121.4,406.5,127.6,390.8,131.3,390.2z"/>
	<path class="st0" d="M578,528.1c3.7,2,7.4,3.9,11.1,5.9c0.5,0.3,1.2,0.7,1.5,1.2c1,1.8-2.1,7.3-4.9,8c0.5-1.2,0.8-2.1,1.3-2.9
		c1.7-3.1,1.3-4.4-1.7-6.1c-2.7-1.5-5.4-3.2-8.1-4.8C577.5,528.9,577.8,528.5,578,528.1z"/>
	<path class="st0" d="M213.1,543.5c1.6-8,3.2-16,4.8-24c0.6,0.1,1.2,0.2,1.8,0.4c-1.8,8-3.5,15.9-5.2,23.9
		C214,543.6,213.6,543.6,213.1,543.5z"/>
	<path class="st0" d="M178.9,706c5.7-2.2,10.9-5,14.4-10.4c0.8,3.2-0.9,5.6-2.9,7C187.1,704.9,183.6,707.2,178.9,706z"/>
	<path class="st0" d="M514.6,253.8c-5.7,5.9-11.4,11.8-17.1,17.7c-0.5-0.5-1-1-1.6-1.6c5.9-5.8,11.8-11.6,17.6-17.4
		C513.9,253,514.2,253.4,514.6,253.8z"/>
	<path class="st0" d="M295.4,181.1c-2-0.4-4-0.9-6.4-1.4c1.4,1.2,2.5,2.2,3.6,3.2c-0.1,0.2-0.2,0.4-0.4,0.6c-3.3-1.5-6.6-3-10-4.5
		c0.4-0.2,1.1-0.6,1.9-1.1c-0.9-0.5-1.7-0.9-2.4-1.4c0-0.4,0.1-0.6,0.1-0.7c4.6,1.5,9.1,2.9,13.7,4.4
		C295.6,180.5,295.5,180.8,295.4,181.1z"/>
	<path class="st0" d="M223.4,625c7.8,2.1,14.6,4,21.4,5.8C237.1,632.2,230.4,630,223.4,625z"/>
	<path class="st0" d="M217.6,589.1c2,2.2,3.7,4.8,6.1,6.3c2.4,1.5,5.4,2,8.1,3C225.9,602.1,218.5,595.8,217.6,589.1z"/>
	<path class="st0" d="M364.7,449.1c0.1-3.3,2.5-4.7,4.5-5.6c5.5-2.3,11.2-4,16.8-6c0.1,0.3,0.2,0.7,0.4,1c-3.8,1.3-7.7,2.2-11.2,4
		C371.5,444.2,368.3,446.7,364.7,449.1z"/>
	<path class="st0" d="M293.1,670c-3.3,4.7-6.7,10.5-13.1,13.4c-0.4-0.4-0.9-0.8-1.3-1.3C283.7,677.9,288.8,673.6,293.1,670z"/>
	<path class="st0" d="M347.4,198.4c-8.8,0.7-17.6,1.4-26.5,2c0-0.5-0.1-1-0.1-1.4c8.8-0.6,17.7-1.2,26.5-1.8
		C347.4,197.6,347.4,198,347.4,198.4z"/>
	<path class="st0" d="M220.7,481.3c4.4-8.9,8.9-17.9,13.3-26.8c0.3,0.2,0.7,0.3,1,0.5c-4.4,8.9-8.9,17.9-13.3,26.8
		C221.4,481.6,221.1,481.4,220.7,481.3z"/>
	<path class="st0" d="M378.3,660c6.3,0,12.7,0,19,0c0,0.3,0,0.6,0,0.9c-6.3,0.3-12.6,0.5-18.8,0.8
		C378.5,661.1,378.4,660.5,378.3,660z"/>
	<path class="st0" d="M547.5,518.4c3.7,0.5,7.5,0.6,11,1.7c1.4,0.4,2.2,3.1,2.8,4.9c0.3,0.8-0.4,1.9-1.3,3c0.5-7-4.3-7-8.8-7.6
		c-1.4-0.2-2.7-0.6-4.1-1C547.4,519.1,547.5,518.8,547.5,518.4z"/>
	<path class="st0" d="M180.1,649.9c-3.7-3.1-7.4-6.1-11.1-9.2c-0.9-0.8-1.9-1.6-2.5-2.8C172.3,640.4,177.6,643.6,180.1,649.9
		C180,650,180.1,649.9,180.1,649.9z"/>
	<path class="st0" d="M177.4,399.8c-1.1,7.4-2.2,14.8-3.4,22.3C172.3,414.1,174.9,407,177.4,399.8z"/>
	<path class="st0" d="M466.3,292c5.1-3.2,10.3-6.5,15.4-9.7c0.2,0.3,0.4,0.6,0.6,0.9c-5,3.4-10,6.9-15,10.3
		C467,293,466.6,292.5,466.3,292z"/>
	<path class="st0" d="M353.5,135c6.4,0,12.9,0,19.3,0c0,0.3,0,0.6,0,0.9c-6.4,0-12.9,0-19.3,0C353.5,135.6,353.5,135.3,353.5,135z"
		/>
	<path class="st0" d="M507.7,305.6c-5.3,3.6-10.6,7.3-15.9,11c-0.3-0.5-0.6-0.9-0.9-1.4c5.4-3.5,10.8-6.9,16.2-10.4
		C507.4,305.1,507.6,305.4,507.7,305.6z"/>
	<path class="st0" d="M58.5,470.8c-4.3,0.5-8.6,1.1-12.9,1.6c0-0.4-0.1-0.7-0.2-1.1c4.2-1.7,8.4-2.4,12.9-2
		C58.3,469.8,58.4,470.3,58.5,470.8z"/>
	<path class="st0" d="M246.6,271.1c-1.4-4.7-0.5-12.7,2.5-18.2C248.3,259,247.4,265.1,246.6,271.1z"/>
	<path class="st0" d="M280.7,364.9c-1.5,4.9-2.9,9.8-4.4,14.7c-0.1-5.4,0.6-10.6,3.5-15C280.1,364.7,280.4,364.8,280.7,364.9z"/>
	<path class="st0" d="M232.8,351.5c-0.7-7.5,0.8-17.1,3.5-20.8C235,338.1,233.8,345.5,232.8,351.5z"/>
	<path class="st0" d="M387.4,686.2c4.5,1.2,8.9,2.4,13.4,3.6c-0.1,0.4-0.2,0.8-0.3,1.2c-4.5-1-9-2-13.5-3
		C387,687.4,387.2,686.8,387.4,686.2z"/>
	<path class="st0" d="M256.4,710.3c3.4-4.3,6.2-7.9,9.3-11.8C265.5,702.6,261,708.7,256.4,710.3z"/>
	<path class="st0" d="M284.5,132.9c-1.9,3-3.7,5.9-5.7,9.2C277.4,137.6,280,133.6,284.5,132.9z"/>
	<path class="st0" d="M61.3,501.3c4.3,0,8.5,0,12.8,0C69.9,503,65.6,504,61.3,501.3z"/>
	<path class="st0" d="M331.8,358.4c-3.9-1.6-7.7-3.2-11.6-4.8c0.2-0.5,0.4-1,0.6-1.5c3.9,1.5,7.8,3,11.7,4.4
		C332.3,357.2,332,357.8,331.8,358.4z"/>
	<path class="st0" d="M379.3,622.2c3.9-0.5,7.8-0.9,11.6-1.3c0.1,0.5,0.1,1,0.2,1.5c-3.9,0.5-7.7,1-11.6,1.5
		C379.4,623.3,379.4,622.7,379.3,622.2z"/>
	<path class="st0" d="M312.1,99.2c2.4,3.6,4.6,7.1,6.8,10.3C315.2,109.1,311.9,104.4,312.1,99.2z"/>
	<path class="st0" d="M175.4,301c-0.3-4-0.5-8-0.8-12c0.4,0,0.8-0.1,1.3-0.1c0.5,4,0.9,8,1.4,12C176.7,301,176,301,175.4,301z"/>
	<path class="st0" d="M316.5,436.4c4,1,8,2.1,12,3.1c-0.1,0.4-0.2,0.9-0.3,1.3c-4-0.9-8-1.8-12-2.7
		C316.3,437.5,316.4,437,316.5,436.4z"/>
	<path class="st0" d="M300.3,461c4.5-1.5,8.9-1.4,13,1.4C309,461.9,304.7,461.4,300.3,461z"/>
	<path class="st0" d="M567.8,524.2c1.2,5.3,2.3,10,3.3,14.8c-0.4,0.1-0.7,0.1-1.1,0.2C568,534.6,567.7,529.8,567.8,524.2z"/>
	<path class="st0" d="M295,115.8c-2.7,3-4.8,5.5-7,7.9C287.4,119.6,290.7,116.1,295,115.8z"/>
	<path class="st0" d="M209.3,334.6c-0.4-3.9,3.4-10.2,7.2-12.1C214.2,326.3,211.7,330.5,209.3,334.6z"/>
	<path class="st0" d="M317.4,227.9c4.5-2.2,9-4.4,13.4-6.6c0.1,0.3,0.3,0.6,0.5,1c-4.5,2.2-9,4.3-13.5,6.5
		C317.7,228.4,317.5,228.1,317.4,227.9z"/>
	<path class="st0" d="M457.2,183.6c-0.6,4.5-6.8,5.2-6.3,10.2c-0.5-1.5-1.1-3-1.4-3.7C452.3,187.8,454.6,185.8,457.2,183.6z"/>
	<path class="st0" d="M430.8,191.7c1.1-3,2.3-6.1,3.5-9.1c1.5,4-0.8,6.8-2.7,9.7C431.3,192.1,431.1,191.9,430.8,191.7z"/>
	<path class="st0" d="M68,535.7c-4.7,0-9.3,0-14,0c0-0.2,0-0.5,0-0.7c4.7,0,9.3,0,14,0C68,535.2,68,535.5,68,535.7z"/>
	<path class="st0" d="M196.7,429.6c-1.1,5.5-2.3,11-3.4,16.5c-0.3,0-0.6-0.1-0.9-0.2c1.2-5.5,2.4-10.9,3.6-16.4
		C196.3,429.5,196.5,429.6,196.7,429.6z"/>
	<path class="st0" d="M213.6,631c-3,1.4-5.9,2.7-8.9,4.1C205.7,631.5,210.7,629.2,213.6,631z"/>
	<path class="st0" d="M210.6,693.6c-3.2,1.5-6.3,3-9.7,4.5C201.3,695.7,206.2,693.2,210.6,693.6z"/>
	<path class="st0" d="M296.7,102.8c2.5,2.7,4.9,5.3,7.5,8.2C299.2,109.3,296.7,106.6,296.7,102.8z"/>
	<path class="st0" d="M45.2,454.8c-3.5,1.8-6.9,3.5-10.3,5.3c-0.2-0.4-0.4-0.9-0.7-1.3c3.5-1.7,7-3.3,10.5-5
		C44.9,454.1,45.1,454.4,45.2,454.8z"/>
	<path class="st0" d="M277.8,131.9c-2.6,2.5-5.2,5-8.1,7.8C271.9,133.5,273.6,131.9,277.8,131.9z"/>
	<path class="st0" d="M567.4,512.2c-3.8-1.3-7.7-2.6-11.5-3.9c0.2-0.4,0.3-0.8,0.4-1.3c3.8,1.4,7.6,2.9,11.3,4.3
		C567.6,511.6,567.5,511.9,567.4,512.2z"/>
	<path class="st0" d="M300.7,490.9c-3.4-0.4-6.7-0.7-10.1-1.1c0.1-0.5,0.1-1,0.2-1.5c3.4,0.4,6.7,0.7,10.1,1.1
		C300.8,489.9,300.8,490.4,300.7,490.9z"/>
	<path class="st0" d="M344.8,193.5c4.7,0.7,9.4,1.3,14.1,2c0,0.2-0.1,0.5-0.1,0.7c-4.7-0.5-9.4-1-14.1-1.5
		C344.7,194.4,344.8,193.9,344.8,193.5z"/>
	<path class="st0" d="M521.9,287.5c3.7-3.3,7.3-6.6,11-9.9c0.2,0.2,0.4,0.5,0.6,0.7c-3.7,3.3-7.4,6.5-11.1,9.8
		C522.2,287.9,522.1,287.7,521.9,287.5z"/>
	<path class="st0" d="M186.1,644.8c2.8-1.6,5.6-3.2,8.4-4.8c0.2,0.4,0.4,0.7,0.6,1.1c-2.8,1.6-5.6,3.2-8.4,4.8
		C186.5,645.5,186.3,645.1,186.1,644.8z"/>
	<path class="st0" d="M485.6,499.8c2-3.1,3.6-5.5,5.5-8.6C490.2,497.2,489.2,498.9,485.6,499.8z"/>
	<path class="st0" d="M402.4,142.4c-3.6,2.2-4.6,1.6-5.9-3.7C398.4,139.9,400.5,141.2,402.4,142.4z"/>
	<path class="st0" d="M395.3,114.6c4.2,1.4,8.5,2.8,12.7,4.2c-0.2,0.4-0.3,0.8-0.5,1.3c-4-1.9-8.1-3.7-12.1-5.6
		C395.4,114.6,395.3,114.6,395.3,114.6z"/>
	<path class="st0" d="M242.8,285.9c0.6,4.2-2.6,8.5,2,11.8c-1.1-0.4-2.5-0.5-3.1-1.2c-0.6-0.8-0.6-2.3-0.4-3.4
		C241.6,290.9,242.2,288.8,242.8,285.9z"/>
	<path class="st0" d="M307.9,238.6c-3,1.9-5.9,3.7-8.9,5.6c-0.2-0.3-0.4-0.6-0.5-0.9c3-1.9,5.9-3.8,8.9-5.7
		C307.5,237.9,307.7,238.3,307.9,238.6z"/>
	<path class="st0" d="M231.5,359c-1.3,4-2.6,8-3.9,12c-0.3-0.1-0.7-0.2-1-0.3c1.4-4,2.8-7.9,4.2-11.9
		C231.1,358.9,231.3,358.9,231.5,359z"/>
	<path class="st0" d="M73.8,397.8c-2.1-1.8-4.2-3.6-6.8-5.8C70.2,391.7,71.9,393.2,73.8,397.8z"/>
	<path class="st0" d="M444.2,313.4c2.5-1.6,5-3.3,7.6-5c0.1,0.2,0.3,0.4,0.4,0.5c-2.4,1.9-4.8,3.7-7.1,5.5
		C444.7,314.2,444.5,313.8,444.2,313.4z"/>
	<path class="st0" d="M143.7,613.4c-0.8,1.6-1.5,3.2-2.2,4.8c-0.5-0.3-1.1-0.5-1.6-0.8c0.8-1.6,1.6-3.2,2.5-4.7
		C142.8,613,143.2,613.2,143.7,613.4z"/>
	<path class="st0" d="M52.6,446.7c-2.9,0.3-5.8,0.5-8.7,0.8c0-0.4,0-0.7-0.1-1c2.9-0.1,5.8-0.3,8.7-0.4
		C52.6,446.2,52.6,446.5,52.6,446.7z"/>
	<path class="st0" d="M289.9,142.8c1.3-1.6,2.7-3.1,4-4.7c0.3,0.2,0.6,0.5,1,0.7c-1.2,1.6-2.5,3.3-3.7,4.9
		C290.7,143.5,290.3,143.1,289.9,142.8z"/>
	<path class="st0" d="M419.6,197.4c2.8,0.5,5.5,0.9,8.3,1.4c0,0.2,0,0.4-0.1,0.6c-2.8-0.3-5.5-0.5-8.3-0.8
		C419.6,198.2,419.6,197.8,419.6,197.4z"/>
	<path class="st0" d="M62.1,134.5c-0.3,0.9-0.6,1.8-0.8,2.8c-1.5,6.9-2.9,13.8-4.4,20.7c-1.7,7.9-3.7,15.8-5.2,23.8
		c-0.9,4.7-1.1,9.6-1.4,14.4c-0.6,9-1.2,18.1-1.5,27.1c-0.1,2.9,1.1,5.8,1.8,9.2c-1.3,1-2.8,0.7-3.3-1.5c-0.8-4.5-2-9-1.8-13.5
		c0.7-12.5,1.5-25.1,3.2-37.5c1.4-10.2,3.7-20.3,6.4-30.2c2.9-10.4,6.9-20.5,10.1-30.8c1.4-4.6,1.7-9.6,2.9-14.3
		c3-11.9,5.5-23.9,9.5-35.4c3.3-9.5,8.2-18.5,12.8-27.6c1.7-3.4,4.3-6.3,7.1-9c-1.9,3.3-3.8,6.7-5.6,10c-1.6,2.8-3.4,5.5-4.6,8.5
		c-2.9,7.6-5.8,15.2-8.1,23c-2.7,9.5-5,19.1-7,28.7c-2.2,10.5-4.1,21-5.8,31.6c-1.4,8.1-2.3,16.2-3.6,24.3
		c-0.6,3.6-1.5,7.2-2.5,10.8c-0.2,0.6-1.1,1-1.6,1.6c-0.3-0.7-0.9-1.6-0.7-2.2c2.9-8.5,2.2-17.5,3.7-26.1c0.2-1.2,0.7-2.3,0.9-3.5
		c0.2-1.5,0.3-3.1,0.5-4.6C62.8,134.5,62.4,134.5,62.1,134.5z"/>
	<path class="st0" d="M21.2,273.3c-3.2-11.1-5.1-22.4-4.9-34.1c1.4,6.9,2.4,13.9,4.3,20.6c1.8,6.7,4.5,13.2,6.7,19.9
		c0.2,0.7-0.5,1.7-1,3.1c5.1,6,10.4,12.4,16.3,19.4c-15.8-11.5-25.2-27-32-44c-5.2-12.9-7.9-26.5-9.4-40.4
		C6.8,236.6,9.9,256.4,21.2,273.3z"/>
	<path class="st0" d="M22.1,132.7c0-0.9,0-1.9,0-2.8c0.2-4.1,0.2-8.1,0.7-12.1c1.1-9.3,1.6-18.8,3.8-27.9c2.3-9.9,5.7-19.6,9.6-28.9
		c4.6-10.9,9.9-21.5,17-31.1c2.5-3.4,4.6-7,7.5-10.2c-1.2,2.4-2.4,4.7-3.8,7.1c-3.5,6.3-7.2,12.5-10.6,18.8
		c-1.5,2.7-2.8,5.4-3.8,8.3c-3.9,10.8-7.9,21.5-11.5,32.4c-3.7,11.2-5.1,22.9-5.6,34.8c-0.1,3.3-0.5,6.6-0.9,9.8
		c-0.1,0.9-0.8,1.6-1.2,2.4C22.8,132.9,22.5,132.8,22.1,132.7z"/>
	<path class="st0" d="M87.1,6.5c-2.8,4.3-5.6,8.7-8.4,13c-2.8,4.4-5.9,8.5-8.1,13.1c-4.9,10.1-9,20.6-14.1,30.6
		c-2.7,5.4-1.9,11-2.5,16.5c-0.5,4.8-0.2,9.6-0.3,14.4c0,1.3-0.4,2.7-0.6,4c-0.3,0-0.7,0-1-0.1c0-6.9,0-13.7,0-20.6
		c-0.3,0-0.5-0.1-0.8-0.1c-2,7.3-4,14.6-6,22.2C41.3,89.9,60.7,32.7,87.1,6.5z"/>
	<path class="st0" d="M21.5,251.2c-0.4-0.9-1-1.8-1.1-2.8c-1.8-8.7-3.3-17.5-5.3-26.2c-2-8.8-4.7-17.4-6.3-26.2
		C7,186.6,6.2,177,5,167.5c-1.4-11,0.9-21.8,2.1-32.6c0.2-1.9,1.2-3.6,2.2-5.3c-0.7,4.8-1.9,9.6-2,14.4c-0.2,10.2-0.3,20.4,0.3,30.5
		c0.4,6.5,1.7,13,3,19.4c2,9.4,4.2,18.8,6.8,28.1c2.6,9.4,5,18.8,5.1,28.6C22.2,250.9,21.8,251,21.5,251.2z"/>
	<path class="st0" d="M30.6,139.1c-6.2,34.9-2.6,69.3,3.3,103.9c-2.2,0.8-2.3-1-2.5-2.4c-1.1-6.2-2.2-12.4-3.3-18.6
		c-2.9-15.3-3.6-30.8-3.2-46.4c0.2-6.7,0.7-13.4,1.7-19.9C27.4,150.1,29.2,144.6,30.6,139.1z"/>
	<path class="st0" d="M56.7,299.7c-3.1-6.7-3.1-13.9-2.8-20.9c0.3-7.2,0.9-14.4,1.4-21.5c0.3,0,0.6,0,0.9,0c0,2,0,4,0,6
		c0,7.2,0,14.4,0.1,21.7c0,2.2,0.1,4.4,0.7,6.5c1.9,6.6,4.1,13.2,6.1,19.8c0.7,2.3,0.6,4.8,1.6,7c2.6,5.8,5.6,11.4,8.4,17
		c0.3,0.6,0.6,1.1,0.9,1.6c-0.2,0.2-0.4,0.4-0.7,0.5c-1.7-2-3.7-3.9-4.9-6.2c-2.6-4.9-4.6-10-7-15c-4.1-8.2-8.3-16.3-12.5-24.4
		c-2.5-4.9-5-9.7-7.5-14.6c0.2-0.1,0.5-0.3,0.7-0.4c4.6,7.7,9.2,15.4,13.9,23C56.1,299.8,56.4,299.8,56.7,299.7z"/>
	<path class="st0" d="M132,34.9c-1.7,2.3-3.4,4.6-5.1,6.9c-5.2,7.2-10.5,14.2-15.5,21.5c-7,10.2-13.8,20.6-20.7,30.9
		c-0.7,1.1-2.3,2.9-2.4,2.9c-2.5-1.6,0.2-2.9,0.8-3.9c2.5-4.6,5.5-9,8.3-13.4c2.6-4.1,5-8.4,7.8-12.3c4.8-6.7,9.7-13.2,14.7-19.6
		c3.6-4.6,7.5-9,11.3-13.5C131.5,34.5,131.8,34.7,132,34.9z"/>
	<path class="st0" d="M40.6,216.6c-7-16.1-10.4-32.9-8.8-51.1c0.4,4.3,0.5,8.1,1.1,11.9c1.9,10.9,3.7,21.9,7.6,32.4
		c0.8,2.1,0.8,4.4,1.1,6.7C41.3,216.5,40.9,216.5,40.6,216.6z"/>
	<path class="st0" d="M26.1,311.9c12.1,12.9,21.6,28.6,39,36.1c-7.1-0.8-12.2-4.7-17.1-9c-7.7-6.9-14.5-14.8-20.2-23.5
		c-0.7-1-1.5-2-2.3-3C25.7,312.3,25.9,312.1,26.1,311.9z"/>
	<path class="st0" d="M18.6,325.8c9,9.9,17.9,19.8,26.8,29.6C34.2,347.7,26,337.2,18.6,325.8z"/>
	<path class="st0" d="M43.5,186.3c1.1-12.9,2.2-25.8,3.3-38.8c0.5,0,0.9,0.1,1.4,0.1c-1.1,12.9-2.2,25.8-3.3,38.8
		C44.4,186.4,44,186.3,43.5,186.3z"/>
	<path class="st0" d="M19.5,365.9c11.2,1.5,20.9,6.4,30.2,12.5C39.7,374.3,29.6,370.1,19.5,365.9z"/>
	<path class="st0" d="M32.7,410.4c-5.1,4.9-11.8,7-18,10c-0.1-0.2-0.3-0.5-0.4-0.7c5.9-3.4,11.8-6.9,17.7-10.3
		C32.2,409.7,32.4,410,32.7,410.4z"/>
	<path class="st0" d="M72.7,159.8c-2.2,0.7-3.8,0.3-4.7-1.8c-1.4-3.5,0.9-8.8,4.9-10.6C71.2,151.6,68,155.6,72.7,159.8z"/>
	<path class="st0" d="M73.2,180.6c0.3-2.9,0.6-5.9,0.8-8.9c0.5,0.1,1.1,0.1,1.6,0.2c-0.5,2.9-1,5.8-1.4,8.7
		C73.9,180.7,73.6,180.6,73.2,180.6z"/>
	<path class="st0" d="M228.2,114.6c11,1.4,22.3-0.2,32.9,4.7c-11-1.1-22-2.2-33-3.3C228.2,115.6,228.2,115.1,228.2,114.6z"/>
	<path class="st0" d="M211.3,118.3c-4.4,1.1-20.5-3.6-28.2-8C192.5,112.9,201.9,115.6,211.3,118.3z"/>
	<path class="st0" d="M229.4,122.4c-0.8-0.5-1.6-1-2.4-1.5c7.4,0.9,14.7,1.8,22.6,2.8c-6,2.6-11.7,0.8-17.3-0.1
		C231.3,123.2,230.4,122.8,229.4,122.4z"/>
	<path class="st0" d="M229.4,122.4c1,0.4,1.9,0.8,2.9,1.2c0.4,0.3,0.8,0.7,1.1,1.1c-0.2,0.3-0.3,0.7-0.5,1
		c-5.3-1.8-10.6-3.7-15.9-5.5c0.1-0.3,0.2-0.6,0.2-0.8C221.4,120.3,225.4,121.4,229.4,122.4z"/>
	<path class="st0" d="M259.2,142.8c-13.5,0-25.2,6.2-37.5,10.5C232.2,145.1,251.9,139.5,259.2,142.8z"/>
	<path class="st0" d="M246,149.4c6-1.4,11.9-2.9,17.9-4.3c0.1,0.6,0.2,1.1,0.4,1.7c-6.1,1.3-12.2,2.6-18.3,3.9
		C246,150.2,246,149.8,246,149.4z"/>
	<path class="st0" d="M174,163.7c7.7-3.2,15.9-2,23.9-1.9C190,162.4,182,163.1,174,163.7z"/>
	<path class="st0" d="M207.9,155.6c5-2.4,9.9-4.8,14.9-7.1c0.2,0.4,0.4,0.7,0.5,1.1c-4.9,2.5-9.8,4.9-14.7,7.4
		C208.4,156.5,208.2,156.1,207.9,155.6z"/>
	<path class="st0" d="M98.2,369.3c-4.7-4.1-4.9-5.2-2.6-6.9C96.4,364.7,97.3,367,98.2,369.3z"/>
	<path class="st0" d="M236.3,101.2c-10.9-3.9-22.1-6.8-32-13.4c0.5,0.1,1,0.3,1.5,0.4c10.4,1.8,19.4,7.3,29.2,10.9
		c0.6,0.2,1.2,0.7,1.8,1C236.6,100.5,236.4,100.9,236.3,101.2z"/>
	<path class="st0" d="M264.8,105.3c-3.7-1.2-7.3-2.4-11-3.5c0.1-0.3,0.2-0.6,0.3-0.9c3.7,1.1,7.3,2.2,11,3.3
		C265,104.6,264.9,104.9,264.8,105.3z"/>
	<path class="st0" d="M210.6,135.8c0.6,1.7,0.2,2.7-1.4,3.7c-4.7,2.9-9.8,4.1-15.9,3.7c1.1-0.7,1.7-1.1,2.8-1.7c-4.4,0-8.4,0-12.3,0
		c0-0.2,0-0.3,0-0.5c5-0.6,10.2-2.3,15-1.6C203.8,140.1,207.2,138.5,210.6,135.8C210.7,135.9,210.6,135.8,210.6,135.8z"/>
	<path class="st0" d="M170.5,140.3c4.1,1.1,8.1,2.2,12.2,3.3c-0.1,0.5-0.3,1-0.4,1.5c-4-1.2-7.9-2.5-11.9-3.7
		C170.4,141,170.4,140.7,170.5,140.3z"/>
</g>
</svg>
