<?xml version="1.0" encoding="utf-8"?>
<!-- Generator: Adobe Illustrator 26.4.1, SVG Export Plug-In . SVG Version: 6.00 Build 0)  -->
<svg version="1.1" id="Layer_1" xmlns="http://www.w3.org/2000/svg" xmlns:xlink="http://www.w3.org/1999/xlink" x="0px" y="0px"
	 viewBox="0 0 595.28 841.89" style="enable-background:new 0 0 595.28 841.89;" xml:space="preserve">
<style type="text/css">
	.st0{fill:#FFFFFF;}
</style>
<path d="M47.99,78.46h494.86v376.53c3.87,137.94-109.02,252.95-245.58,252.11c-135.43-0.84-246.4-115.32-242.55-252.11L47.99,78.46z
	"/>
<g>
	<path class="st0" d="M220.26,253.34c1.28,9.67,6.28,11.43,11.52,12.71c-0.28-0.35-0.54-0.81-0.86-1.03
		c-4.85-3.22-5.16-8.43-4.68-14.32c0.05-0.59,0.19-1.16,0.3-1.74c1.23-6.9,1.11-7.08-2.69-11.29c-1-1.11-1.63-3.06-2.53-4.81
		c2.31,1.5,4.25,2.91,6.26,4.03c2.91,1.62,4.79,3.7,6.57,7.69c2.49-3.16,2.81-8.94,0.71-13.27c-1.93-3.98-4.44-6.63-7.41-8.48
		c-2.82-1.77-5.61-3.65-7.82-7.17c-2.27-3.64-2.8-9.85-0.05-12.66c0.22,1.78,0.13,4.12,0.8,5.64c0.72,1.62,2.06,3.04,3.3,3.54
		c4.01,1.61,8.11,2.7,12.15,4.11c6.95,2.42,13.23,6.88,18.28,14.95c2.78,4.46,2.98,8.87,0.99,14.62c-0.25,0.73,0.01,2.71,0.38,2.99
		c1.03,0.78,2.31,1.57,3.37,1.29c3.16-0.83,5.02-4.95,5.17-10.65c2.54,3.79,3.12,10.36,0.73,14.27c-0.75,1.23-1.07,3.11-1.58,4.69
		c1.21,0.65,2.4,1.74,3.63,1.85c3.02,0.28,5.22-2.43,7.24-5.58c2.07-3.23,4.15-6.61,4.14-11.42c-0.01-3.07-0.45-6.4-1.31-9.14
		c-1.82-5.73-4.72-10.24-7.65-14.7c-3.32-5.06-4.53-13.62-0.32-19.38c1.91-2.62,4.1-4.95,6.4-6.64c7.11-5.21,14.7-7.51,22.44-9.47
		c7.79-1.97,15.56-2.54,23.35-1.86c5.26,0.45,10.56,1.87,15.69,3.85c5.92,2.28,11.81,5.1,17.44,8.7
		c6.74,4.31,13.06,10.1,18.37,18.07c2.68,4.02,5.03,8.59,5.73,14.56c0.24,2.03,0.19,4.14,0.29,6.67c5.54-2.74,11.29-2.34,16.97-1.77
		c5.64,0.57,11.25,2.19,16.85,3.55c2.05,0.5,4.05,1.55,6.06,2.39c5.21,2.15,9.73,6.13,13.39,12.36c2.26,3.85,5.24,5.4,8.4,6.29
		c6.84,1.92,13.69,1.84,20.51-0.22c3.93-1.18,7.82-2.75,11.77-3.68c2.19-0.52,4.58-0.76,6.68,0.08c3.15,1.26,5.56,4.63,7.14,9.23
		c3.82,11.07,7.67,22.12,11.48,33.2c1.02,2.98,1.93,6.06,2.85,9.12c0.72,2.4,0.48,4.48-0.98,6.04c-0.05,0.06-0.1,0.13-0.14,0.2
		c-2.72,3.93-2.5,5.58,1.01,7.44c0.29,0.15,0.57,0.32,0.91,0.5c-2.66,3.95-12.07-0.59-16.87-7.07c1.94,4.02,3.81,8.16,7.38,9.05
		c1.81,0.45,2.22,1.88,1.24,4.3c-0.94,2.33-2.29,3.65-4.05,4.08c-0.69,0.17-1.34,0.79-2.01,1.2c0.45,1,0.89,2.01,1.34,3.01
		c0.1,0.23,0.21,0.45,0.31,0.68c-0.08,0.25-0.16,0.5-0.24,0.75c-1.76-1.4-3.57-2.66-5.26-4.24c-2.58-2.4-2.99-6.88-4.1-10.74
		c-1.14-3.97-2.19-8.35-4.07-11.34c-2-3.18-3.33-5.43-2.06-10.18c0.44-1.63-0.62-4.62-1.42-6.58c-1.39-3.41-3.07-6.55-4.7-9.71
		c-0.56-1.09-1.35-1.89-2.23-3.07c3.53,0.35,6.06,3.44,8.69,6.05c1.3,1.3,2.39,3.2,3.44,5.03c0.52,0.91,0.68,2.3,1.09,3.4
		c0.55,1.49,1.08,3.07,1.85,4.25c0.23,0.35,1.56-0.2,1.81-0.86c0.67-1.78,1.82-3.61,0.79-6.01c-0.1-0.24-0.17-0.51-0.3-0.91
		c2.36,0.78,3.31,3.51,4.16,6.45c0.78,2.71,1.91,4.95,3.78,5.98c1.93,1.06,3.04-0.19,2.94-3.36c-0.04-1.09-0.08-2.28-0.39-3.22
		c-1.36-4.15-2.61-8.45-4.31-12.27c-1.6-3.61-3.45-7.16-5.62-9.91c-6.88-8.72-14.77-11.75-23.4-8.05c-2.16,0.93-4.2,3.04-6.05,5.15
		c-1.2,1.37-0.65,3.49,0.82,4.2c1.99,0.96,7.39-2.64,8.72-5.55c-0.2,1-0.3,2.08-0.61,2.99c-1.82,5.32-4.53,9.06-8,11.83
		c-5.83,4.66-12.14,6.46-18.46,8.14c-6.04,1.61-12.12,3.39-18.22,3.85c-5.91,0.45-11.78-1.65-16.94-6.44
		c-2.14-1.98-4.08-3.6-6.55-2.68c-0.57,0.21-1.42,0.83-1.51,1.47c-0.11,0.86,0.21,2.23,0.65,2.85c2.63,3.73,5.46,7.12,8,10.97
		c4.22,6.39,8.02,13.26,7.67,23.35c-0.04,1.15-0.23,2.3-0.6,3.63c-1.16-7.46-4.17-11.59-8.77-13.08c0.56,2.93,1.1,5.82,1.65,8.7
		c-5.38-7.71-11.89-7.43-18.36-7.87c1.32,2.53,2.82,4.69,3.72,7.33c1.34,3.93,0.47,8.6-1.67,11.73c-3.22,4.71-7.1,6.83-11.43,7.23
		c-1.21,0.11-2.43,0.02-3.67-0.38c1.43-0.76,2.85-1.53,4.28-2.29c2.67-1.42,4.58-4.16,5.14-8.48c0.58-4.44-0.85-7.98-2.88-10.83
		c-3.55-5-7.75-7.86-12.57-8.41c1.11-2.56,2.08-2.34,5.7-2.78c6.07-0.74,12.19-0.58,18.29-0.8c0.24-0.01,0.49-0.09,0.89-0.17
		c-0.41-5.05-1.3-9.58-3.57-13.26c-2.57,6.83-6.74,9.72-11.43,10.28c-3.35,0.4-6.93,0.2-10.12-1.26
		c-5.78-2.65-10.63-7.71-12.65-17.36c-0.97-4.64-0.59-9.22,0.78-13.43c0.5-1.54,1.85-2.41,3.03-3.3c-1.12,3.01-2.27,5.96-1.05,9.25
		c1,2.71,2.13,5.48,3.6,7.55c3.25,4.58,7.13,7.21,11.6,7.2c1.82-0.01,3.47-0.71,4.86-2.84c1.71-2.6,1.97-5.28,0.05-7.26
		c-1.8-1.86-3.93-3.07-6.01-4.11c-0.69-0.34-2.21,0.46-2.39,1.26c-0.32,1.46,0,3.33,0.21,4.97c0.09,0.67,0.59,1.2,1.17,2.27
		c-3.82-1.72-6.86-4.03-8.99-8.8c-1.22-2.73-0.27-6.86,1.54-7.68c2.86-1.3,5.73-3.09,8.65-3.43c4.21-0.48,8.54-0.55,12.69,0.49
		c4.72,1.19,9.26,3.95,13.92,5.74c3.86,1.48,7.72,1.38,11.35-1.63c1.78-1.47,3.72-2.74,5.18-4.8c2.27-3.2,1.49-7.19-1.5-8.55
		c-3.4-1.54-6.84-2.86-9.45-3.94c1.99-0.5,4.82-1.61,7.67-1.82c2.5-0.19,5.03,0.54,7.54,0.99c4.04,0.72,8.17,1.82,11.24,6.15
		c2.45,3.45,5.33,4.54,8.22,5.42c3.56,1.08,7.21,0.67,11-1.79c-2.13-0.33-3.91-0.49-5.67-0.89c-5.56-1.28-10.74-4.48-15.59-8.73
		c-1.73-1.52-3.01-4.45-4.34-6.92c-2.99-5.54-7.01-7.32-11.37-7.71c-1.57-0.14-3.18,0.42-4.74,0.9c-0.44,0.13-1.07,1.09-1.08,1.69
		c-0.01,0.81,0.36,1.93,0.8,2.41c0.9,0.98,1.95,1.62,3.34,2.72c-4.65,0.18-8.76,0.01-12.85-2.12c-9.62-5.02-19.56-6.04-29.62-5.06
		c-5.14,0.5-10.12,2.42-14.86,5.32c-5.79,3.54-11.29,8.23-15.83,14.93c-2.7,3.99-5.83,7.72-6.96,13.79
		c-1.82,9.75,1.68,20.52,7.41,23.4c3.08,1.54,6.86,0.07,8.86-3.28c1.12-1.86,1.28-3.84,0.85-6.09c-0.2-1.02-0.52-1.98-0.86-3.25
		c2.41,0.38,2.95,3.47,3.62,5.75c1.81,6.17,0.67,13.09-2.53,17.85c-2.28,3.4-4.91,5.79-7.75,7.95c-3.72,2.83-7.65,3.64-11.62,4.57
		c-1.12,0.26-2.21,0.86-3.5,1.39c0.63-6.15-0.62-10.73-3.3-14.8c0.84-0.73,1.57-1.45,2.34-2.01c3.32-2.41,4.38-7.77,2.61-12.82
		c-3.69-10.55-2.42-21.55,1.91-29.97c3.52-6.85,7.86-12.11,12.94-15.82c3.85-2.81,7.71-5.62,11.67-7.96
		c4.02-2.37,8.2-4.02,12.26-6.25c6.15-3.39,7.87-10.09,3.46-18.58c-2.72-5.24-6.24-8.92-9.94-12.26
		c-6.14-5.55-12.68-9.32-19.55-12.15c-5.06-2.08-10.13-3.12-15.3-3.63c-8.51-0.84-16.97,0.05-25.28,2.66
		c-4.75,1.49-9.36,4.31-13.91,7.06c-2.49,1.51-4.48,4.52-5.79,8.33c-2.27,6.62,0.14,13.35,3.36,17.38c2.85,3.57,5.21,7.65,6.04,13.4
		c1.18,8.2-0.56,14.99-4.29,20.67c-5.05,7.69-11.13,12.55-17.78,16.13c-9.33,5.02-18.76,5.49-28.18,1.85
		c-5.08-1.96-9.82-5.87-13.9-11.27C218.48,260.92,218.24,256.15,220.26,253.34z M241.97,230.92c3.19,6.08,2.32,14.54-0.59,19.1
		c-1.51,2.37-1.12,5.95,0.73,7.72c1.32,1.26,2.73,2.26,4.28,3.52c-4.03-0.36-7.47-2.19-10.42-6.51
		c-0.29,6.19,5.54,13.45,14.49,13.69c-1.6,0.68-3.07,1.63-4.58,1.84c-1.42,0.2-2.89-0.38-4.34-0.62c6.26,6.68,19.6,2.99,23.33-4.29
		c-7.77-1.7-8.1-2-8.61-7.81c-1.02,0.15-2.03,0.45-3.04,0.41c-3.23-0.12-4.84-2.22-5.31-6.92c-0.26-2.58-0.36-5.19-0.61-7.77
		C246.78,237.88,245.44,233.27,241.97,230.92z M426.68,280.63c-0.04,0.29-0.03,0.63-0.13,0.84c-0.14,0.29-0.35,0.59-0.56,0.69
		c-3.61,1.6-7.31,2.01-10.8-0.23c-3.26-2.09-6.17-2.23-9.25,1.33c0.84,0.21,1.48,0.54,2.1,0.49c2.33-0.16,4.34,1.37,5.86,3.69
		c2.12,3.23,4.66,3.43,7.25,3.66c3.83,0.35,7.2-2.29,10.61-4.41c3.69-2.29,6.55-6.35,9.26-11.27c-7.31,1.46-14.46,5.52-21.14-2.39
		C422.23,279.58,422.37,279.73,426.68,280.63z"/>
	<path class="st0" d="M252.27,436.31c4.41,7.47,10.3,8.46,16.15,9.79c-11.53,1.1-23.08,2.48-33.07-9.63
		c-1.28,4.5,0.53,7.03,8.3,11.82c-0.01,0.28-0.02,0.56-0.02,0.84c-3.09-0.22-6.29,0.3-9.23-0.83c-3.79-1.46-7.67-3.75-9.23-10.31
		c-0.45-1.89-0.49-4.14-0.41-6.2c0.25-6.2-1.55-10.86-6.05-12.4c8.82-6.14,17.04-1.78,25.24,3.92c-0.76-7.15-4.56-8.77-7.76-11.91
		c2.31,0,4.5-0.27,6.65,0.05c4.93,0.75,8.85,4.85,12.72,9.37c2.22,2.59,4.64,5.23,7.84,4.98c-1.36-1.68-2.81-3.21-4.05-5.08
		c-2.31-3.49-2.53-8.42-3.33-12.9c-0.7-3.92-1.96-6.81-4.53-8.18c-1.77-0.94-3.48-2.2-5.44-3.46c4.75-0.72,9.1,0.48,13.27,3.02
		c4.1,2.5,8.1,5.4,12.19,8.15c-0.21-0.57-0.41-1.65-0.86-2.25c-2.1-2.76-2.76-6.61-2.86-10.47c-0.28-11.06-5.27-20.32-12.14-21.68
		c-2-0.39-3.93-1.67-5.94-2.02c-2.03-0.36-4.11-0.08-6.58-0.08c0.5-0.67,0.65-1.02,0.84-1.09c8.05-3.22,16.21-3.56,24.4-1.91
		c2.43,0.49,4.8,1.93,7.18,3.01c0.97,0.44,1.39,0.11,1.54-1.54c0.46-5.23,2.84-8.36,5.43-10.95c4.18-4.17,8.82-6.43,13.75-7.31
		c4.26-0.76,8.53-2.59,12.76-2.39c4.16,0.2,8.42,1.73,12.36,3.88c3.25,1.77,6.28,5,8.38,10.75c-1.34-0.84-2.23-1.59-3.18-1.97
		c-2.93-1.15-5.87-2.96-8.83-3.05c-4.73-0.14-9.57,0.15-14.17,1.68c-4.25,1.41-8.43,3.99-11.54,9.52
		c-3.29,5.84-1.86,11.39,1.58,14.84c4.26,4.26,9.07,5.64,14.12,5.28c2.61-0.18,5.23-0.03,7.97-0.03c-8.42,5.18-17.14,6.39-26.1,5.47
		c3.01,2.12,6.2,2.36,9.36,2.01c4.35-0.48,8.78-0.79,12.99-2.37c3.62-1.36,7.71-2.27,9.77-8.61c1.36-4.17,0.59-8.79-1.4-11.77
		c-4.28-6.39-11.38-6.21-15.67,0.13c-1.65,2.43-2.35,5.63-1.99,9.68c-2.08-2.17-3.26-4.81-3.43-8.18c-0.15-2.88,0.89-4.85,2.48-6.59
		c6-6.55,12.7-7.76,19.54-5.59c3.82,1.21,7.95,2.17,11.12,6.36c1.64,2.16,2.99,4.84,5.02,8.19c2.21,0.62,6.54-5.25,7.54-9.32
		c0.57-2.34,0.37-4.52-1.07-6.11c-0.35-0.39-0.65-0.9-1.05-1.47c3.99-0.55,7.7,4.92,8.09,11.97c1.81-0.56,2.39-3.04,2.84-4.99
		c2.14-9.27,6.52-14.78,12.22-17.88c3.81-2.08,7.79-3.43,11.82-4.64c-1.56,3.35-3.73,5.73-3.64,10.23c0.09,4.87,2.72,6.18,5.12,8.23
		c-3.6,1.46-9.1-3.11-10.17-7.96c-4.61,1.78-6.76,7.99-5.15,14.89c1.8,7.72,0.72,14.73-2.09,21.38c-2.61,6.16-6.24,9.88-10.72,12.17
		c-3.77,1.92-7.4,4.55-11.02,7.1c-4.29,3.02-7.55,13.19-6.22,20.1c0.48,2.49,2.03,4.49,3.08,6.68c-0.54,0.05-1.46,0.11-2.38,0.24
		c-7.76,1.14-15.58,1.82-23.27,3.64c-4.2,1-8.22,3.93-12.31,6.02c-5.93,3.03-11.85,6.06-17.77,9.14c-0.96,0.5-1.96,1.07-2.74,2.01
		c-0.61,0.73-1.18,2.04-1.28,3.19c-0.2,2.48-0.9,3.9-2.4,4.77c-1.33,0.78-2.64,1.8-3.82,3.05c-2.57,2.73-2.54,4.94,0.11,7.9
		c-2.6-0.35-4.14,1.13-4.13,5.3c-3.31-2.08-3.63-8.33-2.59-11.57c0.49-1.51,1.89-2.47,2.99-3.3c1.96-1.49,3.39-3.23,3.44-7.12
		c0.04-2.76,3-5.86,5.58-6.02c4.06-0.25,7.57-3.04,11.21-5.29c0.59-0.37,1.22-0.6,1.83-0.91c3.95-2.01,7.92-3.9,11.83-6.06
		c5.25-2.91,10.44-6.06,15.68-9.04c2.5-1.43,5.04-2.68,7.54-4.12c0.39-0.23,0.73-0.98,0.95-1.61c1.92-5.48,3.77-11.02,5.75-16.44
		c0.33-0.89,1.21-1.68,1.88-1.78c4.83-0.72,8.68-4.41,12.16-9.35c1.07-1.52,2.22-2.91,3.13-4.81c-6.34,6.38-12.72,12.22-20.61,11.99
		c3.15-1.87,6.52-3.2,8.58-8.98c-0.82,0.43-1.22,0.57-1.57,0.85c-8.03,6.4-16.5,9.29-25.53,8.34c-5.54-0.59-10.87-2.63-15.93-5.93
		c-1.8-1.17-3.14-4.15-4.61-6.42c-0.25-0.39-0.12-1.38-0.18-2.47c-0.92-0.37-2.13-0.86-3.33-1.35c-0.14,0.21-0.28,0.43-0.42,0.64
		c0.94,1.98,1.73,4.24,2.87,5.9c2.79,4.09,5.75,8.01,9.58,9.43c4.21,1.56,8.48,2.66,12.73,3.98c0.6,0.19,1.18,0.67,1.78,0.72
		c1.45,0.11,2.91,0.03,4.65,0.03c-0.35,0.4-0.68,1.08-1.08,1.18c-2.22,0.58-4.44,1.3-6.68,1.43c-3.85,0.23-7.7,0.06-11.99,0.06
		c1.44,1.14,2.57,2.32,3.81,2.97c3.08,1.59,6.28,2.66,9.3,4.46c1.99,1.19,3.75,3.29,5.61,4.98c-0.13,0.39-0.26,0.77-0.39,1.16
		c-1.02-0.62-2.01-1.47-3.07-1.82c-2.75-0.93-5.53-2.29-8.3-2.31c-4.61-0.03-9.22,1.2-13.84,1.25c-4.16,0.04-8.33-0.63-12.47-1.32
		c-1.37-0.23-2.67-1.49-4-2.28c-0.1,0.28-0.2,0.56-0.29,0.85c0.73,0.8,1.42,1.74,2.21,2.36c4.02,3.15,8.33,4.23,12.79,4.41
		c5.4,0.22,10.8,0.55,16.2,0.99c1.08,0.09,2.13,0.91,3.21,1.96c-0.88,0.15-1.77,0.35-2.65,0.46c-3.58,0.45-7.22,0.42-10.73,1.43
		c-3.46,0.99-6.76,3.23-10.19,4.52c-2.3,0.86-4.7,1.4-7.06,1.41c-5.02,0.02-10.05-0.05-15.04-0.76c-2.53-0.36-4.98-2.2-7.46-3.37
		C253.58,436.92,252.92,436.62,252.27,436.31z"/>
	<path class="st0" d="M203.1,363.04c-0.51-3.11-0.59-5.85-1.37-7.96c-1.87-5.03-5.2-7.14-8.64-7.65c-3.34-0.49-6.88-0.45-10.12,0.74
		c-3.64,1.34-6.93,4.45-8.7,10.23c-0.87,2.85-0.38,6.01,1.42,7.43c1.58,1.24,3.23,2.33,4.91,3.11c2.92,1.36,8.06-2.88,8.87-7.46
		c0.3-1.69-0.18-3.72-0.31-5.56c3.12,3,5.16,11.26,1.38,17.79c-4.79,8.26-10.88,11.82-17.79,12.66c-6.2,0.75-12.38,0.35-18.34-2.49
		c-2.61-1.24-5.18-3.24-7.42-5.68c-1.12-1.22-1.68-4.11-2.07-6.41c-0.54-3.18-0.59-6.56-1.01-9.8c-0.24-1.79-0.82-3.47-0.89-5.78
		c1.73,2.44,3.58,4.71,5.16,7.38c1.93,3.25,3.9,6.05,6.76,7.26c3.03,1.28,6.02,2.48,9.33,0.73c-0.53-0.28-1.05-0.7-1.59-0.82
		c-1.65-0.38-3.34-0.45-4.97-1c-5.06-1.73-7.32-5.55-7.43-11.9c-0.06-3.55,0.83-7.22,1.58-10.69c1.19-5.47,2.35-10.91,1.3-16.71
		c-0.35-1.9-1.18-3.59-2.01-6.01c5.93,3.35,9.52,9.62,11.83,18.03c1.99-0.66,4.56-4.44,4.77-7.5c0.17-2.54,0.23-5.17,0.01-7.69
		c-0.43-4.79,0.82-8.85,2.49-12.3c2.12-4.4,4.78-8.16,7.24-12.15c0.23-0.37,0.65-0.44,1.57-1.03c-1.94,5.19-4.43,9.36-3.15,15.12
		c1.09,4.87,3.56,7.76,6.25,10.46c0.12-0.36,0.3-0.64,0.27-0.83c-1.27-7.13,1.09-12.2,4.36-15.98c2.97-3.44,6.37-6.17,9.78-8.48
		c6.45-4.37,13.22-7.23,20.22-8.66c3.63-0.74,7.24-1.66,10.86-2.5c0.02,0.28,0.04,0.55,0.06,0.83c-3.2,1.99-6.54,3.56-9.56,6.08
		c-2.52,2.12-4.76,5.16-6.91,8.17c-1.17,1.63-1.49,4.12-0.48,6.92c1.23-1.46,2.39-2.88,3.58-4.24c1.76-2.02,3.38-4.74,5.36-5.85
		c4.12-2.32,8.43-3.76,12.66-5.61c6.58-2.88,13.36-2.54,20.07-2.78c4.99-0.18,10,0.95,14.99,1.6c0.71,0.09,1.39,0.81,1.97,1.16
		c-5.24,0.56-10.57,1.05-15.89,1.71c-5.46,0.68-10.26,4.05-14.91,9.24c0.47,0.27,0.74,0.58,0.86,0.48c4.02-3.41,8.5-3.6,12.85-4.12
		c6.95-0.83,13.94-0.87,20.9-1.44c5.56-0.45,11.12-1.19,16.58-1.79c-0.08,0.09-0.31,0.46-0.6,0.62c-5.33,3.06-10.92,3.86-16.5,5.02
		c-4.87,1.01-9.62,3.35-14.42,5.12c-1.19,0.44-2.49,0.59-3.52,1.49c-2.23,1.95-4.42,4.09-6.41,6.57c-1.51,1.88-1.47,4.52-0.37,6.88
		c4.55-10.97,11.78-12.21,19.1-13.16c0.07,0.24,0.15,0.48,0.22,0.73c-0.64,0.47-1.27,0.96-1.91,1.4c-1.96,1.31-4.11,2.18-5.84,4.01
		c-2.33,2.47-2.06,6.17,0.43,8.35c1.72,1.51,3.6,2.58,5.59,3.96c-0.79,0.22-1.52,0.4-2.25,0.64c-7.47,2.5-15.05,3.13-22.58,1.51
		c-4.8-1.03-9.81-2.02-13.92-6.67c-1.7-1.92-3.02-4.64-4.57-7.09c-0.74,2.82,0.53,4.91,1.56,6.66c1.66,2.84,3.54,5.42,5.5,7.77
		c2.73,3.3,3.51,6.66,2.34,11.8c-0.35,1.56-0.79,3.07-1.33,4.59c0.46-3.85-1.01-5.97-2.69-7.92c-3.59-4.15-7.77-6.18-11.92-8.38
		c-4.88-2.57-9.49-6.06-13.58-11.01c-1.91-2.31-2.41-5.68-2.26-10.21c-1.62,2.73-2.96,4.64-3.99,6.89c-0.49,1.07-0.61,2.85-0.5,4.22
		c0.56,6.63,3.08,11.33,6.23,15.58c1.98,2.67,4.63,4.21,5.75,8.46c0.7,2.66,1.01,4.94-0.33,7.22
		C205.75,358.56,204.45,360.76,203.1,363.04z"/>
	<path class="st0" d="M216.97,425.76c1.53,4.64-1.88,4.91-2.67,7.33c0.14,0.31,0.29,0.62,0.43,0.94c2.05-1.1,4.09-2.21,6.28-3.38
		c0.46,3.58-0.55,6.02-2.35,8.15c0.8-0.12,1.6-0.23,2.68-0.39c-0.4,0.75-0.61,1.56-0.97,1.76c-5.35,3.01-10.66,6.44-16.55,4.93
		c-0.59-0.15-1.09-1.14-1.65-1.69c-0.4-0.38-0.82-0.74-1.26-0.97c-1.63-0.83-3.41-1.28-4.22-4.59c1.43,0.39,2.74,0.97,4.06,1.04
		c0.93,0.05,2.53-0.22,2.7-0.97c0.51-2.24,0.97-5.06,0.52-7.17c-0.63-3-2.41-5-4.64-4.85c-3.53,0.24-7.08,0.42-10.57,1.23
		c-1.76,0.41-3.43,2.04-5.06,3.36c-0.45,0.36-0.87,1.66-0.81,2.43c0.06,0.76,0.67,1.74,1.18,2.02c1.53,0.83,3.12,1.36,4.92,2.11
		c-0.78,0.35-1.49,0.93-2.21,0.95c-3.06,0.05-6.12-0.06-9.17-0.13c-1.73-0.04-3.49,0.16-5.18-0.25c-1.65-0.4-3.23-1.51-4.86-2.17
		c-0.86-0.35-1.76-0.53-2.64-0.6c-2.12-0.15-4.24-0.22-6.36-0.27c-1.53-0.04-2.2-1.47-1.75-3.49c0.64-2.86,1.39-5.8,2.51-8.23
		c1.78-3.86,3.87-7.39,5.9-10.96c0.83-1.45,0.81-2.54-0.07-3.81c-2.9-4.18-2.11-7.19,0.48-12.05c1.1-2.07,2.12-4.25,3.06-6.14
		c3.81-0.68,7.93-0.57,11.71-2.29c5.4-2.45,10.88-5.51,14.29-13.31c1.05-2.41,1.52-5.46,2.51-9.18c0.51,3.76,1.45,7.04,1.22,10.1
		c-0.23,3.03-1.64,5.85-2.65,9.14c2.78-1.29,5.6-2.22,7.47-5.81c0.74-1.42,0.81-3.7,1.16-5.48c1.68,1.32,1.95,3.7,0.46,7.38
		c-0.7,1.74-1.4,3.49-2.09,5.24c0.09,0.31,0.18,0.62,0.27,0.93c3.58-1.2,7.16-2.36,10.73-3.62c0.79-0.28,1.52-0.96,2.3-1.36
		c4.36-2.28,8.45-5.26,11.71-10.55c2.57-4.16,3.01-7.72,1.59-13.51c2.56,0.26,3.66,3.09,4.48,6.1c1.32,4.82,0.87,8.42-1.63,12.48
		c8.57-2.01,16.48-0.91,23.77,5.86c-5.51-1.27-10.99-3.81-17.08-0.49c7.26,2.48,14.39,3.44,19.7,12.85
		c-8.33-4.1-16.4-3.91-24.54-1.58c1.43,0.76,2.83,1.61,4.28,2.26c4.28,1.91,8.21,4.92,11.62,9.35c1.8,2.35,3.45,5.09,3.23,8.66
		c-9.05-9.98-18.96-10.1-29.83-6.01c4.2,2.02,8,3.33,10.84,7.79c-2.71-0.92-5.31-2.14-7.96-2.62c-4.11-0.76-7.91,1.64-11.64,3.95
		c-1.05,0.65-1.95,2.27-2.68,3.73c-0.88,1.78-1.07,3.84,0.03,5.74c1.03,1.77,2.22,2.3,3.64,1.24
		C216.03,426.59,216.41,426.23,216.97,425.76z M207.87,390.52c-5.33,3.62-5.75,4.8-4.87,13.5c0.56,5.59-4.19,11.48-7.65,9.48
		c-2.57-1.49-2.89-3.27-1.33-6.72c0.86-1.91,1.72-3.95,0.46-7.28c-0.26,0.85-0.38,1.34-0.54,1.78c-1.23,3.28-2.46,6.42-5.08,7.59
		c-1.13,0.51-1.55,2.35-0.77,4.11c1.53,3.46,0.65,6.17-0.98,8.73c-0.19,0.31-0.28,0.79-0.51,1.48c6.75-0.38,13.19-1.09,19.02-6.35
		c0.39,7.7,0.39,7.7,1.38,8.75c0.51-8.92,5.52-10.85,9.7-14.72c-2.73,0-5.1,0-7.47,0c0.91-6.87,9.7-11.45,21.62-11.32
		c0.02-0.24,0.04-0.49,0.06-0.73c-3.54-0.67-7.08-1.35-10.18-1.94c0.79-1.32,2.42-2.79,2.68-4.71c0.65-4.84,2.59-7.51,5.1-9.7
		c0.37-0.32,0.72-0.71,1.32-1.32c-5.15,0.49-8.62,5.13-12.21,9.35c-2.08,2.44-4.14,4.82-6.88,5.26
		C207.92,396.22,207.23,395.15,207.87,390.52z M185.22,393.11c-1.07,1.1-2.19,2.23-3.33,3.4c-0.47-1.4-0.79-2.36-1.02-3.07
		c-0.77,1.64-1.44,3.11-2.14,4.54c-0.72,1.48-1.48,2.91-2.42,4.76c-0.06-0.02-0.56-0.18-1.06-0.35c0.27,3.12,1.39,4.84,3.64,5.49
		c-0.39-7.35,3.57-6.57,6.34-7.97C185.22,397.63,185.22,395.54,185.22,393.11z M191.18,398.53c-2.36,1.65-4.3,3.69-6.41,4.31
		c-2.95,0.87-3.25,4.4-4.29,7.74c0.99,0.39,1.78,0.7,2.57,1.01c-0.07-0.27-0.15-0.54-0.22-0.81c1.04-1.07,2.06-2.2,3.14-3.19
		C188.21,405.51,190.19,403.11,191.18,398.53z"/>
	<path class="st0" d="M292.22,347.24c4.15-5.36,9.3-8.83,11.74-17.77c-11.77,13.98-24.21,22.58-38.6,22.2
		c3.3-2.59,6.7-5.25,10.11-7.92c-0.1-0.42-0.19-0.85-0.29-1.27c-2.15,0.47-4.3,0.97-6.46,1.39c-3.68,0.72-7.35,1.7-11.04,2
		c-5.55,0.45-10.98-1.35-16.3-3.54c-2.47-1.02-4.72-3.31-7.07-5.02c0.09-0.35,0.19-0.71,0.28-1.06c0.78,0.35,1.57,0.62,2.33,1.05
		c8.23,4.67,16.64,4.19,25,1.46c3.81-1.25,7.67-3.07,10.84-6.98c2.21-2.73,4.41-5.69,4.58-10.48c0.08-2.17-0.44-4.39-0.69-6.56
		c4-0.31,8.22,6.02,9.71,14.96c4.96-0.91,9.52-3.95,12.77-9.53c2.16-3.71,3.11-9.29,4.2-14.26c0.35-1.59-0.61-3.87-0.96-5.8
		c6.53,2.07,15.44,16.04,11.47,28.43c5.19,2.09,10.32,1,15.27-1.02c4.78-1.95,9.5-4.59,13.6-9.65
		c-0.74,6.43-11.96,16.46-21.96,19.61c0.93,0.63,1.42,1.12,1.95,1.29c4.98,1.59,8.85,5.75,11.76,12.21
		c1.61,3.58,2.03,9.05,0.91,12.73c-1.72-7.55-5.59-11.14-10.05-13.91c-8.28-5.15-16.84-6.45-25.62-4.87
		C297.2,345.38,294.72,346.45,292.22,347.24z"/>
	<path class="st0" d="M397.74,416.98c-0.79,4.17-2.68,6.59-5.04,8.69c-3.7,3.3-7.71,4.47-11.8,5.65c-2.52,0.73-4.94,2.35-7.6,3.67
		c0.38-1.24,0.66-2.39,1.06-3.44c2.63-6.88,0.4-10.23-3.36-12.21c-2.76-1.45-5.94-1.09-8.93-1.29c-1.33-0.09-2.68,0.34-4.01,0.67
		c-4.95,1.24-9.6,3.78-13.84,8.04c-1.94,1.96-2.24,5.09-0.52,7.4c1.02,1.37,2.2,2.44,3.05,3.37c-4.8,1.48-9.7-4.93-9.21-12.74
		c0.23-3.62,1.57-6.4,3.18-8.59c1.6-2.18,3.53-3.89,5.46-5.37c3.74-2.88,7.62-5.35,11.38-8.18c2.78-2.09,5.63-4.14,8.18-6.82
		c3.24-3.41,6.12-7.59,6.8-14.09c0.5-4.79-0.62-8.77-2.82-12.08c-0.18-0.27-0.39-0.52-0.55-0.81c-0.07-0.13-0.06-0.37-0.14-0.84
		c0.43-0.05,0.91-0.34,1.2-0.1c3.17,2.64,6.41,5.01,9.01,9.16c3.49,5.58,4.39,13.62,0.78,19.84c-1.05,1.81-2.11,3.74-2.8,5.9
		c-0.4,1.24-0.07,3.05,0.2,4.72c2.66-4.62,5.89-6.74,9.79-7.84c-1.66,3.93-5.2,6.35-2.9,12.68c2.26-5.58,5.02-9.83,9.08-11.38
		c0.06,0.17,0.2,0.39,0.17,0.48c-1.37,3.95-1.64,7.93-0.64,12.29c0.81,3.55-0.65,6.01-2.18,8.54
		C393.06,420.53,395.39,418.77,397.74,416.98z"/>
	<path class="st0" d="M176.09,476.38c-2.64-0.24-5.29-0.6-7.95-0.7c-6.67-0.27-13.39-1.22-20.01-0.41
		c-6.71,0.83-13.39,3.05-19.97,5.45c-3.33,1.21-6.47,3.92-9.54,6.44c-1.16,0.96-2.07,3.13-2.71,5.06c-0.65,1.95-1.35,2.91-2.78,2.96
		c-3.2,0.12-3.54,0.98-2.46,5.73c0.34,1.48,0.69,2.95,1.04,4.42c-1.63-0.19-3.16-0.67-4.64-0.45c-1.79,0.27-2.1,1.74-1.33,5.32
		c-2.4-0.76-4.08-3.07-5.31-5.88c-1.3-2.99-0.29-7.44,1.92-9.56c0.7-0.67,1.57-0.93,2.26-1.62c1.46-1.46,3.25-2.45,3.53-5.76
		c0.26-3.01,1.59-4.42,3.38-4.94c4.32-1.25,8.68-2.24,12.96-3.75c6.77-2.37,13.52-4.88,20.21-7.74c2.89-1.24,5.54-3.81,8.41-5.21
		c1.99-0.98,4.17-1.1,6.28-1.44c3.13-0.52,6.31-0.52,9.39-1.4c6.89-1.98,13.58-5.12,19.71-10.6c1.36-1.21,2.51-3,3.7-4.63
		c1.22-1.67,2.46-2.37,4.17-1.85c4.81,1.45,9.59,3.92,14.59,2.23c3.18-1.07,6.35-2.24,9.46-3.69c1.28-0.6,2.4-2.05,3.6-3.13
		c0.84,6.11,4.08,7.18,7.2,8.48c0.91,0.38,1.84,0.6,2.76,0.89c-0.01,0.3-0.02,0.59-0.02,0.89c-1.58,0-3.16,0.12-4.73-0.02
		c-3.37-0.31-6.73-0.77-10.1-1.13c-4.26-0.46-8.4,0.6-12.46,2.47c-0.65,0.3-1.15,1.47-1.71,2.23c0.68,0.52,1.34,1.38,2.05,1.49
		c1.46,0.23,2.95,0.07,4.57,0.71c-2.1,0.99-4.17,2.11-6.3,2.94c-7.21,2.83-14.67,3-21.98,4.76c-2.17,0.52-4.26,1.8-6.38,2.75
		c-0.18,0.08-0.39,0.21-0.51,0.42c-0.89,1.62-1.92,3.14-2.5,5C173.77,473.53,175.26,475.17,176.09,476.38z"/>
	<path class="st0" d="M384.63,395.13c0.05-0.39,0.02-0.88,0.16-1.16c2.76-5.63,2.64-10.45-0.43-15.96
		c-2.25-4.05-4.88-7.22-8.22-8.85c-0.74-0.36-1.41-1.1-2.12-1.66c0.05-0.26,0.11-0.52,0.16-0.77c2.73,1.05,5.46,2.09,8.54,3.27
		c-0.97-2.96-1.85-5.45-2.63-8.02c-1.96-6.47,0-12.13,3.58-15.02c0.36-0.29,0.84-0.2,1.46-0.33c-0.46,1.13-0.83,1.92-1.12,2.78
		c-0.86,2.48-0.4,4.74,1.32,5.42c4.03,1.6,8,1.29,11.64-2.11c1.83-1.7,3.51-3.8,5.21-5.8c0.42-0.5,0.68-1.33,1.14-2.26
		c-4.21,0.94-8.17,1.81-12.12,2.69c-0.16-0.27-0.32-0.55-0.48-0.82c5.45-7.95,6.1-16.38,1.3-25.37c5.18,1.64,9.74,9.64,10.7,18.24
		c0.96-2.39,1.92-4.77,2.97-7.37c2.74,1.52,4.47,5.27,4.93,10.32c0.5,5.4-1.59,8.91-4.25,11.81c0.09,0.25,0.18,0.49,0.27,0.74
		c1.42-0.63,2.85-1.25,4.34-1.91c0.47,1.46-0.32,5.1-2.61,9.21c-1.54,2.76-3.34,5.16-5.04,7.74c1.83,2.31,3.84,1.73,9.04-2.64
		c-0.14,1.02-0.1,1.89-0.35,2.4c-2.33,4.75-4.71,9.46-8.57,11.41c-2.72,1.38-5.53,2.42-8.14,4.18c-1.99,1.34-3.74,3.53-5.57,5.43
		c-1.59,1.66-3.14,3.45-4.7,5.18C384.9,395.64,384.77,395.38,384.63,395.13z"/>
	<path class="st0" d="M277.39,482.99c-2.39-1.87-5.03-5.57-4.38-8.94c0.2-1.02,0.58-2.19,1.12-2.77c1.08-1.17,2.47-1.7,3.43-3.02
		c0.78-1.07,1.43-2.85,1.59-4.44c0.28-2.79,1.22-3.79,2.84-4.37c2.54-0.9,5.02-2.19,7.53-3.26c0.6-0.26,1.24-0.31,2.15-0.53
		c-1.57,1.8-3.01,3.09-4.13,4.87c-0.62,0.98-1.08,2.88-0.91,4.15c0.14,1.05,1.21,2.17,2.01,2.56c2.12,1.03,3.85,0.1,5.81-2.01
		c4.74-5.11,9.53-10.12,14.99-13.57c8.31-5.24,16.76-7.96,25.73-8.13c6.53-0.13,13.04-1.87,19.22-5.53
		c1.56-0.92,3.15-2.01,4.47-3.56c1.3-1.54,0.99-3.54-0.58-4.22c-1.52-0.66-3.15-0.7-4.91-1.06c0.51-0.57,0.93-1.36,1.43-1.55
		c3.89-1.41,7.8-2.57,11.79-0.84c2.7,1.17,3.07,4.14,1.3,7.55c-3.91,7.55-9.43,10.05-15.07,12.25c-3.39,1.32-6.79,2.53-10.18,3.84
		c-2.53,0.98-5.11,1.8-7.55,3.17c-2.01,1.13-3.88,2.9-5.77,4.5c-3.18,2.7-6.6,3.58-10.15,3.44c-0.67-0.03-1.75-0.7-1.88-1.42
		c-0.16-0.84,0.41-2.18,0.85-3.08c0.45-0.93,1.13-1.61,1.81-2.54c0.69,3.14,2.21,3.81,3.85,2.91c1.95-1.07,3.81-2.57,5.63-4.12
		c0.5-0.43,1.06-1.86,0.94-2.58c-0.13-0.79-0.98-1.75-1.55-1.83c-1.92-0.25-3.86-0.33-5.77-0.12c-3.86,0.42-7.15,3.4-10.46,6.19
		c-1.23,1.04-2.67,1.83-3.59,3.35c-1.4,2.33-2.54,5.09-3.56,7.88c-1.03,2.81-2.36,4.65-4.27,6.02c-5.18,3.7-10.64,3.79-16.14,3.69
		c-1.16-0.02-2.32-0.07-3.48-0.11C278.6,475.66,276.84,477.13,277.39,482.99z"/>
	<path class="st0" d="M111.66,497.07c0.69-0.16,1.26-0.21,1.8-0.43c1.14-0.47,2.06-0.98,2.78-2.95c1.57-4.29,4.27-6.33,7.39-6.86
		c1.21-0.21,2.42-0.22,3.74,0.11c-1.14,0.9-2.3,1.75-3.42,2.72c-0.71,0.62-1.7,1.19-1.96,2.17c-0.39,1.48-0.25,3.3-0.33,4.98
		c1.47-0.04,3.25,0.73,4.37-0.28c4.14-3.75,7.86-8.77,12.15-12c3.36-2.53,7.29-3.88,11.04-4.39c5.42-0.73,10.91,0.07,16.36-0.32
		c6.66-0.47,13.32-1.32,19.96-2.37c1.83-0.29,3.61-1.78,5.35-2.94c0.6-0.41,1.01-1.51,1.7-2.6c-4.71-2.96-8.97-0.35-13.47,0.14
		c2.04-3.29,4.61-3.83,7.04-3.96c4.35-0.23,8.73,0.04,13.08,0.47c1.22,0.12,2.47,1.37,3.57,2.44c1.31,1.28,1.26,2.95,0.16,4.73
		c-2.12,3.45-4.99,3.89-7.73,4.64c-5.08,1.39-10.23,2.19-15.28,3.78c-3.69,1.16-7.25,3.28-10.89,4.84
		c-1.98,0.85-3.99,1.58-6.01,2.09c-3.88,0.97-7.77,1.88-11.67,2.53c-1.26,0.21-2.58-0.47-3.87-0.75c-0.07-0.45-0.14-0.9-0.22-1.36
		c1.56-1.26,3.12-2.52,5.09-4.11c-0.24,1.33-0.35,1.93-0.52,2.85c0.68,0.2,1.38,0.72,1.99,0.52c2.78-0.89,5.54-1.88,8.27-3.06
		c0.57-0.25,0.97-1.49,1.44-2.28c-0.68-0.75-1.33-2.05-2.04-2.14c-2.24-0.27-4.5-0.26-6.74-0.02c-5.56,0.6-10.4,4.04-14.7,9.47
		c-1.92,2.42-3.77,4.97-5.77,7.21c-0.96,1.08-2.15,1.93-3.31,2.26c-2.73,0.77-5.51,1.17-8.27,1.69c-0.38,0.07-0.8-0.15-1.15,0.03
		c-0.8,0.41-1.83,0.69-2.27,1.61c-0.28,0.59,0.35,2.21,0.55,3.26C116.87,508.43,112.67,502.74,111.66,497.07z"/>
	<path class="st0" d="M379.84,264.7c-4.36,0.53-8.67,0.87-13-2.31c-4.04-2.97-8.51-2.27-12.68,0.55c-2.03,1.37-4,2.92-5.99,4.42
		c-3.99,3.02-7.17,7.64-9.66,13.17c-1.27,2.81-1.69,6.54-2.55,10.07c-1.3-2.56-2.26-5.75-2.55-9.2c-0.58-6.89,0.73-12.86,4.28-17.33
		c2.56-3.22,4.97-6.97,7.85-9.25c2.15-1.7,4.93-1.76,7.45-1.92c3.96-0.26,7.93,0.13,11.9-0.03c1.22-0.05,2.85-0.72,2.87-3.07
		c0.01-1.27-1.2-2.56-1.89-3.9c3.87,0.28,7.95-0.26,11.83,2.29c0.64,0.42,1.44,0.28,2.06,0.74c1.51,1.13,3.37,1.93,4.36,3.8
		c3.56,6.68,7.93,11.02,13.29,13.1c0.56,0.22,1.06,0.85,1.97,1.62c-5.45,0.49-10.12-0.6-14.42-5.12c-2.63-2.76-5.56-5.18-8.95-4.33
		c-0.88,0.22-1.64,1.48-2.46,2.26c0.72,1.07,1.33,2.57,2.18,3.1C377.01,264.17,378.47,264.29,379.84,264.7z"/>
	<path class="st0" d="M339.76,334.29c0.06,5.13,0.55,6.81,3.41,7.57c1.42,0.38,3.16-1.05,4.53-2.28c0.34-0.31-0.01-3.11-0.36-4.58
		c-1.09-4.61-1.96-9.23-0.58-13.99c0.42-1.46,1.26-2.64,1.97-3.86c1.39-2.38,2.82-4.7,4.37-7.29c-0.13,1.12-0.13,2.2-0.39,3.11
		c-1.03,3.66-0.71,7.32,0.05,10.87c0.88,4.14,3.3,5.18,5.68,5.59c1.74,0.3,3.63,0.16,5.31-0.58c2.45-1.07,2.83-5.33,0.69-7.56
		c-1.87-1.95-3.97-3.36-5.53-4.65c3.6-0.7,7.15,2.16,10.53,5.29c1.83,1.69,2.69,5,2.51,8.31c-0.22,4.11-1.73,7.06-4.29,8.6
		c-2.2,1.33-4.37,2.79-6.55,4.19c-2.84,1.82-4.6,5.13-5.48,9.68c-0.68,3.5-1.91,6.39-4.13,8.65c0.29-3.9-1.4-5.04-3.04-6.41
		c-3.19-2.65-6.37-5.34-9.44-8.3c-1.64-1.58-2.6-4.07-2.34-7.35C336.91,336.47,338.11,335.19,339.76,334.29z"/>
	<path class="st0" d="M228.64,457.33c-3.28,0-6.57,0-9.85,0c-0.04-0.2-0.09-0.4-0.13-0.61c1.89-0.91,3.74-2.32,5.67-2.61
		c2.79-0.42,5.64,0.25,8.45-0.05c5.56-0.6,11.1-1.48,16.64-2.4c1.01-0.17,1.96-1.13,3.08-1.33c-2.44,5.29-6.42,6.74-9.8,10.09
		c1.98-0.42,3.96-0.84,6.08-1.3c-3.22,4.68-7.28,5.38-11.31,6.56c3.15,1.34,6.23,1.42,9.32,0.05c0.03,0.26,0.06,0.52,0.09,0.77
		c-1.62,0.61-3.22,1.42-4.87,1.78c-3.53,0.77-7.07,1.45-10.62,1.86c-1.27,0.15-2.58-0.79-3.87-0.82c-1.34-0.02-2.75,0.18-4.03,0.78
		c-4.14,1.94-8.22,4.16-12.35,6.17c-2.04,0.99-4.13,1.75-6.26,2.22c1.96-2.05,3.96-4.01,5.86-6.21c0.68-0.79,1.16-2.09,1.6-3.27
		c2.26-6,5.89-8.42,10.03-9.61c2.11-0.6,4.2-1.27,6.3-1.91C228.65,457.45,228.65,457.39,228.64,457.33z"/>
	<path class="st0" d="M461.18,283.31c2.83,3.8,5.81,7.12,6.59,13.27c0.61,4.88,0.08,9.28-2.03,13.19c-0.49,0.91-0.57,2.37-0.91,3.85
		c3.05,0.09,3.49-3.62,5.26-5.88c-0.07,2.2-0.1,4.41-0.23,6.6c-0.11,1.78-0.43,3.55-0.46,5.33c-0.01,0.82,0.36,2.24,0.71,2.37
		c0.57,0.21,1.47-0.1,1.88-0.74c1.49-2.35,2.31-5.24,2.14-8.65c-0.02-0.46-0.05-0.92-0.08-1.37c0.2-0.15,0.4-0.3,0.59-0.45
		c0.59,1.75,1.26,3.45,1.74,5.28c0.48,1.84,0.77,3.81,1.1,5.73c0.58,3.33-0.17,5.28-2.35,6.16c-2.92,1.19-2.92,1.19-2.84,5.17
		c-1.01-1.26-2.03-2.48-3.02-3.77c-0.79-1.04-1.43-2.51-2.32-3.17c-1.78-1.32-2.34-3.52-2.42-6.21c-1.22-0.95-2.42-1.75-3.54-2.79
		c-1.19-1.11-1.21-3.99-0.46-7.13c1-4.17,2.02-8.37,2.63-12.7c0.62-4.4,0.28-8.78-1.87-12.33c-0.16-0.27-0.23-0.68-0.33-1.04
		C460.95,283.97,461.02,283.86,461.18,283.31z"/>
	<path class="st0" d="M219.57,375.63c-0.48-5.9-2.32-8.06-6.28-7.79c1.27,8.24-0.88,13.34-6.36,15.45c0.25-0.77,0.48-1.28,0.59-1.84
		c0.3-1.55,0.8-3.14,0.77-4.69c-0.05-2.06-0.48-4.12-0.82-6.15c-0.87-5.13-0.05-8.87,3.15-11c2.47-1.65,5.2-2.76,7.87-3.09
		c1.84-0.23,3.86,0.97,5.65,2.09c2.04,1.27,2.61,9.66,0.82,11.8C223.37,372.29,221.56,373.72,219.57,375.63z"/>
	<path class="st0" d="M98.9,506.22c-5.55-0.91-6.21-0.46-7.48,5.12c-1.85-2.25-2.72-8.95-1.38-11.78c0.39-0.83,1.24-1.37,1.93-1.57
		c3.08-0.88,5.52-3.03,7.21-7.35c0.91-2.33,2.29-3.86,4.31-3.52c1.17,0.2,2.38-0.3,3.62-0.5c-0.25,2.65-1.1,3.82-2.74,4.34
		c-2.43,0.77-4.58,2.53-5.91,6.15C97.02,501.06,97.06,502.68,98.9,506.22z"/>
	<path class="st0" d="M261.99,480.59c-1.78,0-3.59-0.29-5.34,0.08c-1.87,0.39-3.09,2.41-3.64,5.3c-0.19,0.01-0.38,0.01-0.58,0.02
		c0-2.77-0.08-5.55,0.06-8.3c0.04-0.68,0.75-1.49,1.26-1.86c0.87-0.63,1.94-0.67,2.7-1.49c0.69-0.73,1.53-2.2,1.5-3.28
		c-0.09-3.5,1.27-4.82,2.98-5.57c2.67-1.17,5.38-2.07,8.54-3.26c-1.65,1.9-3.03,3.43-4.36,5.04c-1.45,1.76-2.92,3.51-4.28,5.45
		c-1.21,1.73-0.61,3.65,0.15,5.32c0.31,0.69,0.9,1.07,1.36,1.59C262.23,479.94,262.11,480.27,261.99,480.59z"/>
</g>
</svg>
